<?xml version="1.0" encoding="UTF-8" standalone="no"?>
<!-- Created with Inkscape (http://www.inkscape.org/) -->

<svg
   xmlns:dc="http://purl.org/dc/elements/1.1/"
   xmlns:cc="http://creativecommons.org/ns#"
   xmlns:rdf="http://www.w3.org/1999/02/22-rdf-syntax-ns#"
   xmlns:svg="http://www.w3.org/2000/svg"
   xmlns="http://www.w3.org/2000/svg"
   xmlns:sodipodi="http://sodipodi.sourceforge.net/DTD/sodipodi-0.dtd"
   xmlns:inkscape="http://www.inkscape.org/namespaces/inkscape"
   width="120pt"
   height="120pt"
   viewBox="0 0 42.333335 42.333333"
   version="1.1"
   id="svg5695"
   inkscape:version="0.92.1 r15371"
   sodipodi:docname="ResourceGrainIcon.svg"
   inkscape:export-filename="C:\Users\Scott\Documents\ResourceGrainIcon.png"
   inkscape:export-xdpi="76.800003"
   inkscape:export-ydpi="76.800003">
  <defs
     id="defs5689" />
  <sodipodi:namedview
     id="base"
     pagecolor="#ffffff"
     bordercolor="#666666"
     borderopacity="1.0"
     inkscape:pageopacity="0.0"
     inkscape:pageshadow="2"
     inkscape:zoom="2.8"
     inkscape:cx="40.72272"
     inkscape:cy="77.321428"
     inkscape:document-units="pt"
     inkscape:current-layer="layer1"
     showgrid="false"
     units="pt"
     inkscape:window-width="1366"
     inkscape:window-height="745"
     inkscape:window-x="-8"
     inkscape:window-y="-8"
     inkscape:window-maximized="1" />
  <metadata
     id="metadata5692">
    <rdf:RDF>
      <cc:Work
         rdf:about="">
        <dc:format>image/svg+xml</dc:format>
        <dc:type
           rdf:resource="http://purl.org/dc/dcmitype/StillImage" />
        <dc:title />
      </cc:Work>
    </rdf:RDF>
  </metadata>
  <g
     inkscape:label="Layer 1"
     inkscape:groupmode="layer"
     id="layer1"
     transform="translate(0,-254.66668)">
    <path
       style="opacity:1;fill:#ffff00;stroke:#000000;stroke-width:0.53760248;stroke-miterlimit:4;stroke-dasharray:none;stroke-opacity:1"
       d="m 21.64743,257.41323 c 7.882823,-0.0689 6.930506,11.82187 6.929663,20.6965 -5.25e-4,5.53188 -2.351042,8.59192 -6.929663,8.61942 -4.578621,0.0275 -6.930185,-2.87189 -6.929661,-8.61942 8.11e-4,-8.87463 -0.953159,-20.62761 6.929661,-20.6965 z"
       id="rect6244"
       inkscape:connector-curvature="0"
       sodipodi:nodetypes="zszsz" />
    <path
       sodipodi:nodetypes="sssssss"
       inkscape:connector-curvature="0"
       id="path6276"
       d="m 18.974657,269.08238 c 0.521985,-0.59883 1.692607,-0.59883 2.214592,0 0.260992,0.2994 0.233303,0.75461 0.233303,1.24006 0,0.48544 0.02769,1.00113 -0.233303,1.30054 -0.521985,0.59882 -1.692607,0.59882 -2.214592,0 -0.260992,-0.29941 -0.259668,-0.78486 -0.259668,-1.27031 0,-0.48543 -0.0013,-0.97089 0.259668,-1.27029 z"
       style="opacity:1;fill:#ffff00;stroke:#000000;stroke-width:0.59766895;stroke-miterlimit:4;stroke-dasharray:none;stroke-opacity:1" />
    <path
       style="opacity:1;fill:#ffff00;stroke:#000000;stroke-width:0.59766895;stroke-miterlimit:4;stroke-dasharray:none;stroke-opacity:1"
       d="m 21.809479,269.17688 c 0.521985,-0.59883 1.692607,-0.59883 2.214592,0 0.260992,0.2994 0.233303,0.75461 0.233303,1.24006 0,0.48544 0.02769,1.00113 -0.233303,1.30054 -0.521985,0.59882 -1.692607,0.59882 -2.214592,0 -0.260992,-0.29941 -0.259668,-0.78486 -0.259668,-1.27031 0,-0.48543 -0.0013,-0.97089 0.259668,-1.27029 z"
       id="path6278"
       inkscape:connector-curvature="0"
       sodipodi:nodetypes="sssssss" />
    <path
       sodipodi:nodetypes="sssssss"
       inkscape:connector-curvature="0"
       id="path6280"
       d="m 19.069151,265.5861 c 0.521985,-0.59883 1.692607,-0.59883 2.214592,0 0.260992,0.2994 0.233303,0.75461 0.233303,1.24006 0,0.48544 0.02769,1.00113 -0.233303,1.30054 -0.521985,0.59882 -1.692607,0.59882 -2.214592,0 -0.260992,-0.29941 -0.259668,-0.78486 -0.259668,-1.27031 0,-0.48543 -0.0013,-0.97089 0.259668,-1.27029 z"
       style="opacity:1;fill:#ffff00;stroke:#000000;stroke-width:0.59766895;stroke-miterlimit:4;stroke-dasharray:none;stroke-opacity:1" />
    <path
       style="opacity:1;fill:#ffff00;stroke:#000000;stroke-width:0.59766895;stroke-miterlimit:4;stroke-dasharray:none;stroke-opacity:1"
       d="m 21.903973,265.5861 c 0.521985,-0.59883 1.692607,-0.59883 2.214592,0 0.260992,0.2994 0.233303,0.75461 0.233303,1.24006 0,0.48544 0.02769,1.00113 -0.233303,1.30054 -0.521985,0.59882 -1.692607,0.59882 -2.214592,0 -0.260992,-0.29941 -0.259668,-0.78486 -0.259668,-1.27031 0,-0.48543 -0.0013,-0.97089 0.259668,-1.27029 z"
       id="path6282"
       inkscape:connector-curvature="0"
       sodipodi:nodetypes="sssssss" />
    <path
       sodipodi:nodetypes="sssssss"
       inkscape:connector-curvature="0"
       id="path6284"
       d="m 16.328824,265.58611 c 0.521985,-0.59883 1.692607,-0.59883 2.214592,0 0.260992,0.2994 0.233303,0.75461 0.233303,1.24006 0,0.48544 0.02769,1.00113 -0.233303,1.30054 -0.521985,0.59882 -1.692607,0.59882 -2.214592,0 -0.260992,-0.29941 -0.259668,-0.78486 -0.259668,-1.27031 0,-0.48543 -0.0013,-0.97089 0.259668,-1.27029 z"
       style="opacity:1;fill:#ffff00;stroke:#000000;stroke-width:0.59766895;stroke-miterlimit:4;stroke-dasharray:none;stroke-opacity:1" />
    <path
       style="opacity:1;fill:#ffff00;stroke:#000000;stroke-width:0.59766895;stroke-miterlimit:4;stroke-dasharray:none;stroke-opacity:1"
       d="m 16.23433,269.17688 c 0.521985,-0.59883 1.692607,-0.59883 2.214592,0 0.260992,0.2994 0.233303,0.75461 0.233303,1.24006 0,0.48544 0.02769,1.00113 -0.233303,1.30054 -0.521985,0.59882 -1.692607,0.59882 -2.214592,0 -0.260992,-0.29941 -0.259668,-0.78486 -0.259668,-1.27031 0,-0.48543 -0.0013,-0.97089 0.259668,-1.27029 z"
       id="path6286"
       inkscape:connector-curvature="0"
       sodipodi:nodetypes="sssssss" />
    <path
       sodipodi:nodetypes="sssssss"
       inkscape:connector-curvature="0"
       id="path6288"
       d="m 24.6443,269.17688 c 0.521985,-0.59883 1.692607,-0.59883 2.214592,0 0.260992,0.2994 0.233303,0.75461 0.233303,1.24006 0,0.48544 0.02769,1.00113 -0.233303,1.30054 -0.521985,0.59882 -1.692607,0.59882 -2.214592,0 -0.260992,-0.29941 -0.259668,-0.78486 -0.259668,-1.27031 0,-0.48543 -0.0013,-0.97089 0.259668,-1.27029 z"
       style="opacity:1;fill:#ffff00;stroke:#000000;stroke-width:0.59766895;stroke-miterlimit:4;stroke-dasharray:none;stroke-opacity:1" />
    <path
       style="opacity:1;fill:#ffff00;stroke:#000000;stroke-width:0.59766895;stroke-miterlimit:4;stroke-dasharray:none;stroke-opacity:1"
       d="m 24.6443,265.58611 c 0.521985,-0.59883 1.692607,-0.59883 2.214592,0 0.260992,0.2994 0.233303,0.75461 0.233303,1.24006 0,0.48544 0.02769,1.00113 -0.233303,1.30054 -0.521985,0.59882 -1.692607,0.59882 -2.214592,0 -0.260992,-0.29941 -0.259668,-0.78486 -0.259668,-1.27031 0,-0.48543 -0.0013,-0.97089 0.259668,-1.27029 z"
       id="path6290"
       inkscape:connector-curvature="0"
       sodipodi:nodetypes="sssssss" />
    <path
       style="opacity:1;fill:#ffff00;stroke:#000000;stroke-width:0.59766895;stroke-miterlimit:4;stroke-dasharray:none;stroke-opacity:1"
       d="m 18.974657,262.18431 c 0.521985,-0.59883 1.692607,-0.59883 2.214592,0 0.260992,0.2994 0.233303,0.75461 0.233303,1.24006 0,0.48544 0.02769,1.00113 -0.233303,1.30054 -0.521985,0.59882 -1.692607,0.59882 -2.214592,0 -0.260992,-0.29941 -0.259668,-0.78486 -0.259668,-1.27031 0,-0.48543 -0.0013,-0.97089 0.259668,-1.27029 z"
       id="path6292"
       inkscape:connector-curvature="0"
       sodipodi:nodetypes="sssssss" />
    <path
       sodipodi:nodetypes="sssssss"
       inkscape:connector-curvature="0"
       id="path6294"
       d="m 21.809479,262.18431 c 0.521985,-0.59883 1.692607,-0.59883 2.214592,0 0.260992,0.2994 0.233303,0.75461 0.233303,1.24006 0,0.48544 0.02769,1.00113 -0.233303,1.30054 -0.521985,0.59882 -1.692607,0.59882 -2.214592,0 -0.260992,-0.29941 -0.259668,-0.78486 -0.259668,-1.27031 0,-0.48543 -0.0013,-0.97089 0.259668,-1.27029 z"
       style="opacity:1;fill:#ffff00;stroke:#000000;stroke-width:0.59766895;stroke-miterlimit:4;stroke-dasharray:none;stroke-opacity:1" />
    <path
       style="opacity:1;fill:#ffff00;stroke:#000000;stroke-width:0.59766895;stroke-miterlimit:4;stroke-dasharray:none;stroke-opacity:1"
       d="m 16.23433,262.18432 c 0.521985,-0.59883 1.692607,-0.59883 2.214592,0 0.260992,0.2994 0.233303,0.75461 0.233303,1.24006 0,0.48544 0.02769,1.00113 -0.233303,1.30054 -0.521985,0.59882 -1.692607,0.59882 -2.214592,0 -0.260992,-0.29941 -0.259668,-0.78486 -0.259668,-1.27031 0,-0.48543 -0.0013,-0.97089 0.259668,-1.27029 z"
       id="path6296"
       inkscape:connector-curvature="0"
       sodipodi:nodetypes="sssssss" />
    <path
       sodipodi:nodetypes="sssssss"
       inkscape:connector-curvature="0"
       id="path6298"
       d="m 24.549806,262.18432 c 0.521985,-0.59883 1.692607,-0.59883 2.214592,0 0.260992,0.2994 0.233303,0.75461 0.233303,1.24006 0,0.48544 0.02769,1.00113 -0.233303,1.30054 -0.521985,0.59882 -1.692607,0.59882 -2.214592,0 -0.260992,-0.29941 -0.259668,-0.78486 -0.259668,-1.27031 0,-0.48543 -0.0013,-0.97089 0.259668,-1.27029 z"
       style="opacity:1;fill:#ffff00;stroke:#000000;stroke-width:0.59766895;stroke-miterlimit:4;stroke-dasharray:none;stroke-opacity:1" />
    <path
       sodipodi:nodetypes="sssssss"
       inkscape:connector-curvature="0"
       id="path6300"
       d="m 18.974657,272.57866 c 0.521985,-0.59883 1.692607,-0.59883 2.214592,0 0.260992,0.2994 0.233303,0.75461 0.233303,1.24006 0,0.48544 0.02769,1.00113 -0.233303,1.30054 -0.521985,0.59882 -1.692607,0.59882 -2.214592,0 -0.260992,-0.29941 -0.259668,-0.78486 -0.259668,-1.27031 0,-0.48543 -0.0013,-0.97089 0.259668,-1.27029 z"
       style="opacity:1;fill:#ffff00;stroke:#000000;stroke-width:0.59766895;stroke-miterlimit:4;stroke-dasharray:none;stroke-opacity:1" />
    <path
       style="opacity:1;fill:#ffff00;stroke:#000000;stroke-width:0.59766895;stroke-miterlimit:4;stroke-dasharray:none;stroke-opacity:1"
       d="m 21.809479,272.57866 c 0.521985,-0.59883 1.692607,-0.59883 2.214592,0 0.260992,0.2994 0.233303,0.75461 0.233303,1.24006 0,0.48544 0.02769,1.00113 -0.233303,1.30054 -0.521985,0.59882 -1.692607,0.59882 -2.214592,0 -0.260992,-0.29941 -0.259668,-0.78486 -0.259668,-1.27031 0,-0.48543 -0.0013,-0.97089 0.259668,-1.27029 z"
       id="path6302"
       inkscape:connector-curvature="0"
       sodipodi:nodetypes="sssssss" />
    <path
       sodipodi:nodetypes="sssssss"
       inkscape:connector-curvature="0"
       id="path6304"
       d="m 16.23433,272.57867 c 0.521985,-0.59883 1.692607,-0.59883 2.214592,0 0.260992,0.2994 0.233303,0.75461 0.233303,1.24006 0,0.48544 0.02769,1.00113 -0.233303,1.30054 -0.521985,0.59882 -1.692607,0.59882 -2.214592,0 -0.260992,-0.29941 -0.259668,-0.78486 -0.259668,-1.27031 0,-0.48543 -0.0013,-0.97089 0.259668,-1.27029 z"
       style="opacity:1;fill:#ffff00;stroke:#000000;stroke-width:0.59766895;stroke-miterlimit:4;stroke-dasharray:none;stroke-opacity:1" />
    <path
       style="opacity:1;fill:#ffff00;stroke:#000000;stroke-width:0.59766895;stroke-miterlimit:4;stroke-dasharray:none;stroke-opacity:1"
       d="m 24.549806,272.57867 c 0.521985,-0.59883 1.692607,-0.59883 2.214592,0 0.260992,0.2994 0.233303,0.75461 0.233303,1.24006 0,0.48544 0.02769,1.00113 -0.233303,1.30054 -0.521985,0.59882 -1.692607,0.59882 -2.214592,0 -0.260992,-0.29941 -0.259668,-0.78486 -0.259668,-1.27031 0,-0.48543 -0.0013,-0.97089 0.259668,-1.27029 z"
       id="path6306"
       inkscape:connector-curvature="0"
       sodipodi:nodetypes="sssssss" />
    <path
       style="opacity:1;fill:#ffff00;stroke:#000000;stroke-width:0.59766895;stroke-miterlimit:4;stroke-dasharray:none;stroke-opacity:1"
       d="m 19.069151,275.98045 c 0.521985,-0.59883 1.692607,-0.59883 2.214592,0 0.260992,0.2994 0.233303,0.75461 0.233303,1.24006 0,0.48544 0.02769,1.00113 -0.233303,1.30054 -0.521985,0.59882 -1.692607,0.59882 -2.214592,0 -0.260992,-0.29941 -0.259668,-0.78486 -0.259668,-1.27031 0,-0.48543 -0.0013,-0.97089 0.259668,-1.27029 z"
       id="path6308"
       inkscape:connector-curvature="0"
       sodipodi:nodetypes="sssssss" />
    <path
       sodipodi:nodetypes="sssssss"
       inkscape:connector-curvature="0"
       id="path6310"
       d="m 21.903973,275.98045 c 0.521985,-0.59883 1.692607,-0.59883 2.214592,0 0.260992,0.2994 0.233303,0.75461 0.233303,1.24006 0,0.48544 0.02769,1.00113 -0.233303,1.30054 -0.521985,0.59882 -1.692607,0.59882 -2.214592,0 -0.260992,-0.29941 -0.259668,-0.78486 -0.259668,-1.27031 0,-0.48543 -0.0013,-0.97089 0.259668,-1.27029 z"
       style="opacity:1;fill:#ffff00;stroke:#000000;stroke-width:0.59766895;stroke-miterlimit:4;stroke-dasharray:none;stroke-opacity:1" />
    <path
       style="opacity:1;fill:#ffff00;stroke:#000000;stroke-width:0.59766895;stroke-miterlimit:4;stroke-dasharray:none;stroke-opacity:1"
       d="m 16.328824,275.98046 c 0.521985,-0.59883 1.692607,-0.59883 2.214592,0 0.260992,0.2994 0.233303,0.75461 0.233303,1.24006 0,0.48544 0.02769,1.00113 -0.233303,1.30054 -0.521985,0.59882 -1.692607,0.59882 -2.214592,0 -0.260992,-0.29941 -0.259668,-0.78486 -0.259668,-1.27031 0,-0.48543 -0.0013,-0.97089 0.259668,-1.27029 z"
       id="path6312"
       inkscape:connector-curvature="0"
       sodipodi:nodetypes="sssssss" />
    <path
       sodipodi:nodetypes="sssssss"
       inkscape:connector-curvature="0"
       id="path6314"
       d="m 24.6443,275.98046 c 0.521985,-0.59883 1.692607,-0.59883 2.214592,0 0.260992,0.2994 0.233303,0.75461 0.233303,1.24006 0,0.48544 0.02769,1.00113 -0.233303,1.30054 -0.521985,0.59882 -1.692607,0.59882 -2.214592,0 -0.260992,-0.29941 -0.259668,-0.78486 -0.259668,-1.27031 0,-0.48543 -0.0013,-0.97089 0.259668,-1.27029 z"
       style="opacity:1;fill:#ffff00;stroke:#000000;stroke-width:0.59766895;stroke-miterlimit:4;stroke-dasharray:none;stroke-opacity:1" />
    <path
       sodipodi:nodetypes="sssssss"
       inkscape:connector-curvature="0"
       id="path6316"
       d="m 19.024379,258.6831 c 0.521985,-0.59883 1.692607,-0.59883 2.214592,0 0.260992,0.2994 0.233303,0.75461 0.233303,1.24006 0,0.48544 0.02769,1.00113 -0.233303,1.30054 -0.521985,0.59882 -1.692607,0.59882 -2.214592,0 -0.260992,-0.29941 -0.259668,-0.78486 -0.259668,-1.27031 0,-0.48543 -0.0013,-0.97089 0.259668,-1.27029 z"
       style="opacity:1;fill:#ffff00;stroke:#000000;stroke-width:0.59766895;stroke-miterlimit:4;stroke-dasharray:none;stroke-opacity:1" />
    <path
       style="opacity:1;fill:#ffff00;stroke:#000000;stroke-width:0.59766895;stroke-miterlimit:4;stroke-dasharray:none;stroke-opacity:1"
       d="m 21.859201,258.6831 c 0.521985,-0.59883 1.692607,-0.59883 2.214592,0 0.260992,0.2994 0.233303,0.75461 0.233303,1.24006 0,0.48544 0.02769,1.00113 -0.233303,1.30054 -0.521985,0.59882 -1.692607,0.59882 -2.214592,0 -0.260992,-0.29941 -0.259668,-0.78486 -0.259668,-1.27031 0,-0.48543 -0.0013,-0.97089 0.259668,-1.27029 z"
       id="path6318"
       inkscape:connector-curvature="0"
       sodipodi:nodetypes="sssssss" />
    <path
       style="opacity:1;fill:#ffff00;stroke:#000000;stroke-width:0.59766895;stroke-miterlimit:4;stroke-dasharray:none;stroke-opacity:1"
       d="m 19.024379,279.32073 c 0.521985,-0.59883 1.692607,-0.59883 2.214592,0 0.260992,0.2994 0.233303,0.75461 0.233303,1.24006 0,0.48544 0.02769,1.00113 -0.233303,1.30054 -0.521985,0.59882 -1.692607,0.59882 -2.214592,0 -0.260992,-0.29941 -0.259668,-0.78486 -0.259668,-1.27031 0,-0.48543 -0.0013,-0.97089 0.259668,-1.27029 z"
       id="path6320"
       inkscape:connector-curvature="0"
       sodipodi:nodetypes="sssssss" />
    <path
       sodipodi:nodetypes="sssssss"
       inkscape:connector-curvature="0"
       id="path6322"
       d="m 21.859201,279.32073 c 0.521985,-0.59883 1.692607,-0.59883 2.214592,0 0.260992,0.2994 0.233303,0.75461 0.233303,1.24006 0,0.48544 0.02769,1.00113 -0.233303,1.30054 -0.521985,0.59882 -1.692607,0.59882 -2.214592,0 -0.260992,-0.29941 -0.259668,-0.78486 -0.259668,-1.27031 0,-0.48543 -0.0013,-0.97089 0.259668,-1.27029 z"
       style="opacity:1;fill:#ffff00;stroke:#000000;stroke-width:0.59766895;stroke-miterlimit:4;stroke-dasharray:none;stroke-opacity:1" />
    <path
       style="opacity:1;fill:#00ff00;stroke:#000000;stroke-width:0.45576546;stroke-miterlimit:4;stroke-dasharray:none;stroke-opacity:1"
       d="m 39.781995,284.77507 c -9.77982,-5.10728 -3.846251,9.6464 -17.672561,9.57651 -2.840829,-5.80588 -2.29791,-9.42834 3.331179,-12.77033 3.306465,-1.96305 11.02046,-1.39101 14.341382,3.19382 z"
       id="rect6242"
       inkscape:connector-curvature="0"
       sodipodi:nodetypes="ccsc" />
    <path
       style="opacity:1;fill:#00ff00;stroke:#000000;stroke-width:0.47536719;stroke-miterlimit:4;stroke-dasharray:none;stroke-opacity:1"
       d="m 2.8256895,272.61369 c 6.9941714,4.88571 8.9929895,3.5845 13.4931105,7.2832 3.47199,2.85367 5.801906,7.51962 5.801906,14.46795 -8.176633,0.007 -10.642841,-2.51749 -13.031845,-5.47172 -4.1890512,-5.18017 -2.133951,-9.40989 -6.2631715,-16.27943 z"
       id="rect6240"
       inkscape:connector-curvature="0"
       sodipodi:nodetypes="cscsc" />
  </g>
</svg>
