<?xml version="1.0" encoding="UTF-8" standalone="no"?>
<!-- Created with Inkscape (http://www.inkscape.org/) -->

<svg
   xmlns:dc="http://purl.org/dc/elements/1.1/"
   xmlns:cc="http://creativecommons.org/ns#"
   xmlns:rdf="http://www.w3.org/1999/02/22-rdf-syntax-ns#"
   xmlns:svg="http://www.w3.org/2000/svg"
   xmlns="http://www.w3.org/2000/svg"
   xmlns:sodipodi="http://sodipodi.sourceforge.net/DTD/sodipodi-0.dtd"
   xmlns:inkscape="http://www.inkscape.org/namespaces/inkscape"
   width="120pt"
   height="120pt"
   viewBox="0 0 42.333335 42.333333"
   version="1.1"
   id="svg7469"
   inkscape:version="0.92.1 r15371"
   sodipodi:docname="ResourceMaterialWaterRawIcon.svg"
   inkscape:export-filename="C:\Users\Scott\Documents\ResourceAluminumRawIcon.png"
   inkscape:export-xdpi="76.800003"
   inkscape:export-ydpi="76.800003">
  <defs
     id="defs7463" />
  <sodipodi:namedview
     id="base"
     pagecolor="#ffffff"
     bordercolor="#666666"
     borderopacity="1.0"
     inkscape:pageopacity="0.0"
     inkscape:pageshadow="2"
     inkscape:zoom="0.98994949"
     inkscape:cx="70.543599"
     inkscape:cy="248.51329"
     inkscape:document-units="pt"
     inkscape:current-layer="layer1"
     showgrid="false"
     units="pt"
     inkscape:window-width="1366"
     inkscape:window-height="745"
     inkscape:window-x="-8"
     inkscape:window-y="-8"
     inkscape:window-maximized="1" />
  <metadata
     id="metadata7466">
    <rdf:RDF>
      <cc:Work
         rdf:about="">
        <dc:format>image/svg+xml</dc:format>
        <dc:type
           rdf:resource="http://purl.org/dc/dcmitype/StillImage" />
        <dc:title></dc:title>
      </cc:Work>
    </rdf:RDF>
  </metadata>
  <g
     inkscape:label="Layer 1"
     inkscape:groupmode="layer"
     id="layer1"
     transform="translate(0,-254.66668)">
    <path
       sodipodi:nodetypes="ccccccccc"
       inkscape:connector-curvature="0"
       id="path4561"
       d="m -24.336381,265.44423 1.436574,-0.3675 1.186009,0.20045 1.353052,1.87088 -0.968852,3.12372 -1.570209,0.15034 -1.937705,-0.35079 -0.785104,-2.00453 z"
       style="opacity:1;fill:#4d4d4d;stroke:#000000;stroke-width:0.35277778;stroke-miterlimit:4;stroke-dasharray:none;stroke-dashoffset:0;stroke-opacity:1" />
    <path
       style="opacity:1;fill:#c87137;stroke:#000000;stroke-width:0.5;stroke-miterlimit:4;stroke-dasharray:none;stroke-opacity:1"
       d="m 54.47094,264.21058 11.932312,-3.1183 11.932313,3.1183 v 30.71057 H 54.47094 Z"
       id="rect8110"
       inkscape:connector-curvature="0"
       sodipodi:nodetypes="cccccc" />
    <rect
       style="opacity:1;fill:#ffffff;stroke:#000000;stroke-width:0.5;stroke-miterlimit:4;stroke-dasharray:none;stroke-opacity:1"
       id="rect8113"
       width="8.7879467"
       height="3.96875"
       x="102.71503"
       y="261.18677" />
    <rect
       y="281.21951"
       x="102.71503"
       height="3.96875"
       width="8.7879467"
       id="rect8115"
       style="opacity:1;fill:#ffffff;stroke:#000000;stroke-width:0.5;stroke-miterlimit:4;stroke-dasharray:none;stroke-opacity:1" />
    <rect
       style="opacity:1;fill:#ffffff;stroke:#000000;stroke-width:0.5;stroke-miterlimit:4;stroke-dasharray:none;stroke-opacity:1"
       id="rect8117"
       width="8.7879467"
       height="3.96875"
       x="113.29948"
       y="281.21951" />
    <rect
       y="274.54193"
       x="102.71503"
       height="3.96875"
       width="8.7879467"
       id="rect8119"
       style="opacity:1;fill:#ffffff;stroke:#000000;stroke-width:0.5;stroke-miterlimit:4;stroke-dasharray:none;stroke-opacity:1" />
    <rect
       style="opacity:1;fill:#ffffff;stroke:#000000;stroke-width:0.5;stroke-miterlimit:4;stroke-dasharray:none;stroke-opacity:1"
       id="rect8121"
       width="8.7879467"
       height="3.96875"
       x="113.29948"
       y="274.54193" />
    <rect
       y="267.86435"
       x="102.71503"
       height="3.96875"
       width="8.7879467"
       id="rect8123"
       style="opacity:1;fill:#ffffff;stroke:#000000;stroke-width:0.5;stroke-miterlimit:4;stroke-dasharray:none;stroke-opacity:1" />
    <rect
       style="opacity:1;fill:#ffffff;stroke:#000000;stroke-width:0.5;stroke-miterlimit:4;stroke-dasharray:none;stroke-opacity:1"
       id="rect8125"
       width="8.7879467"
       height="3.96875"
       x="113.29948"
       y="267.86435" />
    <rect
       y="261.18677"
       x="113.29948"
       height="3.96875"
       width="8.7879467"
       id="rect8127"
       style="opacity:1;fill:#ffffff;stroke:#000000;stroke-width:0.5;stroke-miterlimit:4;stroke-dasharray:none;stroke-opacity:1" />
    <g
       id="g8136"
       transform="translate(85.611608,-2.1922619)"
       style="fill:#000000">
      <ellipse
         ry="1.5119048"
         rx="1.0866816"
         cy="273.94345"
         cx="9.9691219"
         id="path8129"
         style="opacity:1;fill:#000000;stroke:#000000;stroke-width:0.5;stroke-miterlimit:4;stroke-dasharray:none;stroke-opacity:1" />
      <path
         sodipodi:nodetypes="ccccc"
         inkscape:connector-curvature="0"
         id="path8131"
         d="M 12.284226,275.9184 9.9691219,293.12577 7.6540177,275.9184 9.9691219,275.64437 Z"
         style="opacity:1;fill:#000000;stroke:#000000;stroke-width:0.5;stroke-miterlimit:4;stroke-dasharray:none;stroke-opacity:1" />
    </g>
    <g
       id="g8142"
       transform="translate(81.926341,-0.49136906)">
      <ellipse
         style="opacity:1;fill:#ffffff;stroke:#000000;stroke-width:0.5;stroke-miterlimit:4;stroke-dasharray:none;stroke-opacity:1"
         id="ellipse8138"
         cx="9.9691219"
         cy="273.94345"
         rx="1.0866816"
         ry="1.5119048" />
      <path
         style="opacity:1;fill:#ffffff;stroke:#000000;stroke-width:0.5;stroke-miterlimit:4;stroke-dasharray:none;stroke-opacity:1"
         d="M 12.284226,275.9184 9.9691219,293.12577 7.6540177,275.9184 9.9691219,275.64437 Z"
         id="path8140"
         inkscape:connector-curvature="0"
         sodipodi:nodetypes="ccccc" />
    </g>
    <g
       transform="matrix(1,0,0,0.93617473,89.788245,17.6526)"
       id="g8148">
      <ellipse
         ry="1.5119048"
         rx="1.0866816"
         cy="273.94345"
         cx="9.9691219"
         id="ellipse8144"
         style="opacity:1;fill:#ffffff;stroke:#000000;stroke-width:0.5;stroke-miterlimit:4;stroke-dasharray:none;stroke-opacity:1" />
      <path
         sodipodi:nodetypes="ccccc"
         inkscape:connector-curvature="0"
         id="path8146"
         d="M 12.284226,275.9184 9.9691219,293.12577 7.6540177,275.9184 9.9691219,275.64437 Z"
         style="opacity:1;fill:#ffffff;stroke:#000000;stroke-width:0.5;stroke-miterlimit:4;stroke-dasharray:none;stroke-opacity:1" />
    </g>
    <path
       style="opacity:1;fill:#c87137;stroke:#000000;stroke-width:0.5;stroke-miterlimit:4;stroke-dasharray:none;stroke-dashoffset:0;stroke-opacity:1"
       d="m 99.88021,282.12664 0.09449,1.36071 c -9.687948,9.67795 5.0584,9.56624 18.86102,12.37872 H 92.509674 c -10.396731,-5.88954 0.499197,-10.34054 7.370536,-13.73943 z"
       id="rect4508"
       inkscape:connector-curvature="0"
       sodipodi:nodetypes="ccccc" />
    <path
       sodipodi:nodetypes="ccccccccc"
       inkscape:connector-curvature="0"
       id="path4577"
       d="m -28.603883,268.57637 3.006781,-0.31738 3.157122,0.61806 0.651469,3.22394 -0.150339,1.85418 -3.658252,1.98782 -3.240642,-1.50339 -0.567948,-2.33861 z"
       style="opacity:1;fill:#333333;stroke:#000000;stroke-width:0.35277778;stroke-miterlimit:4;stroke-dasharray:none;stroke-dashoffset:0;stroke-opacity:1" />
    <path
       style="opacity:1;fill:#999999;stroke:#000000;stroke-width:0.35277778;stroke-miterlimit:4;stroke-dasharray:none;stroke-dashoffset:0;stroke-opacity:1"
       d="m -27.545549,268.0472 3.006781,-0.31738 3.157122,0.61806 0.651469,3.22394 -0.150339,1.85418 -3.658252,1.98782 -3.240642,-1.50339 -0.567948,-2.33861 z"
       id="rect4514"
       inkscape:connector-curvature="0"
       sodipodi:nodetypes="ccccccccc" />
    <path
       style="opacity:1;fill:#ffffff;stroke:#000000;stroke-width:0.35277778;stroke-miterlimit:4;stroke-dasharray:none;stroke-dashoffset:0;stroke-opacity:1"
       d="m -7.3675129,281.21828 1.449856,-1.00866 1.351323,0.80977 0.07038,1.05128 -1.435781,0.85239 -1.43578,-0.85239 z"
       id="rect4518"
       inkscape:connector-curvature="0"
       sodipodi:nodetypes="ccccccc" />
    <path
       style="opacity:1;fill:#ffffff;stroke:#000000;stroke-width:0.35277778;stroke-miterlimit:4;stroke-dasharray:none;stroke-dashoffset:0;stroke-opacity:1"
       d="m -8.4442469,274.60592 0.254793,1.32032 -0.975446,1.25339 -1.6259471,0.16921 -0.883418,-0.87185 0.09845,-1.7765 0.622199,-0.7972 1.0307711,0.53147 z"
       id="rect4522"
       inkscape:connector-curvature="0"
       sodipodi:nodetypes="ccccccccc" />
    <path
       style="opacity:1;fill:#333333;stroke:#000000;stroke-width:0.35277778;stroke-miterlimit:4;stroke-dasharray:none;stroke-dashoffset:0;stroke-opacity:1"
       d="m -11.821928,279.87855 2.3453241,-0.28348 1.589371,0.85045 0.519718,1.62515 -0.992188,2.99532 -1.116901,0.14174 -2.2035831,-0.14174 -0.803199,-2.66459 z"
       id="rect4524"
       inkscape:connector-curvature="0"
       sodipodi:nodetypes="ccccccccc" />
    <path
       style="opacity:1;fill:#999999;stroke:#000000;stroke-width:0.35277778;stroke-miterlimit:4;stroke-dasharray:none;stroke-dashoffset:0;stroke-opacity:1"
       d="m -21.058862,275.37527 2.873147,-0.73499 4.6104,0.80181 1.533519,2.98348 -0.197172,6.90549 -4.476765,1.20271 -4.343129,-1.00226 -1.002261,-3.40767 z"
       id="rect4526"
       inkscape:connector-curvature="0"
       sodipodi:nodetypes="ccccccccc" />
    <path
       sodipodi:nodetypes="ccccccccc"
       inkscape:connector-curvature="0"
       id="path4589"
       d="m -11.821928,279.87855 2.3453241,-0.28348 1.589371,0.85045 0.519718,1.62515 -0.992188,1.40782 -1.116901,0.67091 -1.6744161,-0.14174 0.255134,-1.60626 z"
       style="opacity:1;fill:#e6e6e6;stroke:#000000;stroke-width:0.35277778;stroke-miterlimit:4;stroke-dasharray:none;stroke-dashoffset:0;stroke-opacity:1" />
    <path
       sodipodi:nodetypes="ccccccc"
       inkscape:connector-curvature="0"
       id="path4535"
       d="m -12.248492,281.42834 0.756592,1.59595 -1.0209,1.19982 -1.048547,-0.1034 -0.604762,-1.55637 1.076824,-1.27612 z"
       style="opacity:1;fill:#ffffff;stroke:#000000;stroke-width:0.35277778;stroke-miterlimit:4;stroke-dasharray:none;stroke-dashoffset:0;stroke-opacity:1" />
    <path
       sodipodi:nodetypes="ccccccccc"
       inkscape:connector-curvature="0"
       id="path4543"
       d="m -29.755174,275.55744 1.202712,-0.60136 1.469983,0.60136 0.601356,1.5201 -0.601356,1.08578 -1.737252,0.3842 -0.935443,-0.3842 0.233861,-1.1359 z"
       style="opacity:1;fill:#999999;stroke:#000000;stroke-width:0.35277778;stroke-miterlimit:4;stroke-dasharray:none;stroke-dashoffset:0;stroke-opacity:1" />
    <path
       sodipodi:nodetypes="ccccccccc"
       inkscape:connector-curvature="0"
       id="path4571"
       d="m -32.468462,273.76785 3.00678,-0.31738 3.157122,0.61806 0.651469,3.22394 -0.150339,1.85418 -3.658252,1.98782 -3.240641,-1.50339 -0.567948,-2.33861 z"
       style="opacity:1;fill:#333333;stroke:#000000;stroke-width:0.35277778;stroke-miterlimit:4;stroke-dasharray:none;stroke-dashoffset:0;stroke-opacity:1" />
    <path
       style="opacity:1;fill:#e6e6e6;stroke:#000000;stroke-width:0.35277778;stroke-miterlimit:4;stroke-dasharray:none;stroke-dashoffset:0;stroke-opacity:1"
       d="m -31.939296,273.76785 2.477614,-0.31738 3.157122,0.61806 0.651469,3.22394 -0.150339,1.85418 -1.541585,-1.18718 -2.182308,0.0841 -2.155448,-1.80944 z"
       id="path4587"
       inkscape:connector-curvature="0"
       sodipodi:nodetypes="ccccccccc" />
    <path
       style="opacity:1;fill:#999999;stroke:#000000;stroke-width:0.35277778;stroke-miterlimit:4;stroke-dasharray:none;stroke-dashoffset:0;stroke-opacity:1"
       d="m -34.115851,277.50593 1.436574,-0.3675 1.186009,0.20045 1.353052,1.87088 -0.968852,3.12372 -1.570209,0.15034 -1.937705,-0.35079 -0.785104,-2.00453 z"
       id="rect4516"
       inkscape:connector-curvature="0"
       sodipodi:nodetypes="ccccccccc" />
    <path
       sodipodi:nodetypes="ccccccccc"
       inkscape:connector-curvature="0"
       id="path4579"
       d="m -31.410129,280.11789 3.006781,-0.31738 3.157122,0.61806 0.651469,3.22394 -0.150339,1.85418 -3.658252,1.98782 -3.240642,-1.50339 -0.567948,-2.33861 z"
       style="opacity:1;fill:#333333;stroke:#000000;stroke-width:0.35277778;stroke-miterlimit:4;stroke-dasharray:none;stroke-dashoffset:0;stroke-opacity:1" />
    <path
       sodipodi:nodetypes="ccccccccc"
       inkscape:connector-curvature="0"
       id="path4547"
       d="m -26.509797,284.28801 1.436574,-0.3675 1.186009,0.20045 1.353052,1.87088 -0.968852,3.12372 -1.570209,0.15034 -1.937705,-0.35079 -0.785104,-2.00453 z"
       style="opacity:1;fill:#333333;stroke:#000000;stroke-width:0.35277778;stroke-miterlimit:4;stroke-dasharray:none;stroke-dashoffset:0;stroke-opacity:1" />
    <path
       sodipodi:nodetypes="ccccccc"
       inkscape:connector-curvature="0"
       id="path4539"
       d="m -33.78487,283.67977 0.365171,-1.72804 1.539155,-0.33587 0.771476,0.71762 -0.461975,1.60456 -1.629877,0.36267 z"
       style="opacity:1;fill:#999999;stroke:#000000;stroke-width:0.35277778;stroke-miterlimit:4;stroke-dasharray:none;stroke-dashoffset:0;stroke-opacity:1" />
    <path
       sodipodi:nodetypes="ccccccccccc"
       inkscape:connector-curvature="0"
       id="path4581"
       d="m -20.259862,283.15175 -1.353052,-1.87088 -1.852653,-3.89972 1.269438,-0.77722 1.139167,-0.21739 1.512759,3.48383 1.954696,5.01076 5.350539,0.44993 -4.476765,1.20271 -4.343129,-1.00226 z"
       style="opacity:1;fill:#333333;stroke:#000000;stroke-width:0.35277778;stroke-miterlimit:4;stroke-dasharray:none;stroke-dashoffset:0;stroke-opacity:1" />
    <path
       sodipodi:nodetypes="ccccccccc"
       inkscape:connector-curvature="0"
       id="path4541"
       d="m -22.550984,272.50375 3.006781,-0.31738 3.157122,0.61806 0.651469,3.22394 -0.150339,1.85418 -3.658252,1.98782 -3.240642,-1.50339 -0.567948,-2.33861 z"
       style="opacity:1;fill:#333333;stroke:#000000;stroke-width:0.35277778;stroke-miterlimit:4;stroke-dasharray:none;stroke-dashoffset:0;stroke-opacity:1" />
    <path
       style="opacity:1;fill:#999999;stroke:#000000;stroke-width:0.35277778;stroke-miterlimit:4;stroke-dasharray:none;stroke-dashoffset:0;stroke-opacity:1"
       d="m -23.465567,277.38115 -1.014884,-0.88213 -0.0052,-1.58823 1.175497,-1.13602 1.233106,0.14141 1.018186,1.45909 0.0019,1.01127 -1.139167,0.21739 z"
       id="path4545"
       inkscape:connector-curvature="0"
       sodipodi:nodetypes="ccccccccc" />
    <path
       style="opacity:1;fill:#e6e6e6;stroke:#000000;stroke-width:0.35277778;stroke-miterlimit:4;stroke-dasharray:none;stroke-dashoffset:0;stroke-opacity:1"
       d="m -30.351795,279.05955 3.006781,-0.31738 3.157122,0.61806 0.651469,3.22394 -0.150339,1.85418 -3.658252,1.98782 -3.240642,-1.50339 -0.567948,-2.33861 z"
       id="path4549"
       inkscape:connector-curvature="0"
       sodipodi:nodetypes="ccccccccc" />
    <path
       style="opacity:1;fill:#333333;stroke:#000000;stroke-width:0.35277778;stroke-miterlimit:4;stroke-dasharray:none;stroke-dashoffset:0;stroke-opacity:1"
       d="m -17.364981,268.18759 1.449856,-1.00866 1.351323,0.80977 0.07038,1.05128 -1.435781,0.85239 -1.43578,-0.85239 z"
       id="path4593"
       inkscape:connector-curvature="0"
       sodipodi:nodetypes="ccccccc" />
    <path
       style="opacity:1;fill:#e6e6e6;stroke:#000000;stroke-width:0.35277778;stroke-miterlimit:4;stroke-dasharray:none;stroke-dashoffset:0;stroke-opacity:1"
       d="m -16.194186,263.44768 1.433085,1.87807 0.07244,1.80115 -1.137524,1.27171 -3.084964,0.66286 -0.68828,-0.89097 -0.994688,-1.97141 1.88988,-2.04292 z"
       id="path4573"
       inkscape:connector-curvature="0"
       sodipodi:nodetypes="ccccccccc" />
    <path
       sodipodi:nodetypes="ccccccccc"
       inkscape:connector-curvature="0"
       id="path4551"
       d="m -21.94861,267.54468 2.345324,-0.28348 1.589371,0.85045 0.519718,1.62515 -0.992188,2.99532 -1.116901,0.14174 -2.203583,-0.14174 -0.803199,-2.66459 z"
       style="opacity:1;fill:#999999;stroke:#000000;stroke-width:0.35277778;stroke-miterlimit:4;stroke-dasharray:none;stroke-dashoffset:0;stroke-opacity:1" />
    <path
       sodipodi:nodetypes="ccccccc"
       inkscape:connector-curvature="0"
       id="path4553"
       d="m -9.4766039,279.59507 1.449856,-1.00866 1.351323,0.80977 0.07038,1.05128 -1.435781,0.85239 -1.43578,-0.85239 z"
       style="opacity:1;fill:#999999;stroke:#000000;stroke-width:0.35277778;stroke-miterlimit:4;stroke-dasharray:none;stroke-dashoffset:0;stroke-opacity:1" />
    <path
       sodipodi:nodetypes="ccccccc"
       inkscape:connector-curvature="0"
       id="path4555"
       d="m -22.127484,265.01257 1.449856,-1.00866 1.351323,0.80977 0.07038,1.05128 -1.435781,0.85239 -1.43578,-0.85239 z"
       style="opacity:1;fill:#e6e6e6;stroke:#000000;stroke-width:0.35277778;stroke-miterlimit:4;stroke-dasharray:none;stroke-dashoffset:0;stroke-opacity:1" />
    <path
       style="opacity:1;fill:#ffffff;stroke:#000000;stroke-width:0.35277778;stroke-miterlimit:4;stroke-dasharray:none;stroke-dashoffset:0;stroke-opacity:1"
       d="m -21.117338,265.55211 0.756592,1.59595 -1.0209,1.19982 -1.048547,-0.1034 -0.604762,-1.55637 1.076824,-1.27612 z"
       id="path4557"
       inkscape:connector-curvature="0"
       sodipodi:nodetypes="ccccccc" />
    <path
       sodipodi:nodetypes="ccccccc"
       inkscape:connector-curvature="0"
       id="path4559"
       d="m -17.749607,266.37422 0.756592,1.59595 -1.0209,1.19982 -1.048547,-0.1034 -0.604762,-1.55637 1.076824,-1.27612 z"
       style="opacity:1;fill:#ffffff;stroke:#000000;stroke-width:0.35277778;stroke-miterlimit:4;stroke-dasharray:none;stroke-dashoffset:0;stroke-opacity:1" />
    <path
       sodipodi:nodetypes="ccccccccc"
       inkscape:connector-curvature="0"
       id="path4597"
       d="m -24.235497,281.44792 1.436574,-0.3675 1.186009,0.20045 1.353052,1.87088 -0.968852,3.12372 -1.570209,0.15034 -1.937705,-0.35079 -0.785104,-2.00453 z"
       style="opacity:1;fill:#333333;stroke:#000000;stroke-width:0.35277778;stroke-miterlimit:4;stroke-dasharray:none;stroke-dashoffset:0;stroke-opacity:1" />
    <path
       style="opacity:1;fill:#ffffff;stroke:#000000;stroke-width:0.35277778;stroke-miterlimit:4;stroke-dasharray:none;stroke-dashoffset:0;stroke-opacity:1"
       d="m -24.235497,281.44792 1.436574,-0.3675 1.186009,0.20045 1.353052,1.87088 -0.968852,3.12372 -1.041042,-1.43716 -1.937705,0.17838 0.671037,-1.37418 z"
       id="path4563"
       inkscape:connector-curvature="0"
       sodipodi:nodetypes="ccccccccc" />
    <path
       style="opacity:1;fill:#ffffff;stroke:#000000;stroke-width:0.35277778;stroke-miterlimit:4;stroke-dasharray:none;stroke-dashoffset:0;stroke-opacity:1"
       d="m -24.234701,279.37564 1.449856,-1.00866 1.351323,0.80977 0.07038,1.05128 -1.435781,0.85239 -1.43578,-0.85239 z"
       id="path4537"
       inkscape:connector-curvature="0"
       sodipodi:nodetypes="ccccccc" />
    <path
       sodipodi:nodetypes="ccccccccc"
       inkscape:connector-curvature="0"
       id="path4565"
       d="m -13.392169,276.76313 1.717904,-0.28614 1.6785431,0.91172 0.285186,1.57563 -1.1063501,0.88415 -2.328751,-0.044 -1.067682,-0.58161 0.65512,-1.01748 z"
       style="opacity:1;fill:#333333;stroke:#000000;stroke-width:0.35277778;stroke-miterlimit:4;stroke-dasharray:none;stroke-dashoffset:0;stroke-opacity:1" />
    <path
       style="opacity:1;fill:#ffffff;stroke:#000000;stroke-width:0.35277778;stroke-miterlimit:4;stroke-dasharray:none;stroke-dashoffset:0;stroke-opacity:1"
       d="m -13.392169,276.76313 1.717904,-0.28614 1.6785431,0.91172 0.285186,1.57563 -1.1063501,-0.17418 -1.270418,0.48516 c -1.837775,-0.79557 -1.662611,-0.32762 -0.412562,-1.06992 z"
       id="path4595"
       inkscape:connector-curvature="0"
       sodipodi:nodetypes="cccccccc" />
    <path
       style="opacity:1;fill:#e6e6e6;stroke:#000000;stroke-width:0.35277778;stroke-miterlimit:4;stroke-dasharray:none;stroke-dashoffset:0;stroke-opacity:1"
       d="m -10.085589,277.65912 1.4498561,-1.00866 1.351323,0.80977 0.07038,1.05128 -1.435781,0.85239 -1.4357801,-0.85239 z"
       id="path4567"
       inkscape:connector-curvature="0"
       sodipodi:nodetypes="ccccccc" />
    <path
       style="opacity:1;fill:#e6e6e6;stroke:#000000;stroke-width:0.35277778;stroke-miterlimit:4;stroke-dasharray:none;stroke-dashoffset:0;stroke-opacity:1"
       d="m -22.021817,272.50375 2.477614,-0.31738 3.157122,0.61806 0.651469,3.22394 -0.150339,1.32501 -3.129085,0.92949 -2.418486,-0.16445 -0.762607,-1.51449 z"
       id="path4585"
       inkscape:connector-curvature="0"
       sodipodi:nodetypes="ccccccccc" />
    <path
       style="opacity:1;fill:#333333;stroke:#000000;stroke-width:0.35277778;stroke-miterlimit:4;stroke-dasharray:none;stroke-dashoffset:0;stroke-opacity:1"
       d="m -17.684576,269.2075 3.006781,-0.31738 3.157122,0.61806 0.651469,3.22394 -0.150339,1.85418 -3.658252,1.98782 -3.240642,-1.50339 -0.567948,-2.33861 z"
       id="path4569"
       inkscape:connector-curvature="0"
       sodipodi:nodetypes="ccccccccc" />
    <path
       style="opacity:1;fill:#ffffff;stroke:#000000;stroke-width:0.35277778;stroke-miterlimit:4;stroke-dasharray:none;stroke-dashoffset:0;stroke-opacity:1"
       d="m -21.676497,264.82705 -1.413927,1.05845 -1.378652,-0.76232 -0.106876,-1.0482 1.405285,-0.90177 1.464538,0.80197 z"
       id="path4575"
       inkscape:connector-curvature="0"
       sodipodi:nodetypes="ccccccc" />
    <path
       sodipodi:nodetypes="cccccccccc"
       inkscape:connector-curvature="0"
       id="path4583"
       d="m -17.494197,270.79513 -0.190379,-1.58763 3.006781,-0.31738 3.157122,0.61806 0.651469,3.22394 -0.150339,1.85418 -2.555772,0.32662 -2.755622,-0.37136 -1.626281,-1.28027 z"
       style="opacity:1;fill:#ffffff;stroke:#000000;stroke-width:0.35277778;stroke-miterlimit:4;stroke-dasharray:none;stroke-dashoffset:0;stroke-opacity:1" />
    <path
       sodipodi:nodetypes="ccccccc"
       inkscape:connector-curvature="0"
       id="path4591"
       d="m -26.220137,276.58681 1.734486,-1.67602 1.616609,1.34555 0.08419,1.74684 -1.717648,1.41637 -1.717647,-1.41637 z"
       style="opacity:1;fill:#ffffff;stroke:#000000;stroke-width:0.35277778;stroke-miterlimit:4;stroke-dasharray:none;stroke-dashoffset:0;stroke-opacity:1" />
    <ellipse
       style="opacity:1;fill:#ffdd55;stroke:#000000;stroke-width:0.35277778;stroke-miterlimit:4;stroke-dasharray:none;stroke-dashoffset:0;stroke-opacity:1"
       id="ellipse4609"
       cx="61.289024"
       cy="278.59402"
       rx="0.76873201"
       ry="6.7822962"
       transform="rotate(13.011039)" />
    <path
       sodipodi:nodetypes="ccccc"
       inkscape:connector-curvature="0"
       id="path4614"
       d="m 13.363476,240.60615 16.303442,-9.2208 2.271791,4.14268 -15.768903,10.15624 z"
       style="opacity:1;fill:#c87137;stroke:#000000;stroke-width:0.35277781;stroke-miterlimit:4;stroke-dasharray:none;stroke-dashoffset:0;stroke-opacity:1" />
    <path
       style="opacity:1;fill:#c87137;stroke:#000000;stroke-width:0.35277781;stroke-miterlimit:4;stroke-dasharray:none;stroke-dashoffset:0;stroke-opacity:1"
       d="m 0.13363426,244.61518 16.30344174,-9.2208 2.271791,4.14268 -15.7689028,10.15624 z"
       id="path4616"
       inkscape:connector-curvature="0"
       sodipodi:nodetypes="ccccc" />
    <path
       sodipodi:nodetypes="csccscc"
       inkscape:connector-curvature="0"
       id="path4632"
       d="m -39.387781,316.07745 c -0.302474,-0.52654 7.006285,-1.3011 13.921081,-5.99238 3.619033,-2.4553 11.387393,-6.51615 11.387393,-6.51615 1.404901,0.57901 2.31656,0.004 2.681611,3.35584 0,0 -7.746982,4.13528 -11.009654,7.01453 -3.604409,3.18083 -13.41508,8.91797 -13.41508,7.94998 z"
       style="opacity:1;fill:#c87137;stroke:#000000;stroke-width:0.43291855;stroke-miterlimit:4;stroke-dasharray:none;stroke-dashoffset:0;stroke-opacity:1" />
    <path
       style="opacity:1;fill:#280b0b;stroke:#000000;stroke-width:0.48015913;stroke-miterlimit:4;stroke-dasharray:none;stroke-dashoffset:0;stroke-opacity:1"
       d="m -45.389546,311.11592 c -0.328524,-0.59636 7.609705,-1.47363 15.120041,-6.787 3.930724,-2.78088 12.368138,-7.38021 12.368138,-7.38021 1.525899,0.65579 2.516075,0.005 2.912566,3.80084 0,0 -8.414194,4.68363 -11.957866,7.94468 -3.91484,3.60262 -14.57046,10.10053 -14.57046,9.00418 z"
       id="path4638"
       inkscape:connector-curvature="0"
       sodipodi:nodetypes="csccscc" />
    <ellipse
       ry="3.910429"
       rx="2.4758296"
       cy="229.25436"
       cx="-206.23332"
       id="ellipse4640"
       style="opacity:1;fill:#806600;stroke:#000000;stroke-width:0.61012012;stroke-miterlimit:4;stroke-dasharray:none;stroke-dashoffset:0;stroke-opacity:1"
       transform="matrix(0.80867454,-0.58825631,0.53811629,0.8428706,0,0)" />
    <path
       style="opacity:1;fill:#552200;stroke:#000000;stroke-width:0.43291855;stroke-miterlimit:4;stroke-dasharray:none;stroke-dashoffset:0;stroke-opacity:1"
       d="m -39.387781,312.06841 c -0.302474,-0.52654 7.006285,-1.3011 13.921081,-5.99238 3.619033,-2.4553 11.387393,-6.51615 11.387393,-6.51615 1.404901,0.57901 2.31656,0.004 2.681611,3.35584 0,0 -7.746982,4.13528 -11.009654,7.01453 -3.604409,3.18083 -13.41508,8.91797 -13.41508,7.94998 z"
       id="path4620"
       inkscape:connector-curvature="0"
       sodipodi:nodetypes="csccscc" />
    <path
       sodipodi:nodetypes="csccscc"
       inkscape:connector-curvature="0"
       id="path4644"
       d="m -45.069799,305.72742 c -0.302473,-0.52654 7.006285,-1.3011 13.921081,-5.99238 3.619033,-2.4553 11.387393,-6.51615 11.387393,-6.51615 1.404901,0.57901 2.31656,0.004 2.681611,3.35584 0,0 -7.746982,4.13528 -11.009654,7.01453 -3.604409,3.18083 -13.41508,8.91797 -13.41508,7.94998 z"
       style="opacity:1;fill:#c87137;stroke:#000000;stroke-width:0.43291855;stroke-miterlimit:4;stroke-dasharray:none;stroke-dashoffset:0;stroke-opacity:1" />
    <path
       style="opacity:1;fill:#784421;stroke:#000000;stroke-width:0.49199179;stroke-miterlimit:4;stroke-dasharray:none;stroke-dashoffset:0;stroke-opacity:1"
       d="m -41.213524,307.6176 c 2.491514,-1.387 8.150234,-5.02358 12.846655,-6.55615 9.754842,-3.18325 9.348058,-3.78481 12.034006,-6.07422 1.565121,0.0119 2.343053,0.72594 1.676868,2.729 v 0 c 0.161027,-0.14371 -3.73393,4.21621 -10.941041,7.14476 -6.63084,2.69439 -8.188652,4.44474 -10.767556,7.7256 l -1.964856,-2.10569 z"
       id="path4622"
       inkscape:connector-curvature="0"
       sodipodi:nodetypes="cscccsccc" />
    <path
       style="opacity:1;fill:#552200;stroke:#000000;stroke-width:0.43291855;stroke-miterlimit:4;stroke-dasharray:none;stroke-dashoffset:0;stroke-opacity:1"
       d="m -35.683614,318.72328 c 0.660378,0.11536 5.442046,0.97165 11.275247,-4.40488 3.272802,-3.01657 9.365065,-6.74581 9.126347,-6.74581 1.23414,-0.43129 2.468279,-0.86259 3.702418,-1.29389 0.07092,0.32604 0.131603,0.18419 0.181906,0.64606 0,0 -7.746982,4.13528 -11.009654,7.01453 -3.604409,3.18083 -13.41508,8.91797 -13.41508,7.94998 z"
       id="path4660"
       inkscape:connector-curvature="0"
       sodipodi:nodetypes="cscccscc" />
    <ellipse
       transform="matrix(0.8201628,-0.57213021,0.55417366,0.83240108,0,0)"
       style="opacity:1;fill:#554400;stroke:#000000;stroke-width:0.54965138;stroke-miterlimit:4;stroke-dasharray:none;stroke-dashoffset:0;stroke-opacity:1"
       id="ellipse4634"
       cx="-208.16054"
       cy="240.28607"
       rx="2.2475762"
       ry="3.496026" />
    <path
       sodipodi:nodetypes="csccscc"
       inkscape:connector-curvature="0"
       id="path4662"
       d="m -36.893759,314.17409 c -0.768175,-0.71282 4.332241,-2.84379 12.485392,-7.03973 3.888577,-2.00122 11.151158,-6.99806 11.151158,-6.99806 1.066388,-0.0196 1.423286,1.02514 1.670525,2.25026 0,0 -8.087161,4.13527 -11.349833,7.01452 -3.604409,3.18083 -13.41508,8.38881 -13.41508,7.42082 z"
       style="opacity:1;fill:#d38d5f;stroke:#000000;stroke-width:0;stroke-miterlimit:4;stroke-dasharray:none;stroke-dashoffset:0;stroke-opacity:1" />
    <ellipse
       ry="3.496026"
       rx="2.2475762"
       cy="236.99722"
       cx="-205.93831"
       id="ellipse4605"
       style="opacity:1;fill:#ffdd55;stroke:#000000;stroke-width:0.54965138;stroke-miterlimit:4;stroke-dasharray:none;stroke-dashoffset:0;stroke-opacity:1"
       transform="matrix(0.8201628,-0.57213021,0.55417366,0.83240108,0,0)" />
    <path
       style="opacity:1;fill:#2b1100;stroke:#000000;stroke-width:0;stroke-miterlimit:4;stroke-dasharray:none;stroke-dashoffset:0;stroke-opacity:1"
       d="m -38.862363,315.61844 c 0.765825,1.00635 2.649584,3.10484 3.28535,-0.53703 0.519554,0.11546 1.0709,2.71005 -0.05091,2.92896 -0.509034,0.3551 -1.186729,0.35084 -1.870918,0.0569 -0.684182,-0.29392 -1.374864,-0.87751 -1.909863,-1.68111 -0.535,-0.8036 -0.813025,-1.67506 -0.830038,-2.43438 -0.01702,-0.75933 0.226969,-1.40653 0.736003,-1.76162 0.509034,-0.3551 1.186732,-0.35086 1.87092,-0.0569 0.46115,0.19811 2.001952,2.11921 1.720605,1.58196 -2.034918,1.09314 -4.492841,-1.16448 -2.951154,1.90323 z"
       id="ellipse4664"
       inkscape:connector-curvature="0"
       sodipodi:nodetypes="cccccccccc" />
    <path
       sodipodi:nodetypes="cscccccc"
       inkscape:connector-curvature="0"
       id="path4667"
       d="m -40.684357,308.14677 c 2.491514,-1.387 7.857302,-4.82515 12.553723,-6.35772 9.754842,-3.18325 9.64099,-3.98324 12.326938,-6.27265 1.565121,0.0119 0.96344,0.13062 1.147701,1.1415 -1.327463,1.43701 -9.100201,6.36691 -10.941041,7.14476 -6.63084,2.69439 -9.246985,4.44474 -11.825889,7.7256 l -0.906523,-1.04736 z"
       style="opacity:1;fill:#d38d5f;stroke:#000000;stroke-width:0;stroke-miterlimit:4;stroke-dasharray:none;stroke-dashoffset:0;stroke-opacity:1" />
    <path
       style="opacity:1;fill:#deaa87;stroke:#000000;stroke-width:0;stroke-miterlimit:4;stroke-dasharray:none;stroke-dashoffset:0;stroke-opacity:1"
       d="m -45.069799,305.72742 c -0.302473,-0.52654 7.006285,-1.3011 13.921081,-5.99238 3.619033,-2.4553 11.387393,-6.51615 11.387393,-6.51615 0,0 -0.09449,-0.18899 1.736671,0.56827 -2.987736,0.40088 -5.400137,2.03061 -12.332571,5.8806 -2.291353,1.85793 -9.046505,4.97157 -13.462327,6.62706 z"
       id="path4669"
       inkscape:connector-curvature="0"
       sodipodi:nodetypes="csccccc" />
    <ellipse
       transform="matrix(0.8201628,-0.57213021,0.55417366,0.83240108,0,0)"
       style="opacity:1;fill:#ffdd55;stroke:#000000;stroke-width:0.54965138;stroke-miterlimit:4;stroke-dasharray:none;stroke-dashoffset:0;stroke-opacity:1"
       id="ellipse4646"
       cx="-207.15431"
       cy="228.54373"
       rx="2.2475762"
       ry="3.496026" />
    <ellipse
       style="opacity:1;fill:#ffdd55;stroke:#000000;stroke-width:0.60771316;stroke-miterlimit:4;stroke-dasharray:none;stroke-dashoffset:0;stroke-opacity:1"
       id="path4599"
       cx="-224.1701"
       cy="231.78604"
       rx="1.8909402"
       ry="3.4541631"
       transform="matrix(0.8178239,-0.57546857,0.62303309,0.78219548,0,0)" />
    <path
       sodipodi:nodetypes="cccccc"
       inkscape:connector-curvature="0"
       id="path4671"
       d="m -42.169654,310.23227 c -0.006,-1.51842 -0.42221,-1.56679 0.95613,-2.61467 -0.88686,0.0887 -0.502812,3.20405 0.577421,3.40021 -0.142121,0.30588 -0.82253,0.86839 -2.579623,0.71836 -0.684182,-0.29392 -1.28037,-1.01926 -1.815369,-1.82286 2.495408,2.23754 2.925041,1.59837 2.861441,0.31896 z"
       style="opacity:1;fill:#2b1100;stroke:#000000;stroke-width:0;stroke-miterlimit:4;stroke-dasharray:none;stroke-dashoffset:0;stroke-opacity:1" />
    <path
       style="opacity:1;vector-effect:none;fill:none;fill-opacity:1;stroke:#5b2400;stroke-width:2.82222223;stroke-linecap:butt;stroke-linejoin:miter;stroke-miterlimit:4;stroke-dasharray:none;stroke-dashoffset:0;stroke-opacity:1"
       d="m 22.997449,308.22754 c -2.875119,2.37268 -22.38339509,3.19839 -19.0122014,9.94078 1.6290017,3.258 5.0382607,3.40605 3.4017857,8.31547 -1.990319,5.97096 -2.903361,6.61859 -8.3910702,11.52828"
       id="path4673"
       inkscape:connector-curvature="0"
       sodipodi:nodetypes="cssc" />
    <path
       inkscape:connector-curvature="0"
       id="path4675"
       d="m 29.309652,315.33349 c -5.142976,7.28637 -8.284886,-2.96262 -13.796131,3.77977 -2.305286,2.82026 4.32559,4.96931 -1.322916,10.39434 -8.1356847,7.81381 -7.0681557,12.47322 -1.322917,10.39435"
       style="opacity:1;vector-effect:none;fill:none;fill-opacity:1;stroke:#ff6600;stroke-width:2.82222223;stroke-linecap:butt;stroke-linejoin:miter;stroke-miterlimit:4;stroke-dasharray:none;stroke-dashoffset:0;stroke-opacity:1"
       sodipodi:nodetypes="cssc" />
    <path
       style="opacity:1;vector-effect:none;fill:none;fill-opacity:1;stroke:#af4700;stroke-width:2.82222223;stroke-linecap:butt;stroke-linejoin:miter;stroke-miterlimit:4;stroke-dasharray:none;stroke-dashoffset:0;stroke-opacity:0.98947371"
       d="m 20.36171,305.12511 c -2.37268,2.87511 -1.384107,6.58398 -7.370545,13.41815 -2.400124,2.74 -5.6739067,1.00936 -8.6934457,4.34672 -4.22270479,4.66717 -0.4850647,3.87952 -6.0476231,7.9375"
       id="path4677"
       inkscape:connector-curvature="0"
       sodipodi:nodetypes="cssc" />
    <path
       inkscape:connector-curvature="0"
       id="path4679"
       d="m 4.1056966,338.77202 c 2.8751187,-2.37268 10.5527434,-2.70702 16.2529764,-9.07143 2.4302,-2.71337 0.06442,-7.3748 1.700891,-12.28422 1.990319,-5.97096 0.937885,-9.18883 4.346728,-10.01638"
       style="opacity:1;vector-effect:none;fill:none;fill-opacity:1;stroke:#ffff00;stroke-width:2.82222223;stroke-linecap:butt;stroke-linejoin:miter;stroke-miterlimit:4;stroke-dasharray:none;stroke-dashoffset:0;stroke-opacity:1"
       sodipodi:nodetypes="cssc" />
    <path
       sodipodi:nodetypes="cssc"
       inkscape:connector-curvature="0"
       id="path4681"
       d="m 5.9151433,335.30267 c 2.372682,-2.87511 1.384108,-6.58398 7.3705467,-13.41815 2.400124,-2.74 5.673907,-1.00936 8.693446,-4.34672 4.222707,-4.66717 0.485065,-3.87952 6.047625,-7.9375"
       style="opacity:1;vector-effect:none;fill:none;fill-opacity:1;stroke:#ff3100;stroke-width:2.82222223;stroke-linecap:butt;stroke-linejoin:miter;stroke-miterlimit:4;stroke-dasharray:none;stroke-dashoffset:0;stroke-opacity:0.98947371" />
    <ellipse
       transform="rotate(-55.263337)"
       style="opacity:1;fill:#ffdd55;stroke:#000000;stroke-width:0.35277778;stroke-miterlimit:4;stroke-dasharray:none;stroke-dashoffset:0;stroke-opacity:1"
       id="ellipse4683"
       cx="-244.78333"
       cy="162.57272"
       rx="1.0470705"
       ry="4.5883918" />
    <ellipse
       ry="6.7822962"
       rx="0.76873201"
       cy="272.14392"
       cx="-2.672694"
       id="ellipse4685"
       style="opacity:1;fill:#ffdd55;stroke:#000000;stroke-width:0.35277778;stroke-miterlimit:4;stroke-dasharray:none;stroke-dashoffset:0;stroke-opacity:1" />
    <g
       id="g4713"
       transform="matrix(1.2212183,0,0,1.1339976,-73.067837,-66.269953)">
      <ellipse
         style="opacity:1;fill:#ffdd55;stroke:#000000;stroke-width:0.88414764;stroke-miterlimit:4;stroke-dasharray:none;stroke-dashoffset:0;stroke-opacity:1"
         id="ellipse4698"
         cx="-286.98758"
         cy="-5.4996095"
         rx="3.117038"
         ry="6.5226169"
         transform="matrix(-0.09214451,-0.99574564,-0.99018193,0.13978462,0,0)" />
      <path
         style="opacity:1;fill:#000000;stroke:#0b0b00;stroke-width:0.55493295;stroke-miterlimit:4;stroke-dasharray:none;stroke-dashoffset:0;stroke-opacity:1"
         d="m 40.824717,270.61927 -14.039147,-7.30701 -1.271265,3.47816 1.643909,4.99759 -2.512622,1.85118 2.662213,3.08967 -3.444823,0.22502 1.739872,3.30944 -1.563143,2.14902 1.177715,1.49738 0.06377,2.04529 c 1.218289,4.98513 14.459521,2.31175 13.059871,-2.11021 l 0.918902,-2.56863 -2.652007,-2.27583 3.528504,0.93109 -2.938224,-2.35134 3.559557,-1.0019 -0.897819,-3.41799 z"
         id="path4700"
         inkscape:connector-curvature="0"
         sodipodi:nodetypes="ccccccccccccccccccc" />
      <path
         sodipodi:nodetypes="cccccccccccccccccccc"
         inkscape:connector-curvature="0"
         id="path4729"
         d="m 40.824717,270.61927 -14.039147,-7.30701 -1.271265,3.47816 3.075382,4.87259 -2.82213,2.22616 3.822898,3.04809 -4.876327,0.47493 3.067297,2.84241 -2.965136,2.08034 0.401137,1.57478 -0.482051,0.93111 c 1.218289,4.98513 13.999443,2.92596 12.599793,-1.496 l 0.570706,-1.94367 -1.878239,-1.69253 1.594083,-1.02712 -1.114548,-0.54764 0.226811,-1.22041 2.476281,-0.96023 -0.549623,-2.75137 z"
         style="opacity:1;fill:#cccccc;stroke:#0b0b00;stroke-width:0;stroke-miterlimit:4;stroke-dasharray:none;stroke-dashoffset:0;stroke-opacity:1" />
      <path
         sodipodi:nodetypes="cccsccccccccccccccccccccccccc"
         inkscape:connector-curvature="0"
         id="path4702"
         d="m 40.476256,271.29917 -13.690686,-7.98691 -1.271265,3.47816 c 0,0 1.313965,2.58171 2.423641,3.81485 1.051269,1.16822 3.395119,3.77063 3.395119,3.77063 l -1.175402,-0.82847 -1.273632,-0.89775 -1.709729,1.43576 1.434198,1.24071 0.981955,1.61111 c 1.666577,1.89799 1.613429,2.73589 3.569674,2.5867 0.832189,1.2431 -1.481868,1.85487 -4.742577,-1.15172 -0.665844,0.41777 -0.460285,2.0159 0.292395,2.79897 1.275467,1.07724 2.047756,1.23463 4.530971,1.27368 -2.302687,1.17957 -3.941574,0.21515 -5.866273,-1.0534 l -1.642669,1.70616 1.952449,0.25738 v 0 c 4.182231,3.22747 7.403489,0.86601 8.496897,-0.54807 l 0.384315,-1.37144 c 1.35296,0.14932 -1.035214,-0.6645 -1.035214,-0.6645 -2.259388,-0.76266 -2.961855,-0.35465 -4.326539,-1.09787 l 5.404107,-0.67263 -3.574004,-2.08749 4.55688,-1.43861 -0.221966,-1.75875 c -1.862587,-0.73724 -1.300537,-0.19144 -3.966407,-1.39373 0.305573,-0.15402 5.888632,2.16221 7.073794,-1.02269 z"
         style="opacity:1;fill:#ffffff;stroke:#0b0b00;stroke-width:0;stroke-miterlimit:4;stroke-dasharray:none;stroke-dashoffset:0;stroke-opacity:1" />
      <path
         style="opacity:1;fill:#b3b3b3;stroke:#000000;stroke-width:0.27746648;stroke-miterlimit:4;stroke-dasharray:none;stroke-dashoffset:0;stroke-opacity:1"
         d="m 33.038629,271.30955 c 3.165258,1.70069 7.65278,1.74492 8.109119,-1.17469 0.456366,-2.91963 -3.570222,-5.86462 -6.366298,-7.49708 -2.79609,-1.63241 -7.544451,-2.14137 -8.199389,0.45611 -0.654942,2.59747 3.291313,6.51495 6.456568,8.21566 z"
         id="path4704"
         inkscape:connector-curvature="0"
         sodipodi:nodetypes="zzzzz" />
      <path
         sodipodi:nodetypes="zzzzz"
         inkscape:connector-curvature="0"
         id="path4706"
         d="m 31.600565,269.16019 c 2.971173,2.18677 8.025189,2.76372 8.47039,0.51799 0.445219,-2.24572 -1.91417,-3.8625 -4.848397,-5.70373 -2.934223,-1.84124 -7.066853,-2.21327 -7.531335,-0.59701 -0.464489,1.61624 0.938164,3.59597 3.909342,5.78275 z"
         style="opacity:1;fill:#cccccc;stroke:#000000;stroke-width:0.27746648;stroke-miterlimit:4;stroke-dasharray:none;stroke-dashoffset:0;stroke-opacity:1" />
    </g>
    <path
       style="opacity:1;fill:#000000;stroke:#0b0b00;stroke-width:0;stroke-miterlimit:4;stroke-dasharray:none;stroke-dashoffset:0;stroke-opacity:1"
       d="m -57.166616,257.1149 9.901187,-11.58745 2.311612,1.314 -0.17067,4.17057 1.19816,0.87069 -1.15906,2.90431 2.323656,-0.88983 0.489876,1.7858 3.960149,-0.70255 -0.528288,1.47692 0.64279,1.20126 c 0.628037,3.48936 -11.979894,8.95791 -12.255258,5.69424 l -1.689532,-0.98092 1.196748,-1.76465 -1.540881,0.49794 -0.822786,-0.4745 0.521674,-0.99011 -2.28341,0.84067 -0.375395,-2.42546 z"
       id="rect4687"
       inkscape:connector-curvature="0"
       sodipodi:nodetypes="cccccccccccccccccccc" />
    <path
       sodipodi:nodetypes="ccccccccccccsc"
       inkscape:connector-curvature="0"
       id="path4727"
       d="m -51.214691,250.14931 3.949262,-4.62186 2.311612,1.314 0.538035,3.03664 1.247261,1.31183 -0.215973,1.80171 1.851185,0.19685 -0.110168,1.57362 3.331771,0.21834 -0.528288,1.47692 0.64279,1.20126 c 0.239405,1.33013 -1.444517,2.94786 -3.635477,4.25986 -4.729433,-0.65355 -4.958716,-3.25327 -5.759724,-5.45992 -0.836814,-2.30528 -2.166304,-4.24875 -3.622286,-6.30925 z"
       style="opacity:1;fill:#b3b3b3;stroke:#0b0b00;stroke-width:0;stroke-miterlimit:4;stroke-dasharray:none;stroke-dashoffset:0;stroke-opacity:1" />
    <path
       sodipodi:nodetypes="cccsccccccccccccccccccccccccc"
       inkscape:connector-curvature="0"
       id="path4690"
       d="m -56.626472,257.31894 9.361043,-11.79149 2.311612,1.314 c 0,0 -0.277981,2.16789 -0.836502,3.45802 -0.529125,1.22222 -1.70958,3.94597 -1.70958,3.94597 l 0.754883,-1.09385 0.817964,-1.18528 2.000725,-0.0836 -0.842534,1.46589 -0.316526,1.43843 -0.898676,1.92574 2.42503,-1.72616 c 0.730844,-0.11325 1.095566,0.90765 0.698489,1.75226 -0.758226,1.28872 -0.914009,1.6448 -3.09374,2.97885 2.436833,-0.54303 3.082115,-1.81758 4.348322,-3.55847 l 1.165675,-0.0659 -0.403783,1.59896 1.535168,-0.52371 c -2.590391,4.05168 -7.145149,5.57012 -8.594156,5.34047 l -1.804977,-1.4696 0.68713,-0.92618 0.906701,-1.57587 -2.463546,1.13439 2.442884,-3.07963 -4.516194,1.58593 -0.405123,-1.12124 c 1.392962,-1.40477 1.083141,-0.7963 3.026575,-2.89088 -0.322517,0.0735 -4.461537,4.34498 -6.596864,3.15292 z"
       style="opacity:1;fill:#ffffff;stroke:#0b0b00;stroke-width:0;stroke-miterlimit:4;stroke-dasharray:none;stroke-dashoffset:0;stroke-opacity:1" />
    <path
       style="opacity:1;fill:#b3b3b3;stroke:#000000;stroke-width:0.22959778;stroke-miterlimit:4;stroke-dasharray:none;stroke-dashoffset:0;stroke-opacity:1"
       d="m -50.054307,253.39594 c -2.214112,2.6429 -6.162197,5.03868 -7.563181,3.61306 -1.401011,-1.42562 1.148478,-5.23383 3.059865,-7.64276 1.911416,-2.40891 5.931016,-5.20776 7.397285,-4.07094 1.466266,1.13681 -0.679867,5.45774 -2.893969,8.10064 z"
       id="ellipse4607"
       inkscape:connector-curvature="0"
       sodipodi:nodetypes="zzzzz" />
    <path
       sodipodi:nodetypes="zzzzz"
       inkscape:connector-curvature="0"
       id="path4696"
       d="m -49.518943,251.40931 c -1.876555,2.81786 -6.142857,5.81699 -7.303656,4.77018 -1.160822,-1.04681 0.370264,-3.2161 2.332298,-5.81719 1.962031,-2.60108 5.484642,-4.99652 6.447312,-4.31923 0.962671,0.67728 0.4006,2.54837 -1.475954,5.36624 z"
       style="opacity:1;fill:#ffffff;stroke:#000000;stroke-width:0.22959778;stroke-miterlimit:4;stroke-dasharray:none;stroke-dashoffset:0;stroke-opacity:1" />
    <path
       sodipodi:nodetypes="ccccccccccccc"
       inkscape:connector-curvature="0"
       id="path4734"
       d="m 70.355247,216.93222 8.954484,1.30902 v 1.12628 l -3.717633,0.0657 v 15.40748 l 3.717633,1.07391 v 1.28335 l -8.954484,-1.30902 v -1.231 l 3.822355,-0.0267 v -15.35512 l -3.822355,-1.21765 z"
       style="opacity:1;fill:#cccccc;stroke:#0b0b00;stroke-width:0;stroke-miterlimit:4;stroke-dasharray:none;stroke-dashoffset:0;stroke-opacity:1" />
    <path
       style="opacity:1;fill:#a05a2c;stroke:#0b0b00;stroke-width:0;stroke-miterlimit:4;stroke-dasharray:none;stroke-dashoffset:0;stroke-opacity:1"
       d="m 71.42528,243.84562 7.884451,-7.93101 v 1.28335 l -7.884451,8.28533 z"
       id="rect4736"
       inkscape:connector-curvature="0"
       sodipodi:nodetypes="ccccc" />
    <path
       sodipodi:nodetypes="ccccccccc"
       inkscape:connector-curvature="0"
       id="path4743"
       d="m 59.998553,242.242 10.356694,-7.58406 3.822355,-0.0267 1.414496,0.20946 3.717633,1.07391 -7.884451,7.93101 -4.744034,-1.3704 -1.805024,-0.26732 z"
       style="opacity:1;fill:#ffccaa;stroke:#0b0b00;stroke-width:0;stroke-miterlimit:4;stroke-dasharray:none;stroke-dashoffset:0;stroke-opacity:1" />
    <path
       style="opacity:1;fill:#a05a2c;stroke:#0b0b00;stroke-width:0;stroke-miterlimit:4;stroke-dasharray:none;stroke-dashoffset:0;stroke-opacity:1"
       d="m 59.998553,242.242 10.356694,-7.58406 3.822355,-0.0267 -9.30138,7.57666 z"
       id="path4749"
       inkscape:connector-curvature="0"
       sodipodi:nodetypes="ccccc" />
    <path
       sodipodi:nodetypes="ccccc"
       inkscape:connector-curvature="0"
       id="path4745"
       d="m 66.681246,222.81388 8.910852,-3.38066 v 15.40748 l -8.910852,7.63452 z"
       style="opacity:1;fill:#d38d5f;stroke:#0b0b00;stroke-width:0;stroke-miterlimit:4;stroke-dasharray:none;stroke-dashoffset:0;stroke-opacity:1" />
    <path
       style="opacity:1;fill:#784421;stroke:#0b0b00;stroke-width:0;stroke-miterlimit:4;stroke-dasharray:none;stroke-dashoffset:0;stroke-opacity:1"
       d="m 66.681246,222.81388 8.910852,-3.38066 v 4.91716 l -8.910852,5.09545 z"
       id="path4747"
       inkscape:connector-curvature="0"
       sodipodi:nodetypes="ccccc" />
    <path
       style="opacity:1;fill:#deaa87;stroke:#0b0b00;stroke-width:0;stroke-miterlimit:4;stroke-dasharray:none;stroke-dashoffset:0;stroke-opacity:1"
       d="m 59.998553,219.62242 10.356694,-2.6902 8.954484,1.30902 -7.884451,3.05161 z"
       id="path4741"
       inkscape:connector-curvature="0"
       sodipodi:nodetypes="ccccc" />
    <path
       sodipodi:nodetypes="ccccc"
       inkscape:connector-curvature="0"
       id="path4739"
       d="m 71.42528,221.29285 7.884451,-3.05161 v 1.12628 l -7.884451,3.36256 z"
       style="opacity:1;fill:#a05a2c;stroke:#0b0b00;stroke-width:0;stroke-miterlimit:4;stroke-dasharray:none;stroke-dashoffset:0;stroke-opacity:1" />
    <path
       style="opacity:1;fill:#280b0b;stroke:#0b0b00;stroke-width:0;stroke-miterlimit:4;stroke-dasharray:none;stroke-dashoffset:0;stroke-opacity:1"
       d="m 59.998553,219.62242 11.426727,1.67043 v 1.43723 l -4.744034,0.0838 v 19.66134 l 4.744034,1.3704 v 1.63767 L 59.998553,243.81286 V 242.242 l 4.877669,-0.0341 v -19.59452 l -4.877669,-1.55383 z"
       id="rect4731"
       inkscape:connector-curvature="0"
       sodipodi:nodetypes="ccccccccccccc" />
    <path
       style="opacity:1;fill:#0000ff;stroke:#0b0b00;stroke-width:0;stroke-miterlimit:4;stroke-dasharray:none;stroke-dashoffset:0;stroke-opacity:1"
       d="m 31.805074,281.23112 c 0.459435,8.25332 -4.814374,12.2944 -10.423511,12.2944 -5.609137,0 -9.888972,-4.0283 -9.888973,-12.2944 -2e-6,-8.2661 7.219798,-15.50164 9.888973,-22.45064 3.738253,15.50163 9.888975,12.8482 10.423511,22.45064 z"
       id="path4751"
       inkscape:connector-curvature="0"
       sodipodi:nodetypes="ssscs" />
    <path
       style="opacity:1;fill:#c87137;stroke:#000000;stroke-width:0.65867072;stroke-miterlimit:4;stroke-dasharray:none;stroke-dashoffset:0;stroke-opacity:1"
       d="M 1.5319078,228.08215 31.081003,210.34688 35.1985,218.3149 6.6182273,237.8494 Z"
       id="rect4611"
       inkscape:connector-curvature="0"
       sodipodi:nodetypes="ccccc" />
    <path
       sodipodi:nodetypes="ssccs"
       inkscape:connector-curvature="0"
       id="path4756"
       d="m 31.805074,281.23112 c 0.459435,8.25332 -4.814374,12.2944 -10.423511,12.2944 -4.241203,0 -7.722413,-2.30307 -9.168133,-6.99979 l 17.554508,-11.83468 c 1.090846,1.57963 1.862775,3.40783 2.037136,6.54007 z"
       style="opacity:1;fill:#deaa87;stroke:#0b0b00;stroke-width:0;stroke-miterlimit:4;stroke-dasharray:none;stroke-dashoffset:0;stroke-opacity:1" />
    <path
       sodipodi:nodetypes="ccc"
       inkscape:connector-curvature="0"
       id="path4754"
       d="m 19.766267,289.24921 c -9.527331,-1.93939 -3.207234,-15.50163 -3.207234,-15.50163 -0.08071,10.65091 14.50291,13.48082 3.207234,15.50163 z"
       style="opacity:1;fill:#00ffff;stroke:#0b0b00;stroke-width:0;stroke-miterlimit:4;stroke-dasharray:none;stroke-dashoffset:0;stroke-opacity:1" />
  </g>
</svg>
