<?xml version="1.0" encoding="UTF-8" standalone="no"?>
<!-- Created with Inkscape (http://www.inkscape.org/) -->

<svg
   xmlns:dc="http://purl.org/dc/elements/1.1/"
   xmlns:cc="http://creativecommons.org/ns#"
   xmlns:rdf="http://www.w3.org/1999/02/22-rdf-syntax-ns#"
   xmlns:svg="http://www.w3.org/2000/svg"
   xmlns="http://www.w3.org/2000/svg"
   xmlns:sodipodi="http://sodipodi.sourceforge.net/DTD/sodipodi-0.dtd"
   xmlns:inkscape="http://www.inkscape.org/namespaces/inkscape"
   width="120pt"
   height="120pt"
   viewBox="0 0 42.333335 42.333333"
   version="1.1"
   id="svg7469"
   inkscape:version="0.92.1 r15371"
   sodipodi:docname="ResourceVineIcon.svg">
  <defs
     id="defs7463" />
  <sodipodi:namedview
     id="base"
     pagecolor="#ffffff"
     bordercolor="#666666"
     borderopacity="1.0"
     inkscape:pageopacity="0.0"
     inkscape:pageshadow="2"
     inkscape:zoom="2.8"
     inkscape:cx="146.08445"
     inkscape:cy="60"
     inkscape:document-units="pt"
     inkscape:current-layer="layer1"
     showgrid="false"
     units="pt"
     inkscape:window-width="1366"
     inkscape:window-height="745"
     inkscape:window-x="-8"
     inkscape:window-y="-8"
     inkscape:window-maximized="1" />
  <metadata
     id="metadata7466">
    <rdf:RDF>
      <cc:Work
         rdf:about="">
        <dc:format>image/svg+xml</dc:format>
        <dc:type
           rdf:resource="http://purl.org/dc/dcmitype/StillImage" />
        <dc:title></dc:title>
      </cc:Work>
    </rdf:RDF>
  </metadata>
  <g
     inkscape:label="Layer 1"
     inkscape:groupmode="layer"
     id="layer1"
     transform="translate(0,-254.66668)">
    <path
       style="opacity:1;fill:#552200;stroke:#000000;stroke-width:0.5;stroke-miterlimit:4;stroke-dasharray:none;stroke-opacity:1"
       d="m 32.298066,264.28618 c 0,0 -1.773935,3.25959 -2.267857,5.0318 -0.564302,2.02474 -0.948875,4.1672 -0.755953,6.26023 0.270425,2.93386 2.708832,5.48797 2.645834,8.4336 -0.05747,2.68708 -2.740328,7.58314 -2.740328,7.58314 h -1.247321 c 0,0 2.682859,-4.89606 2.740328,-7.58314 0.063,-2.94563 -2.375409,-5.49974 -2.645834,-8.4336 -0.192922,-2.09303 0.191651,-4.23549 0.755953,-6.26023 1.099851,-2.26587 1.797757,-3.99237 3.515178,-5.0318 z"
       id="rect8016"
       inkscape:connector-curvature="0"
       sodipodi:nodetypes="csssccsscc" />
    <path
       style="opacity:1;fill:#552200;stroke:#000000;stroke-width:0.5;stroke-miterlimit:4;stroke-dasharray:none;stroke-opacity:1"
       d="m 22.357291,261.26238 c 0.724454,2.09462 2.464379,4.08668 2.173363,6.28385 -0.31498,2.3781 -3.129597,5.49786 -3.685268,8.55171 -0.601184,3.30399 -0.312041,6.7983 0.47247,10.06362 0.46434,1.93268 2.456846,5.43341 2.456846,5.43341 h -1.493006 c 0,0 -1.992505,-3.50073 -2.456845,-5.43341 -0.784512,-3.26532 -1.073655,-6.75963 -0.47247,-10.06362 0.55567,-3.05385 3.337453,-6.47376 3.685267,-8.55171 0.523156,-3.12549 -1.127406,-2.69308 -0.680357,-6.28385 z"
       id="rect8018"
       inkscape:connector-curvature="0"
       sodipodi:nodetypes="csssccsssc" />
    <path
       style="opacity:1;fill:#552200;stroke:#000000;stroke-width:0.5;stroke-miterlimit:4;stroke-dasharray:none;stroke-opacity:1"
       d="m 13.531548,263.8137 c 0,0 -1.607838,4.68728 -1.889881,7.38471 -0.251486,2.40519 -0.998635,4.9255 -0.340179,7.25242 1.008732,3.56477 5.799691,5.88478 6.104316,9.57698 0.110036,1.33369 -1.41741,4.3231 -1.41741,4.3231 h -1.28512 c 0,0 1.527447,-2.42245 1.417411,-3.75614 -0.304624,-3.6922 -4.566417,-5.52083 -5.575149,-9.0856 -0.6584564,-2.32693 -0.6165591,-4.87223 -0.188988,-7.25242 0.502545,-2.79756 3.175,-8.44305 3.175,-8.44305 z"
       id="rect8020"
       inkscape:connector-curvature="0"
       sodipodi:nodetypes="csssccsssc" />
    <path
       style="opacity:1;fill:#00ff00;stroke:#000000;stroke-width:0.5;stroke-miterlimit:4;stroke-dasharray:none;stroke-opacity:1"
       d="m 31.78416,285.19496 c 0.495353,-0.76891 2.125641,-1.73526 2.125641,-1.73526 0,0 -0.173791,1.25904 -0.524153,1.76161 -0.477376,0.68476 -2.005052,1.50027 -2.005052,1.50027 0,0 0.118494,-1.08415 0.403552,-1.52663 z"
       id="rect8022"
       inkscape:connector-curvature="0"
       sodipodi:nodetypes="scscs" />
    <path
       sodipodi:nodetypes="scscs"
       inkscape:connector-curvature="0"
       id="path8029"
       d="m 28.894614,278.01341 c -0.495353,-0.76891 -2.125641,-1.73526 -2.125641,-1.73526 0,0 0.173791,1.25904 0.524153,1.76161 0.477376,0.68476 2.005052,1.50027 2.005052,1.50027 0,0 -0.118494,-1.08415 -0.403552,-1.52663 z"
       style="opacity:1;fill:#00ff00;stroke:#000000;stroke-width:0.5;stroke-miterlimit:4;stroke-dasharray:none;stroke-opacity:1" />
    <path
       sodipodi:nodetypes="scscs"
       inkscape:connector-curvature="0"
       id="path8031"
       d="m 32.70163,262.75956 c 0.495353,-0.76891 2.125641,-1.73526 2.125641,-1.73526 0,0 -0.173791,1.25904 -0.524153,1.76161 -0.477376,0.68476 -2.005052,1.50027 -2.005052,1.50027 0,0 0.118494,-1.08415 0.403552,-1.52663 z"
       style="opacity:1;fill:#00ff00;stroke:#000000;stroke-width:0.5;stroke-miterlimit:4;stroke-dasharray:none;stroke-opacity:1" />
    <path
       sodipodi:nodetypes="scscs"
       inkscape:connector-curvature="0"
       id="path8033"
       d="m 30.602984,276.83224 c 0.495353,-0.76891 2.125641,-1.73526 2.125641,-1.73526 0,0 -0.173791,1.25904 -0.524153,1.76161 -0.477376,0.68476 -2.005052,1.50027 -2.005052,1.50027 0,0 0.118494,-1.08415 0.403552,-1.52663 z"
       style="opacity:1;fill:#00ff00;stroke:#000000;stroke-width:0.5;stroke-miterlimit:4;stroke-dasharray:none;stroke-opacity:1" />
    <path
       style="opacity:1;fill:#00ff00;stroke:#000000;stroke-width:0.5;stroke-miterlimit:4;stroke-dasharray:none;stroke-opacity:1"
       d="m 28.202966,267.79136 c -0.495353,-0.76891 -2.125641,-1.73526 -2.125641,-1.73526 0,0 0.173791,1.25904 0.524153,1.76161 0.477376,0.68476 2.005052,1.50027 2.005052,1.50027 0,0 -0.118494,-1.08415 -0.403552,-1.52663 z"
       id="path8035"
       inkscape:connector-curvature="0"
       sodipodi:nodetypes="scscs" />
    <path
       style="opacity:1;fill:#00ff00;stroke:#000000;stroke-width:0.5;stroke-miterlimit:4;stroke-dasharray:none;stroke-opacity:1"
       d="m 30.130514,269.03648 c 0.495353,-0.76891 2.125641,-1.73526 2.125641,-1.73526 0,0 -0.173791,1.25904 -0.524153,1.76161 -0.477376,0.68476 -2.005052,1.50027 -2.005052,1.50027 0,0 0.118494,-1.08415 0.403552,-1.52663 z"
       id="path8037"
       inkscape:connector-curvature="0"
       sodipodi:nodetypes="scscs" />
    <path
       style="opacity:1;fill:#00ff00;stroke:#000000;stroke-width:0.5;stroke-miterlimit:4;stroke-dasharray:none;stroke-opacity:1"
       d="m 29.319837,285.90366 c -0.495353,-0.76891 -2.125641,-1.73526 -2.125641,-1.73526 0,0 0.173791,1.25904 0.524153,1.76161 0.477376,0.68476 2.005052,1.50027 2.005052,1.50027 0,0 -0.118494,-1.08415 -0.403552,-1.52663 z"
       id="path8039"
       inkscape:connector-curvature="0"
       sodipodi:nodetypes="scscs" />
    <path
       style="opacity:1;fill:#00ff00;stroke:#000000;stroke-width:0.5;stroke-miterlimit:4;stroke-dasharray:none;stroke-opacity:1"
       d="m 20.86262,288.31326 c -0.495353,-0.76891 -2.125641,-1.73526 -2.125641,-1.73526 0,0 0.173791,1.25904 0.524153,1.76161 0.477376,0.68476 2.005052,1.50027 2.005052,1.50027 0,0 -0.118494,-1.08415 -0.403552,-1.52663 z"
       id="path8041"
       inkscape:connector-curvature="0"
       sodipodi:nodetypes="scscs" />
    <path
       style="opacity:1;fill:#00ff00;stroke:#000000;stroke-width:0.5;stroke-miterlimit:4;stroke-dasharray:none;stroke-opacity:1"
       d="m 22.57099,287.13209 c 0.495353,-0.76891 2.125641,-1.73526 2.125641,-1.73526 0,0 -0.173791,1.25904 -0.524153,1.76161 -0.477376,0.68476 -2.005052,1.50027 -2.005052,1.50027 0,0 0.118494,-1.08415 0.403552,-1.52663 z"
       id="path8043"
       inkscape:connector-curvature="0"
       sodipodi:nodetypes="scscs" />
    <path
       sodipodi:nodetypes="scscs"
       inkscape:connector-curvature="0"
       id="path8045"
       d="m 22.412322,264.87874 c -0.495353,-0.76891 -2.125641,-1.73526 -2.125641,-1.73526 0,0 0.173791,1.25904 0.524153,1.76161 0.477376,0.68476 2.005052,1.50027 2.005052,1.50027 0,0 -0.118494,-1.08415 -0.403552,-1.52663 z"
       style="opacity:1;fill:#00ff00;stroke:#000000;stroke-width:0.5;stroke-miterlimit:4;stroke-dasharray:none;stroke-opacity:1" />
    <path
       sodipodi:nodetypes="scscs"
       inkscape:connector-curvature="0"
       id="path8047"
       d="m 24.649859,263.69757 c 0.495353,-0.76891 2.125641,-1.73526 2.125641,-1.73526 0,0 -0.173791,1.25904 -0.524153,1.76161 -0.477376,0.68476 -2.005052,1.50027 -2.005052,1.50027 0,0 0.118494,-1.08415 0.403552,-1.52663 z"
       style="opacity:1;fill:#00ff00;stroke:#000000;stroke-width:0.5;stroke-miterlimit:4;stroke-dasharray:none;stroke-opacity:1" />
    <path
       style="opacity:1;fill:#00ff00;stroke:#000000;stroke-width:0.5;stroke-miterlimit:4;stroke-dasharray:none;stroke-opacity:1"
       d="m 20.711429,270.64288 c -0.495353,-0.76891 -2.125641,-1.73526 -2.125641,-1.73526 0,0 0.173791,1.25904 0.524153,1.76161 0.477376,0.68476 2.005052,1.50027 2.005052,1.50027 0,0 -0.118494,-1.08415 -0.403552,-1.52663 z"
       id="path8049"
       inkscape:connector-curvature="0"
       sodipodi:nodetypes="scscs" />
    <path
       style="opacity:1;fill:#00ff00;stroke:#000000;stroke-width:0.5;stroke-miterlimit:4;stroke-dasharray:none;stroke-opacity:1"
       d="m 23.478133,269.46171 c 0.495353,-0.76891 2.125641,-1.73526 2.125641,-1.73526 0,0 -0.173791,1.25904 -0.524153,1.76161 -0.477376,0.68476 -2.005052,1.50027 -2.005052,1.50027 0,0 0.118494,-1.08415 0.403552,-1.52663 z"
       id="path8051"
       inkscape:connector-curvature="0"
       sodipodi:nodetypes="scscs" />
    <path
       sodipodi:nodetypes="scscs"
       inkscape:connector-curvature="0"
       id="path8053"
       d="m 18.783751,280.75374 c -0.495353,-0.76891 -2.125641,-1.73526 -2.125641,-1.73526 0,0 0.173791,1.25904 0.524153,1.76161 0.477376,0.68476 2.005052,1.50027 2.005052,1.50027 0,0 -0.118494,-1.08415 -0.403552,-1.52663 z"
       style="opacity:1;fill:#00ff00;stroke:#000000;stroke-width:0.5;stroke-miterlimit:4;stroke-dasharray:none;stroke-opacity:1" />
    <path
       sodipodi:nodetypes="scscs"
       inkscape:connector-curvature="0"
       id="path8055"
       d="m 21.021288,279.57257 c 0.495353,-0.76891 2.125641,-1.73526 2.125641,-1.73526 0,0 -0.173791,1.25904 -0.524153,1.76161 -0.477376,0.68476 -2.005052,1.50027 -2.005052,1.50027 0,0 0.118494,-1.08415 0.403552,-1.52663 z"
       style="opacity:1;fill:#00ff00;stroke:#000000;stroke-width:0.5;stroke-miterlimit:4;stroke-dasharray:none;stroke-opacity:1" />
    <path
       style="opacity:1;fill:#00ff00;stroke:#000000;stroke-width:0.5;stroke-miterlimit:4;stroke-dasharray:none;stroke-opacity:1"
       d="m 22.004611,260.20404 c 0.16762,-0.89916 1.311111,-2.41049 1.311111,-2.41049 0,0 0.315476,1.23121 0.181301,1.82897 -0.182817,0.81447 -1.288392,2.14735 -1.288392,2.14735 0,0 -0.300494,-1.04839 -0.204035,-1.56583 z"
       id="path8057"
       inkscape:connector-curvature="0"
       sodipodi:nodetypes="scscs" />
    <path
       style="opacity:1;fill:#552200;stroke:#000000;stroke-width:0.5;stroke-miterlimit:4;stroke-dasharray:none;stroke-opacity:1"
       d="m 9.1281257,292.91787 c 8.0387513,-0.39587 17.4383223,-3.96503 24.1904773,0 v 0 c -9.067998,1.85945 -18.886974,1.88316 -24.1904773,0 z"
       id="rect8014"
       inkscape:connector-curvature="0"
       sodipodi:nodetypes="ccccc" />
    <path
       sodipodi:nodetypes="scscs"
       inkscape:connector-curvature="0"
       id="path8059"
       d="m 12.661063,262.97079 c -0.13851,-0.90409 0.442155,-2.70812 0.442155,-2.70812 0,0 0.704123,1.05812 0.774734,1.66667 0.09621,0.82917 -0.507546,2.45223 -0.507546,2.45223 0,0 -0.629647,-0.89048 -0.709356,-1.41077 z"
       style="opacity:1;fill:#00ff00;stroke:#000000;stroke-width:0.5;stroke-miterlimit:4;stroke-dasharray:none;stroke-opacity:1" />
    <path
       sodipodi:nodetypes="scscs"
       inkscape:connector-curvature="0"
       id="path8061"
       d="m 15.352938,283.56658 c -0.208072,-0.89067 0.231228,-2.73423 0.231228,-2.73423 0,0 0.783899,1.00044 0.901406,1.60171 0.160101,0.81924 -0.316235,2.48416 -0.316235,2.48416 0,0 -0.696679,-0.83909 -0.816417,-1.35164 z"
       style="opacity:1;fill:#00ff00;stroke:#000000;stroke-width:0.5;stroke-miterlimit:4;stroke-dasharray:none;stroke-opacity:1"
       inkscape:transform-center-x="0.011749453"
       inkscape:transform-center-y="0.22926758" />
    <path
       sodipodi:nodetypes="scscs"
       inkscape:connector-curvature="0"
       id="path8063"
       d="m 13.443004,284.71545 c -0.854029,-0.32746 -2.740238,-0.1434 -2.740238,-0.1434 0,0 0.884326,0.91287 1.463983,1.1112 0.789791,0.2702 2.504079,0.0251 2.504079,0.0251 0,0 -0.736357,-0.80448 -1.227821,-0.99293 z"
       style="opacity:1;fill:#00ff00;stroke:#000000;stroke-width:0.5;stroke-miterlimit:4;stroke-dasharray:none;stroke-opacity:1" />
    <path
       style="opacity:1;fill:#00ff00;stroke:#000000;stroke-width:0.5;stroke-miterlimit:4;stroke-dasharray:none;stroke-opacity:1"
       d="m 12.469263,267.10119 c 0.495353,-0.76891 2.125641,-1.73526 2.125641,-1.73526 0,0 -0.173791,1.25904 -0.524153,1.76161 -0.477376,0.68476 -2.005052,1.50027 -2.005052,1.50027 0,0 0.118494,-1.08415 0.403552,-1.52663 z"
       id="path8065"
       inkscape:connector-curvature="0"
       sodipodi:nodetypes="scscs" />
    <path
       style="opacity:1;fill:#00ff00;stroke:#000000;stroke-width:0.5;stroke-miterlimit:4;stroke-dasharray:none;stroke-opacity:1"
       d="m 10.534107,267.80989 c -0.495353,-0.76891 -2.1256414,-1.73526 -2.1256414,-1.73526 0,0 0.173791,1.25904 0.524153,1.76161 0.477376,0.68476 2.0050524,1.50027 2.0050524,1.50027 0,0 -0.118494,-1.08415 -0.403552,-1.52663 z"
       id="path8067"
       inkscape:connector-curvature="0"
       sodipodi:nodetypes="scscs" />
    <path
       sodipodi:nodetypes="scscs"
       inkscape:connector-curvature="0"
       id="path8069"
       d="m 11.807805,277.77902 c 0.495353,-0.76891 2.125641,-1.73526 2.125641,-1.73526 0,0 -0.173791,1.25904 -0.524153,1.76161 -0.477376,0.68476 -2.005052,1.50027 -2.005052,1.50027 0,0 0.118494,-1.08415 0.403552,-1.52663 z"
       style="opacity:1;fill:#00ff00;stroke:#000000;stroke-width:0.5;stroke-miterlimit:4;stroke-dasharray:none;stroke-opacity:1" />
    <path
       sodipodi:nodetypes="scscs"
       inkscape:connector-curvature="0"
       id="path8071"
       d="m 10.401815,278.48772 c -0.495353,-0.76891 -2.125641,-1.73526 -2.125641,-1.73526 0,0 0.173791,1.25904 0.524153,1.76161 0.477376,0.68476 2.005052,1.50027 2.005052,1.50027 0,0 -0.118494,-1.08415 -0.403552,-1.52663 z"
       style="opacity:1;fill:#00ff00;stroke:#000000;stroke-width:0.5;stroke-miterlimit:4;stroke-dasharray:none;stroke-opacity:1" />
  </g>
</svg>
