<?xml version="1.0" encoding="UTF-8" standalone="no"?>
<!-- Created with Inkscape (http://www.inkscape.org/) -->

<svg
   xmlns:dc="http://purl.org/dc/elements/1.1/"
   xmlns:cc="http://creativecommons.org/ns#"
   xmlns:rdf="http://www.w3.org/1999/02/22-rdf-syntax-ns#"
   xmlns:svg="http://www.w3.org/2000/svg"
   xmlns="http://www.w3.org/2000/svg"
   xmlns:sodipodi="http://sodipodi.sourceforge.net/DTD/sodipodi-0.dtd"
   xmlns:inkscape="http://www.inkscape.org/namespaces/inkscape"
   width="120pt"
   height="120pt"
   viewBox="0 0 42.333335 42.333333"
   version="1.1"
   id="svg7469"
   inkscape:version="0.92.1 r15371"
   sodipodi:docname="ResourceMaterialLumberRawIcon.svg"
   inkscape:export-filename="C:\Users\Scott\Documents\ResourceRockRawIcon.png"
   inkscape:export-xdpi="76.800003"
   inkscape:export-ydpi="76.800003">
  <defs
     id="defs7463" />
  <sodipodi:namedview
     id="base"
     pagecolor="#ffffff"
     bordercolor="#666666"
     borderopacity="1.0"
     inkscape:pageopacity="0.0"
     inkscape:pageshadow="2"
     inkscape:zoom="1.979899"
     inkscape:cx="70.906199"
     inkscape:cy="50.054224"
     inkscape:document-units="pt"
     inkscape:current-layer="layer1"
     showgrid="false"
     units="pt"
     inkscape:window-width="1366"
     inkscape:window-height="745"
     inkscape:window-x="-8"
     inkscape:window-y="-8"
     inkscape:window-maximized="1" />
  <metadata
     id="metadata7466">
    <rdf:RDF>
      <cc:Work
         rdf:about="">
        <dc:format>image/svg+xml</dc:format>
        <dc:type
           rdf:resource="http://purl.org/dc/dcmitype/StillImage" />
        <dc:title></dc:title>
      </cc:Work>
    </rdf:RDF>
  </metadata>
  <g
     inkscape:label="Layer 1"
     inkscape:groupmode="layer"
     id="layer1"
     transform="translate(0,-254.66668)">
    <path
       sodipodi:nodetypes="ccccccccc"
       inkscape:connector-curvature="0"
       id="path4561"
       d="m 17.357666,266.1124 1.436574,-0.3675 1.186009,0.20045 1.353052,1.87088 -0.968852,3.12372 -1.570209,0.15034 -1.937705,-0.35079 -0.785104,-2.00453 z"
       style="opacity:1;fill:#4d4d4d;stroke:#000000;stroke-width:0.35277778;stroke-miterlimit:4;stroke-dasharray:none;stroke-dashoffset:0;stroke-opacity:1" />
    <path
       style="opacity:1;fill:#c87137;stroke:#000000;stroke-width:0.5;stroke-miterlimit:4;stroke-dasharray:none;stroke-opacity:1"
       d="m 54.47094,264.21058 11.932312,-3.1183 11.932313,3.1183 v 30.71057 H 54.47094 Z"
       id="rect8110"
       inkscape:connector-curvature="0"
       sodipodi:nodetypes="cccccc" />
    <rect
       style="opacity:1;fill:#ffffff;stroke:#000000;stroke-width:0.5;stroke-miterlimit:4;stroke-dasharray:none;stroke-opacity:1"
       id="rect8113"
       width="8.7879467"
       height="3.96875"
       x="102.71503"
       y="261.18677" />
    <rect
       y="281.21951"
       x="102.71503"
       height="3.96875"
       width="8.7879467"
       id="rect8115"
       style="opacity:1;fill:#ffffff;stroke:#000000;stroke-width:0.5;stroke-miterlimit:4;stroke-dasharray:none;stroke-opacity:1" />
    <rect
       style="opacity:1;fill:#ffffff;stroke:#000000;stroke-width:0.5;stroke-miterlimit:4;stroke-dasharray:none;stroke-opacity:1"
       id="rect8117"
       width="8.7879467"
       height="3.96875"
       x="113.29948"
       y="281.21951" />
    <rect
       y="274.54193"
       x="102.71503"
       height="3.96875"
       width="8.7879467"
       id="rect8119"
       style="opacity:1;fill:#ffffff;stroke:#000000;stroke-width:0.5;stroke-miterlimit:4;stroke-dasharray:none;stroke-opacity:1" />
    <rect
       style="opacity:1;fill:#ffffff;stroke:#000000;stroke-width:0.5;stroke-miterlimit:4;stroke-dasharray:none;stroke-opacity:1"
       id="rect8121"
       width="8.7879467"
       height="3.96875"
       x="113.29948"
       y="274.54193" />
    <rect
       y="267.86435"
       x="102.71503"
       height="3.96875"
       width="8.7879467"
       id="rect8123"
       style="opacity:1;fill:#ffffff;stroke:#000000;stroke-width:0.5;stroke-miterlimit:4;stroke-dasharray:none;stroke-opacity:1" />
    <rect
       style="opacity:1;fill:#ffffff;stroke:#000000;stroke-width:0.5;stroke-miterlimit:4;stroke-dasharray:none;stroke-opacity:1"
       id="rect8125"
       width="8.7879467"
       height="3.96875"
       x="113.29948"
       y="267.86435" />
    <rect
       y="261.18677"
       x="113.29948"
       height="3.96875"
       width="8.7879467"
       id="rect8127"
       style="opacity:1;fill:#ffffff;stroke:#000000;stroke-width:0.5;stroke-miterlimit:4;stroke-dasharray:none;stroke-opacity:1" />
    <g
       id="g8136"
       transform="translate(85.611608,-2.1922619)"
       style="fill:#000000">
      <ellipse
         ry="1.5119048"
         rx="1.0866816"
         cy="273.94345"
         cx="9.9691219"
         id="path8129"
         style="opacity:1;fill:#000000;stroke:#000000;stroke-width:0.5;stroke-miterlimit:4;stroke-dasharray:none;stroke-opacity:1" />
      <path
         sodipodi:nodetypes="ccccc"
         inkscape:connector-curvature="0"
         id="path8131"
         d="M 12.284226,275.9184 9.9691219,293.12577 7.6540177,275.9184 9.9691219,275.64437 Z"
         style="opacity:1;fill:#000000;stroke:#000000;stroke-width:0.5;stroke-miterlimit:4;stroke-dasharray:none;stroke-opacity:1" />
    </g>
    <g
       id="g8142"
       transform="translate(81.926341,-0.49136906)">
      <ellipse
         style="opacity:1;fill:#ffffff;stroke:#000000;stroke-width:0.5;stroke-miterlimit:4;stroke-dasharray:none;stroke-opacity:1"
         id="ellipse8138"
         cx="9.9691219"
         cy="273.94345"
         rx="1.0866816"
         ry="1.5119048" />
      <path
         style="opacity:1;fill:#ffffff;stroke:#000000;stroke-width:0.5;stroke-miterlimit:4;stroke-dasharray:none;stroke-opacity:1"
         d="M 12.284226,275.9184 9.9691219,293.12577 7.6540177,275.9184 9.9691219,275.64437 Z"
         id="path8140"
         inkscape:connector-curvature="0"
         sodipodi:nodetypes="ccccc" />
    </g>
    <g
       transform="matrix(1,0,0,0.93617473,89.788245,17.6526)"
       id="g8148">
      <ellipse
         ry="1.5119048"
         rx="1.0866816"
         cy="273.94345"
         cx="9.9691219"
         id="ellipse8144"
         style="opacity:1;fill:#ffffff;stroke:#000000;stroke-width:0.5;stroke-miterlimit:4;stroke-dasharray:none;stroke-opacity:1" />
      <path
         sodipodi:nodetypes="ccccc"
         inkscape:connector-curvature="0"
         id="path8146"
         d="M 12.284226,275.9184 9.9691219,293.12577 7.6540177,275.9184 9.9691219,275.64437 Z"
         style="opacity:1;fill:#ffffff;stroke:#000000;stroke-width:0.5;stroke-miterlimit:4;stroke-dasharray:none;stroke-opacity:1" />
    </g>
    <path
       style="opacity:1;fill:#c87137;stroke:#000000;stroke-width:0.5;stroke-miterlimit:4;stroke-dasharray:none;stroke-dashoffset:0;stroke-opacity:1"
       d="m 99.88021,282.12664 0.09449,1.36071 c -9.687948,9.67795 5.0584,9.56624 18.86102,12.37872 H 92.509674 c -10.396731,-5.88954 0.499197,-10.34054 7.370536,-13.73943 z"
       id="rect4508"
       inkscape:connector-curvature="0"
       sodipodi:nodetypes="ccccc" />
    <path
       sodipodi:nodetypes="ccccccccc"
       inkscape:connector-curvature="0"
       id="path4577"
       d="m 13.090164,269.24454 3.006781,-0.31738 3.157122,0.61806 0.651469,3.22394 -0.150339,1.85418 -3.658252,1.98782 -3.240642,-1.50339 -0.567948,-2.33861 z"
       style="opacity:1;fill:#333333;stroke:#000000;stroke-width:0.35277778;stroke-miterlimit:4;stroke-dasharray:none;stroke-dashoffset:0;stroke-opacity:1" />
    <path
       style="opacity:1;fill:#999999;stroke:#000000;stroke-width:0.35277778;stroke-miterlimit:4;stroke-dasharray:none;stroke-dashoffset:0;stroke-opacity:1"
       d="m 14.148498,268.71537 3.006781,-0.31738 3.157122,0.61806 0.651469,3.22394 -0.150339,1.85418 -3.658252,1.98782 -3.240642,-1.50339 -0.567948,-2.33861 z"
       id="rect4514"
       inkscape:connector-curvature="0"
       sodipodi:nodetypes="ccccccccc" />
    <path
       style="opacity:1;fill:#ffffff;stroke:#000000;stroke-width:0.35277778;stroke-miterlimit:4;stroke-dasharray:none;stroke-dashoffset:0;stroke-opacity:1"
       d="m 34.326534,281.88645 1.449856,-1.00866 1.351323,0.80977 0.07038,1.05128 -1.435781,0.85239 -1.43578,-0.85239 z"
       id="rect4518"
       inkscape:connector-curvature="0"
       sodipodi:nodetypes="ccccccc" />
    <path
       style="opacity:1;fill:#ffffff;stroke:#000000;stroke-width:0.35277778;stroke-miterlimit:4;stroke-dasharray:none;stroke-dashoffset:0;stroke-opacity:1"
       d="m 33.2498,275.27409 0.254793,1.32032 -0.975446,1.25339 -1.625947,0.16921 -0.883418,-0.87185 0.09845,-1.7765 0.622199,-0.7972 1.030771,0.53147 z"
       id="rect4522"
       inkscape:connector-curvature="0"
       sodipodi:nodetypes="ccccccccc" />
    <path
       style="opacity:1;fill:#333333;stroke:#000000;stroke-width:0.35277778;stroke-miterlimit:4;stroke-dasharray:none;stroke-dashoffset:0;stroke-opacity:1"
       d="m 29.872119,280.54672 2.345324,-0.28348 1.589371,0.85045 0.519718,1.62515 -0.992188,2.99532 -1.116901,0.14174 -2.203583,-0.14174 -0.803199,-2.66459 z"
       id="rect4524"
       inkscape:connector-curvature="0"
       sodipodi:nodetypes="ccccccccc" />
    <path
       style="opacity:1;fill:#999999;stroke:#000000;stroke-width:0.35277778;stroke-miterlimit:4;stroke-dasharray:none;stroke-dashoffset:0;stroke-opacity:1"
       d="m 20.635185,276.04344 2.873147,-0.73499 4.6104,0.80181 1.533519,2.98348 -0.197172,6.90549 -4.476765,1.20271 -4.343129,-1.00226 -1.002261,-3.40767 z"
       id="rect4526"
       inkscape:connector-curvature="0"
       sodipodi:nodetypes="ccccccccc" />
    <path
       sodipodi:nodetypes="ccccccccc"
       inkscape:connector-curvature="0"
       id="path4589"
       d="m 29.872119,280.54672 2.345324,-0.28348 1.589371,0.85045 0.519718,1.62515 -0.992188,1.40782 -1.116901,0.67091 -1.674416,-0.14174 0.255134,-1.60626 z"
       style="opacity:1;fill:#e6e6e6;stroke:#000000;stroke-width:0.35277778;stroke-miterlimit:4;stroke-dasharray:none;stroke-dashoffset:0;stroke-opacity:1" />
    <path
       sodipodi:nodetypes="ccccccc"
       inkscape:connector-curvature="0"
       id="path4535"
       d="m 29.445555,282.09651 0.756592,1.59595 -1.0209,1.19982 -1.048547,-0.1034 -0.604762,-1.55637 1.076824,-1.27612 z"
       style="opacity:1;fill:#ffffff;stroke:#000000;stroke-width:0.35277778;stroke-miterlimit:4;stroke-dasharray:none;stroke-dashoffset:0;stroke-opacity:1" />
    <path
       sodipodi:nodetypes="ccccccccc"
       inkscape:connector-curvature="0"
       id="path4543"
       d="m 11.938873,276.22561 1.202712,-0.60136 1.469983,0.60136 0.601356,1.5201 -0.601356,1.08578 -1.737252,0.3842 -0.935443,-0.3842 0.233861,-1.1359 z"
       style="opacity:1;fill:#999999;stroke:#000000;stroke-width:0.35277778;stroke-miterlimit:4;stroke-dasharray:none;stroke-dashoffset:0;stroke-opacity:1" />
    <path
       sodipodi:nodetypes="ccccccccc"
       inkscape:connector-curvature="0"
       id="path4571"
       d="m 9.2255846,274.43602 3.0067804,-0.31738 3.157122,0.61806 0.651469,3.22394 -0.150339,1.85418 -3.658252,1.98782 -3.2406414,-1.50339 -0.5679477,-2.33861 z"
       style="opacity:1;fill:#333333;stroke:#000000;stroke-width:0.35277778;stroke-miterlimit:4;stroke-dasharray:none;stroke-dashoffset:0;stroke-opacity:1" />
    <path
       style="opacity:1;fill:#e6e6e6;stroke:#000000;stroke-width:0.35277778;stroke-miterlimit:4;stroke-dasharray:none;stroke-dashoffset:0;stroke-opacity:1"
       d="m 9.7547513,274.43602 2.4776137,-0.31738 3.157122,0.61806 0.651469,3.22394 -0.150339,1.85418 -1.541585,-1.18718 -2.182308,0.0841 -2.155448,-1.80944 z"
       id="path4587"
       inkscape:connector-curvature="0"
       sodipodi:nodetypes="ccccccccc" />
    <path
       style="opacity:1;fill:#999999;stroke:#000000;stroke-width:0.35277778;stroke-miterlimit:4;stroke-dasharray:none;stroke-dashoffset:0;stroke-opacity:1"
       d="m 7.5781957,278.1741 1.436574,-0.3675 1.1860093,0.20045 1.353052,1.87088 -0.968852,3.12372 -1.5702093,0.15034 -1.9377044,-0.35079 -0.7851043,-2.00453 z"
       id="rect4516"
       inkscape:connector-curvature="0"
       sodipodi:nodetypes="ccccccccc" />
    <path
       sodipodi:nodetypes="ccccccccc"
       inkscape:connector-curvature="0"
       id="path4579"
       d="m 10.283918,280.78606 3.006781,-0.31738 3.157122,0.61806 0.651469,3.22394 -0.150339,1.85418 -3.658252,1.98782 -3.240642,-1.50339 -0.5679477,-2.33861 z"
       style="opacity:1;fill:#333333;stroke:#000000;stroke-width:0.35277778;stroke-miterlimit:4;stroke-dasharray:none;stroke-dashoffset:0;stroke-opacity:1" />
    <path
       sodipodi:nodetypes="ccccccccc"
       inkscape:connector-curvature="0"
       id="path4547"
       d="m 15.18425,284.95618 1.436574,-0.3675 1.186009,0.20045 1.353052,1.87088 -0.968852,3.12372 -1.570209,0.15034 -1.937705,-0.35079 -0.785104,-2.00453 z"
       style="opacity:1;fill:#333333;stroke:#000000;stroke-width:0.35277778;stroke-miterlimit:4;stroke-dasharray:none;stroke-dashoffset:0;stroke-opacity:1" />
    <path
       sodipodi:nodetypes="ccccccc"
       inkscape:connector-curvature="0"
       id="path4539"
       d="m 7.9091765,284.34794 0.3651719,-1.72804 1.5391546,-0.33587 0.771476,0.71762 -0.461975,1.60456 -1.6298775,0.36267 z"
       style="opacity:1;fill:#999999;stroke:#000000;stroke-width:0.35277778;stroke-miterlimit:4;stroke-dasharray:none;stroke-dashoffset:0;stroke-opacity:1" />
    <path
       sodipodi:nodetypes="ccccccccccc"
       inkscape:connector-curvature="0"
       id="path4581"
       d="m 21.434185,283.81992 -1.353052,-1.87088 -1.852653,-3.89972 1.269438,-0.77722 1.139167,-0.21739 1.512759,3.48383 1.954696,5.01076 5.350539,0.44993 -4.476765,1.20271 -4.343129,-1.00226 z"
       style="opacity:1;fill:#333333;stroke:#000000;stroke-width:0.35277778;stroke-miterlimit:4;stroke-dasharray:none;stroke-dashoffset:0;stroke-opacity:1" />
    <path
       sodipodi:nodetypes="ccccccccc"
       inkscape:connector-curvature="0"
       id="path4541"
       d="m 19.143063,273.17192 3.006781,-0.31738 3.157122,0.61806 0.651469,3.22394 -0.150339,1.85418 -3.658252,1.98782 -3.240642,-1.50339 -0.567948,-2.33861 z"
       style="opacity:1;fill:#333333;stroke:#000000;stroke-width:0.35277778;stroke-miterlimit:4;stroke-dasharray:none;stroke-dashoffset:0;stroke-opacity:1" />
    <path
       style="opacity:1;fill:#999999;stroke:#000000;stroke-width:0.35277778;stroke-miterlimit:4;stroke-dasharray:none;stroke-dashoffset:0;stroke-opacity:1"
       d="m 18.22848,278.04932 -1.014884,-0.88213 -0.0052,-1.58823 1.175497,-1.13602 1.233106,0.14141 1.018186,1.45909 0.0019,1.01127 -1.139167,0.21739 z"
       id="path4545"
       inkscape:connector-curvature="0"
       sodipodi:nodetypes="ccccccccc" />
    <path
       style="opacity:1;fill:#e6e6e6;stroke:#000000;stroke-width:0.35277778;stroke-miterlimit:4;stroke-dasharray:none;stroke-dashoffset:0;stroke-opacity:1"
       d="m 11.342252,279.72772 3.006781,-0.31738 3.157122,0.61806 0.651469,3.22394 -0.150339,1.85418 -3.658252,1.98782 -3.240642,-1.50339 -0.567948,-2.33861 z"
       id="path4549"
       inkscape:connector-curvature="0"
       sodipodi:nodetypes="ccccccccc" />
    <path
       style="opacity:1;fill:#333333;stroke:#000000;stroke-width:0.35277778;stroke-miterlimit:4;stroke-dasharray:none;stroke-dashoffset:0;stroke-opacity:1"
       d="m 24.329066,268.85576 1.449856,-1.00866 1.351323,0.80977 0.07038,1.05128 -1.435781,0.85239 -1.43578,-0.85239 z"
       id="path4593"
       inkscape:connector-curvature="0"
       sodipodi:nodetypes="ccccccc" />
    <path
       style="opacity:1;fill:#e6e6e6;stroke:#000000;stroke-width:0.35277778;stroke-miterlimit:4;stroke-dasharray:none;stroke-dashoffset:0;stroke-opacity:1"
       d="m 25.499861,264.11585 1.433085,1.87807 0.07244,1.80115 -1.137524,1.27171 -3.084964,0.66286 -0.68828,-0.89097 -0.994688,-1.97141 1.88988,-2.04292 z"
       id="path4573"
       inkscape:connector-curvature="0"
       sodipodi:nodetypes="ccccccccc" />
    <path
       sodipodi:nodetypes="ccccccccc"
       inkscape:connector-curvature="0"
       id="path4551"
       d="m 19.745437,268.21285 2.345324,-0.28348 1.589371,0.85045 0.519718,1.62515 -0.992188,2.99532 -1.116901,0.14174 -2.203583,-0.14174 -0.803199,-2.66459 z"
       style="opacity:1;fill:#999999;stroke:#000000;stroke-width:0.35277778;stroke-miterlimit:4;stroke-dasharray:none;stroke-dashoffset:0;stroke-opacity:1" />
    <path
       sodipodi:nodetypes="ccccccc"
       inkscape:connector-curvature="0"
       id="path4553"
       d="m 32.217443,280.26324 1.449856,-1.00866 1.351323,0.80977 0.07038,1.05128 -1.435781,0.85239 -1.43578,-0.85239 z"
       style="opacity:1;fill:#999999;stroke:#000000;stroke-width:0.35277778;stroke-miterlimit:4;stroke-dasharray:none;stroke-dashoffset:0;stroke-opacity:1" />
    <path
       sodipodi:nodetypes="ccccccc"
       inkscape:connector-curvature="0"
       id="path4555"
       d="m 19.566563,265.68074 1.449856,-1.00866 1.351323,0.80977 0.07038,1.05128 -1.435781,0.85239 -1.43578,-0.85239 z"
       style="opacity:1;fill:#e6e6e6;stroke:#000000;stroke-width:0.35277778;stroke-miterlimit:4;stroke-dasharray:none;stroke-dashoffset:0;stroke-opacity:1" />
    <path
       style="opacity:1;fill:#ffffff;stroke:#000000;stroke-width:0.35277778;stroke-miterlimit:4;stroke-dasharray:none;stroke-dashoffset:0;stroke-opacity:1"
       d="m 20.576709,266.22028 0.756592,1.59595 -1.0209,1.19982 -1.048547,-0.1034 -0.604762,-1.55637 1.076824,-1.27612 z"
       id="path4557"
       inkscape:connector-curvature="0"
       sodipodi:nodetypes="ccccccc" />
    <path
       sodipodi:nodetypes="ccccccc"
       inkscape:connector-curvature="0"
       id="path4559"
       d="m 23.94444,267.04239 0.756592,1.59595 -1.0209,1.19982 -1.048547,-0.1034 -0.604762,-1.55637 1.076824,-1.27612 z"
       style="opacity:1;fill:#ffffff;stroke:#000000;stroke-width:0.35277778;stroke-miterlimit:4;stroke-dasharray:none;stroke-dashoffset:0;stroke-opacity:1" />
    <path
       sodipodi:nodetypes="ccccccccc"
       inkscape:connector-curvature="0"
       id="path4597"
       d="m 17.45855,282.11609 1.436574,-0.3675 1.186009,0.20045 1.353052,1.87088 -0.968852,3.12372 -1.570209,0.15034 -1.937705,-0.35079 -0.785104,-2.00453 z"
       style="opacity:1;fill:#333333;stroke:#000000;stroke-width:0.35277778;stroke-miterlimit:4;stroke-dasharray:none;stroke-dashoffset:0;stroke-opacity:1" />
    <path
       style="opacity:1;fill:#ffffff;stroke:#000000;stroke-width:0.35277778;stroke-miterlimit:4;stroke-dasharray:none;stroke-dashoffset:0;stroke-opacity:1"
       d="m 17.45855,282.11609 1.436574,-0.3675 1.186009,0.20045 1.353052,1.87088 -0.968852,3.12372 -1.041042,-1.43716 -1.937705,0.17838 0.671037,-1.37418 z"
       id="path4563"
       inkscape:connector-curvature="0"
       sodipodi:nodetypes="ccccccccc" />
    <path
       style="opacity:1;fill:#ffffff;stroke:#000000;stroke-width:0.35277778;stroke-miterlimit:4;stroke-dasharray:none;stroke-dashoffset:0;stroke-opacity:1"
       d="m 17.459346,280.04381 1.449856,-1.00866 1.351323,0.80977 0.07038,1.05128 -1.435781,0.85239 -1.43578,-0.85239 z"
       id="path4537"
       inkscape:connector-curvature="0"
       sodipodi:nodetypes="ccccccc" />
    <path
       sodipodi:nodetypes="ccccccccc"
       inkscape:connector-curvature="0"
       id="path4565"
       d="m 28.301878,277.4313 1.717904,-0.28614 1.678543,0.91172 0.285186,1.57563 -1.10635,0.88415 -2.328751,-0.044 -1.067682,-0.58161 0.65512,-1.01748 z"
       style="opacity:1;fill:#333333;stroke:#000000;stroke-width:0.35277778;stroke-miterlimit:4;stroke-dasharray:none;stroke-dashoffset:0;stroke-opacity:1" />
    <path
       style="opacity:1;fill:#ffffff;stroke:#000000;stroke-width:0.35277778;stroke-miterlimit:4;stroke-dasharray:none;stroke-dashoffset:0;stroke-opacity:1"
       d="m 28.301878,277.4313 1.717904,-0.28614 1.678543,0.91172 0.285186,1.57563 -1.10635,-0.17418 -1.270418,0.48516 c -1.837775,-0.79557 -1.662611,-0.32762 -0.412562,-1.06992 z"
       id="path4595"
       inkscape:connector-curvature="0"
       sodipodi:nodetypes="cccccccc" />
    <path
       style="opacity:1;fill:#e6e6e6;stroke:#000000;stroke-width:0.35277778;stroke-miterlimit:4;stroke-dasharray:none;stroke-dashoffset:0;stroke-opacity:1"
       d="m 31.608458,278.32729 1.449856,-1.00866 1.351323,0.80977 0.07038,1.05128 -1.435781,0.85239 -1.43578,-0.85239 z"
       id="path4567"
       inkscape:connector-curvature="0"
       sodipodi:nodetypes="ccccccc" />
    <path
       style="opacity:1;fill:#e6e6e6;stroke:#000000;stroke-width:0.35277778;stroke-miterlimit:4;stroke-dasharray:none;stroke-dashoffset:0;stroke-opacity:1"
       d="m 19.67223,273.17192 2.477614,-0.31738 3.157122,0.61806 0.651469,3.22394 -0.150339,1.32501 -3.129085,0.92949 -2.418486,-0.16445 -0.762607,-1.51449 z"
       id="path4585"
       inkscape:connector-curvature="0"
       sodipodi:nodetypes="ccccccccc" />
    <path
       style="opacity:1;fill:#333333;stroke:#000000;stroke-width:0.35277778;stroke-miterlimit:4;stroke-dasharray:none;stroke-dashoffset:0;stroke-opacity:1"
       d="m 24.009471,269.87567 3.006781,-0.31738 3.157122,0.61806 0.651469,3.22394 -0.150339,1.85418 -3.658252,1.98782 -3.240642,-1.50339 -0.567948,-2.33861 z"
       id="path4569"
       inkscape:connector-curvature="0"
       sodipodi:nodetypes="ccccccccc" />
    <path
       style="opacity:1;fill:#ffffff;stroke:#000000;stroke-width:0.35277778;stroke-miterlimit:4;stroke-dasharray:none;stroke-dashoffset:0;stroke-opacity:1"
       d="m 20.01755,265.49522 -1.413927,1.05845 -1.378652,-0.76232 -0.106876,-1.0482 1.405285,-0.90177 1.464538,0.80197 z"
       id="path4575"
       inkscape:connector-curvature="0"
       sodipodi:nodetypes="ccccccc" />
    <path
       sodipodi:nodetypes="cccccccccc"
       inkscape:connector-curvature="0"
       id="path4583"
       d="m 24.19985,271.4633 -0.190379,-1.58763 3.006781,-0.31738 3.157122,0.61806 0.651469,3.22394 -0.150339,1.85418 -2.555772,0.32662 -2.755622,-0.37136 -1.626281,-1.28027 z"
       style="opacity:1;fill:#ffffff;stroke:#000000;stroke-width:0.35277778;stroke-miterlimit:4;stroke-dasharray:none;stroke-dashoffset:0;stroke-opacity:1" />
    <path
       sodipodi:nodetypes="ccccccc"
       inkscape:connector-curvature="0"
       id="path4591"
       d="m 15.47391,277.25498 1.734486,-1.67602 1.616609,1.34555 0.08419,1.74684 -1.717648,1.41637 -1.717647,-1.41637 z"
       style="opacity:1;fill:#ffffff;stroke:#000000;stroke-width:0.35277778;stroke-miterlimit:4;stroke-dasharray:none;stroke-dashoffset:0;stroke-opacity:1" />
  </g>
</svg>
