<?xml version="1.0" encoding="UTF-8" standalone="no"?>
<!-- Created with Inkscape (http://www.inkscape.org/) -->

<svg
   xmlns:dc="http://purl.org/dc/elements/1.1/"
   xmlns:cc="http://creativecommons.org/ns#"
   xmlns:rdf="http://www.w3.org/1999/02/22-rdf-syntax-ns#"
   xmlns:svg="http://www.w3.org/2000/svg"
   xmlns="http://www.w3.org/2000/svg"
   xmlns:sodipodi="http://sodipodi.sourceforge.net/DTD/sodipodi-0.dtd"
   xmlns:inkscape="http://www.inkscape.org/namespaces/inkscape"
   width="120pt"
   height="120pt"
   viewBox="0 0 42.333335 42.333333"
   version="1.1"
   id="svg7469"
   inkscape:version="0.92.1 r15371"
   sodipodi:docname="ResourceMaterialCopperrRawIcon.svg"
   inkscape:export-filename="C:\Users\Scott\Documents\ResourceLumberRawIcon.png"
   inkscape:export-xdpi="76.800003"
   inkscape:export-ydpi="76.800003">
  <defs
     id="defs7463" />
  <sodipodi:namedview
     id="base"
     pagecolor="#ffffff"
     bordercolor="#666666"
     borderopacity="1.0"
     inkscape:pageopacity="0.0"
     inkscape:pageshadow="2"
     inkscape:zoom="1.979899"
     inkscape:cx="75.759566"
     inkscape:cy="71.970661"
     inkscape:document-units="pt"
     inkscape:current-layer="layer1"
     showgrid="false"
     units="pt"
     inkscape:window-width="1366"
     inkscape:window-height="745"
     inkscape:window-x="-8"
     inkscape:window-y="-8"
     inkscape:window-maximized="1" />
  <metadata
     id="metadata7466">
    <rdf:RDF>
      <cc:Work
         rdf:about="">
        <dc:format>image/svg+xml</dc:format>
        <dc:type
           rdf:resource="http://purl.org/dc/dcmitype/StillImage" />
        <dc:title></dc:title>
      </cc:Work>
    </rdf:RDF>
  </metadata>
  <g
     inkscape:label="Layer 1"
     inkscape:groupmode="layer"
     id="layer1"
     transform="translate(0,-254.66668)">
    <path
       sodipodi:nodetypes="ccccccccc"
       inkscape:connector-curvature="0"
       id="path4561"
       d="m -24.336381,265.44423 1.436574,-0.3675 1.186009,0.20045 1.353052,1.87088 -0.968852,3.12372 -1.570209,0.15034 -1.937705,-0.35079 -0.785104,-2.00453 z"
       style="opacity:1;fill:#4d4d4d;stroke:#000000;stroke-width:0.35277778;stroke-miterlimit:4;stroke-dasharray:none;stroke-dashoffset:0;stroke-opacity:1" />
    <path
       style="opacity:1;fill:#c87137;stroke:#000000;stroke-width:0.5;stroke-miterlimit:4;stroke-dasharray:none;stroke-opacity:1"
       d="m 54.47094,264.21058 11.932312,-3.1183 11.932313,3.1183 v 30.71057 H 54.47094 Z"
       id="rect8110"
       inkscape:connector-curvature="0"
       sodipodi:nodetypes="cccccc" />
    <rect
       style="opacity:1;fill:#ffffff;stroke:#000000;stroke-width:0.5;stroke-miterlimit:4;stroke-dasharray:none;stroke-opacity:1"
       id="rect8113"
       width="8.7879467"
       height="3.96875"
       x="102.71503"
       y="261.18677" />
    <rect
       y="281.21951"
       x="102.71503"
       height="3.96875"
       width="8.7879467"
       id="rect8115"
       style="opacity:1;fill:#ffffff;stroke:#000000;stroke-width:0.5;stroke-miterlimit:4;stroke-dasharray:none;stroke-opacity:1" />
    <rect
       style="opacity:1;fill:#ffffff;stroke:#000000;stroke-width:0.5;stroke-miterlimit:4;stroke-dasharray:none;stroke-opacity:1"
       id="rect8117"
       width="8.7879467"
       height="3.96875"
       x="113.29948"
       y="281.21951" />
    <rect
       y="274.54193"
       x="102.71503"
       height="3.96875"
       width="8.7879467"
       id="rect8119"
       style="opacity:1;fill:#ffffff;stroke:#000000;stroke-width:0.5;stroke-miterlimit:4;stroke-dasharray:none;stroke-opacity:1" />
    <rect
       style="opacity:1;fill:#ffffff;stroke:#000000;stroke-width:0.5;stroke-miterlimit:4;stroke-dasharray:none;stroke-opacity:1"
       id="rect8121"
       width="8.7879467"
       height="3.96875"
       x="113.29948"
       y="274.54193" />
    <rect
       y="267.86435"
       x="102.71503"
       height="3.96875"
       width="8.7879467"
       id="rect8123"
       style="opacity:1;fill:#ffffff;stroke:#000000;stroke-width:0.5;stroke-miterlimit:4;stroke-dasharray:none;stroke-opacity:1" />
    <rect
       style="opacity:1;fill:#ffffff;stroke:#000000;stroke-width:0.5;stroke-miterlimit:4;stroke-dasharray:none;stroke-opacity:1"
       id="rect8125"
       width="8.7879467"
       height="3.96875"
       x="113.29948"
       y="267.86435" />
    <rect
       y="261.18677"
       x="113.29948"
       height="3.96875"
       width="8.7879467"
       id="rect8127"
       style="opacity:1;fill:#ffffff;stroke:#000000;stroke-width:0.5;stroke-miterlimit:4;stroke-dasharray:none;stroke-opacity:1" />
    <g
       id="g8136"
       transform="translate(85.611608,-2.1922619)"
       style="fill:#000000">
      <ellipse
         ry="1.5119048"
         rx="1.0866816"
         cy="273.94345"
         cx="9.9691219"
         id="path8129"
         style="opacity:1;fill:#000000;stroke:#000000;stroke-width:0.5;stroke-miterlimit:4;stroke-dasharray:none;stroke-opacity:1" />
      <path
         sodipodi:nodetypes="ccccc"
         inkscape:connector-curvature="0"
         id="path8131"
         d="M 12.284226,275.9184 9.9691219,293.12577 7.6540177,275.9184 9.9691219,275.64437 Z"
         style="opacity:1;fill:#000000;stroke:#000000;stroke-width:0.5;stroke-miterlimit:4;stroke-dasharray:none;stroke-opacity:1" />
    </g>
    <g
       id="g8142"
       transform="translate(81.926341,-0.49136906)">
      <ellipse
         style="opacity:1;fill:#ffffff;stroke:#000000;stroke-width:0.5;stroke-miterlimit:4;stroke-dasharray:none;stroke-opacity:1"
         id="ellipse8138"
         cx="9.9691219"
         cy="273.94345"
         rx="1.0866816"
         ry="1.5119048" />
      <path
         style="opacity:1;fill:#ffffff;stroke:#000000;stroke-width:0.5;stroke-miterlimit:4;stroke-dasharray:none;stroke-opacity:1"
         d="M 12.284226,275.9184 9.9691219,293.12577 7.6540177,275.9184 9.9691219,275.64437 Z"
         id="path8140"
         inkscape:connector-curvature="0"
         sodipodi:nodetypes="ccccc" />
    </g>
    <g
       transform="matrix(1,0,0,0.93617473,89.788245,17.6526)"
       id="g8148">
      <ellipse
         ry="1.5119048"
         rx="1.0866816"
         cy="273.94345"
         cx="9.9691219"
         id="ellipse8144"
         style="opacity:1;fill:#ffffff;stroke:#000000;stroke-width:0.5;stroke-miterlimit:4;stroke-dasharray:none;stroke-opacity:1" />
      <path
         sodipodi:nodetypes="ccccc"
         inkscape:connector-curvature="0"
         id="path8146"
         d="M 12.284226,275.9184 9.9691219,293.12577 7.6540177,275.9184 9.9691219,275.64437 Z"
         style="opacity:1;fill:#ffffff;stroke:#000000;stroke-width:0.5;stroke-miterlimit:4;stroke-dasharray:none;stroke-opacity:1" />
    </g>
    <path
       style="opacity:1;fill:#c87137;stroke:#000000;stroke-width:0.5;stroke-miterlimit:4;stroke-dasharray:none;stroke-dashoffset:0;stroke-opacity:1"
       d="m 99.88021,282.12664 0.09449,1.36071 c -9.687948,9.67795 5.0584,9.56624 18.86102,12.37872 H 92.509674 c -10.396731,-5.88954 0.499197,-10.34054 7.370536,-13.73943 z"
       id="rect4508"
       inkscape:connector-curvature="0"
       sodipodi:nodetypes="ccccc" />
    <path
       sodipodi:nodetypes="ccccccccc"
       inkscape:connector-curvature="0"
       id="path4577"
       d="m -28.603883,268.57637 3.006781,-0.31738 3.157122,0.61806 0.651469,3.22394 -0.150339,1.85418 -3.658252,1.98782 -3.240642,-1.50339 -0.567948,-2.33861 z"
       style="opacity:1;fill:#333333;stroke:#000000;stroke-width:0.35277778;stroke-miterlimit:4;stroke-dasharray:none;stroke-dashoffset:0;stroke-opacity:1" />
    <path
       style="opacity:1;fill:#999999;stroke:#000000;stroke-width:0.35277778;stroke-miterlimit:4;stroke-dasharray:none;stroke-dashoffset:0;stroke-opacity:1"
       d="m -27.545549,268.0472 3.006781,-0.31738 3.157122,0.61806 0.651469,3.22394 -0.150339,1.85418 -3.658252,1.98782 -3.240642,-1.50339 -0.567948,-2.33861 z"
       id="rect4514"
       inkscape:connector-curvature="0"
       sodipodi:nodetypes="ccccccccc" />
    <path
       style="opacity:1;fill:#ffffff;stroke:#000000;stroke-width:0.35277778;stroke-miterlimit:4;stroke-dasharray:none;stroke-dashoffset:0;stroke-opacity:1"
       d="m -7.3675129,281.21828 1.449856,-1.00866 1.351323,0.80977 0.07038,1.05128 -1.435781,0.85239 -1.43578,-0.85239 z"
       id="rect4518"
       inkscape:connector-curvature="0"
       sodipodi:nodetypes="ccccccc" />
    <path
       style="opacity:1;fill:#ffffff;stroke:#000000;stroke-width:0.35277778;stroke-miterlimit:4;stroke-dasharray:none;stroke-dashoffset:0;stroke-opacity:1"
       d="m -8.4442469,274.60592 0.254793,1.32032 -0.975446,1.25339 -1.6259471,0.16921 -0.883418,-0.87185 0.09845,-1.7765 0.622199,-0.7972 1.0307711,0.53147 z"
       id="rect4522"
       inkscape:connector-curvature="0"
       sodipodi:nodetypes="ccccccccc" />
    <path
       style="opacity:1;fill:#333333;stroke:#000000;stroke-width:0.35277778;stroke-miterlimit:4;stroke-dasharray:none;stroke-dashoffset:0;stroke-opacity:1"
       d="m -11.821928,279.87855 2.3453241,-0.28348 1.589371,0.85045 0.519718,1.62515 -0.992188,2.99532 -1.116901,0.14174 -2.2035831,-0.14174 -0.803199,-2.66459 z"
       id="rect4524"
       inkscape:connector-curvature="0"
       sodipodi:nodetypes="ccccccccc" />
    <path
       style="opacity:1;fill:#999999;stroke:#000000;stroke-width:0.35277778;stroke-miterlimit:4;stroke-dasharray:none;stroke-dashoffset:0;stroke-opacity:1"
       d="m -21.058862,275.37527 2.873147,-0.73499 4.6104,0.80181 1.533519,2.98348 -0.197172,6.90549 -4.476765,1.20271 -4.343129,-1.00226 -1.002261,-3.40767 z"
       id="rect4526"
       inkscape:connector-curvature="0"
       sodipodi:nodetypes="ccccccccc" />
    <path
       sodipodi:nodetypes="ccccccccc"
       inkscape:connector-curvature="0"
       id="path4589"
       d="m -11.821928,279.87855 2.3453241,-0.28348 1.589371,0.85045 0.519718,1.62515 -0.992188,1.40782 -1.116901,0.67091 -1.6744161,-0.14174 0.255134,-1.60626 z"
       style="opacity:1;fill:#e6e6e6;stroke:#000000;stroke-width:0.35277778;stroke-miterlimit:4;stroke-dasharray:none;stroke-dashoffset:0;stroke-opacity:1" />
    <path
       sodipodi:nodetypes="ccccccc"
       inkscape:connector-curvature="0"
       id="path4535"
       d="m -12.248492,281.42834 0.756592,1.59595 -1.0209,1.19982 -1.048547,-0.1034 -0.604762,-1.55637 1.076824,-1.27612 z"
       style="opacity:1;fill:#ffffff;stroke:#000000;stroke-width:0.35277778;stroke-miterlimit:4;stroke-dasharray:none;stroke-dashoffset:0;stroke-opacity:1" />
    <path
       sodipodi:nodetypes="ccccccccc"
       inkscape:connector-curvature="0"
       id="path4543"
       d="m -29.755174,275.55744 1.202712,-0.60136 1.469983,0.60136 0.601356,1.5201 -0.601356,1.08578 -1.737252,0.3842 -0.935443,-0.3842 0.233861,-1.1359 z"
       style="opacity:1;fill:#999999;stroke:#000000;stroke-width:0.35277778;stroke-miterlimit:4;stroke-dasharray:none;stroke-dashoffset:0;stroke-opacity:1" />
    <path
       sodipodi:nodetypes="ccccccccc"
       inkscape:connector-curvature="0"
       id="path4571"
       d="m -32.468462,273.76785 3.00678,-0.31738 3.157122,0.61806 0.651469,3.22394 -0.150339,1.85418 -3.658252,1.98782 -3.240641,-1.50339 -0.567948,-2.33861 z"
       style="opacity:1;fill:#333333;stroke:#000000;stroke-width:0.35277778;stroke-miterlimit:4;stroke-dasharray:none;stroke-dashoffset:0;stroke-opacity:1" />
    <path
       style="opacity:1;fill:#e6e6e6;stroke:#000000;stroke-width:0.35277778;stroke-miterlimit:4;stroke-dasharray:none;stroke-dashoffset:0;stroke-opacity:1"
       d="m -31.939296,273.76785 2.477614,-0.31738 3.157122,0.61806 0.651469,3.22394 -0.150339,1.85418 -1.541585,-1.18718 -2.182308,0.0841 -2.155448,-1.80944 z"
       id="path4587"
       inkscape:connector-curvature="0"
       sodipodi:nodetypes="ccccccccc" />
    <path
       style="opacity:1;fill:#999999;stroke:#000000;stroke-width:0.35277778;stroke-miterlimit:4;stroke-dasharray:none;stroke-dashoffset:0;stroke-opacity:1"
       d="m -34.115851,277.50593 1.436574,-0.3675 1.186009,0.20045 1.353052,1.87088 -0.968852,3.12372 -1.570209,0.15034 -1.937705,-0.35079 -0.785104,-2.00453 z"
       id="rect4516"
       inkscape:connector-curvature="0"
       sodipodi:nodetypes="ccccccccc" />
    <path
       sodipodi:nodetypes="ccccccccc"
       inkscape:connector-curvature="0"
       id="path4579"
       d="m -31.410129,280.11789 3.006781,-0.31738 3.157122,0.61806 0.651469,3.22394 -0.150339,1.85418 -3.658252,1.98782 -3.240642,-1.50339 -0.567948,-2.33861 z"
       style="opacity:1;fill:#333333;stroke:#000000;stroke-width:0.35277778;stroke-miterlimit:4;stroke-dasharray:none;stroke-dashoffset:0;stroke-opacity:1" />
    <path
       sodipodi:nodetypes="ccccccccc"
       inkscape:connector-curvature="0"
       id="path4547"
       d="m -26.509797,284.28801 1.436574,-0.3675 1.186009,0.20045 1.353052,1.87088 -0.968852,3.12372 -1.570209,0.15034 -1.937705,-0.35079 -0.785104,-2.00453 z"
       style="opacity:1;fill:#333333;stroke:#000000;stroke-width:0.35277778;stroke-miterlimit:4;stroke-dasharray:none;stroke-dashoffset:0;stroke-opacity:1" />
    <path
       sodipodi:nodetypes="ccccccc"
       inkscape:connector-curvature="0"
       id="path4539"
       d="m -33.78487,283.67977 0.365171,-1.72804 1.539155,-0.33587 0.771476,0.71762 -0.461975,1.60456 -1.629877,0.36267 z"
       style="opacity:1;fill:#999999;stroke:#000000;stroke-width:0.35277778;stroke-miterlimit:4;stroke-dasharray:none;stroke-dashoffset:0;stroke-opacity:1" />
    <path
       sodipodi:nodetypes="ccccccccccc"
       inkscape:connector-curvature="0"
       id="path4581"
       d="m -20.259862,283.15175 -1.353052,-1.87088 -1.852653,-3.89972 1.269438,-0.77722 1.139167,-0.21739 1.512759,3.48383 1.954696,5.01076 5.350539,0.44993 -4.476765,1.20271 -4.343129,-1.00226 z"
       style="opacity:1;fill:#333333;stroke:#000000;stroke-width:0.35277778;stroke-miterlimit:4;stroke-dasharray:none;stroke-dashoffset:0;stroke-opacity:1" />
    <path
       sodipodi:nodetypes="ccccccccc"
       inkscape:connector-curvature="0"
       id="path4541"
       d="m -22.550984,272.50375 3.006781,-0.31738 3.157122,0.61806 0.651469,3.22394 -0.150339,1.85418 -3.658252,1.98782 -3.240642,-1.50339 -0.567948,-2.33861 z"
       style="opacity:1;fill:#333333;stroke:#000000;stroke-width:0.35277778;stroke-miterlimit:4;stroke-dasharray:none;stroke-dashoffset:0;stroke-opacity:1" />
    <path
       style="opacity:1;fill:#999999;stroke:#000000;stroke-width:0.35277778;stroke-miterlimit:4;stroke-dasharray:none;stroke-dashoffset:0;stroke-opacity:1"
       d="m -23.465567,277.38115 -1.014884,-0.88213 -0.0052,-1.58823 1.175497,-1.13602 1.233106,0.14141 1.018186,1.45909 0.0019,1.01127 -1.139167,0.21739 z"
       id="path4545"
       inkscape:connector-curvature="0"
       sodipodi:nodetypes="ccccccccc" />
    <path
       style="opacity:1;fill:#e6e6e6;stroke:#000000;stroke-width:0.35277778;stroke-miterlimit:4;stroke-dasharray:none;stroke-dashoffset:0;stroke-opacity:1"
       d="m -30.351795,279.05955 3.006781,-0.31738 3.157122,0.61806 0.651469,3.22394 -0.150339,1.85418 -3.658252,1.98782 -3.240642,-1.50339 -0.567948,-2.33861 z"
       id="path4549"
       inkscape:connector-curvature="0"
       sodipodi:nodetypes="ccccccccc" />
    <path
       style="opacity:1;fill:#333333;stroke:#000000;stroke-width:0.35277778;stroke-miterlimit:4;stroke-dasharray:none;stroke-dashoffset:0;stroke-opacity:1"
       d="m -17.364981,268.18759 1.449856,-1.00866 1.351323,0.80977 0.07038,1.05128 -1.435781,0.85239 -1.43578,-0.85239 z"
       id="path4593"
       inkscape:connector-curvature="0"
       sodipodi:nodetypes="ccccccc" />
    <path
       style="opacity:1;fill:#e6e6e6;stroke:#000000;stroke-width:0.35277778;stroke-miterlimit:4;stroke-dasharray:none;stroke-dashoffset:0;stroke-opacity:1"
       d="m -16.194186,263.44768 1.433085,1.87807 0.07244,1.80115 -1.137524,1.27171 -3.084964,0.66286 -0.68828,-0.89097 -0.994688,-1.97141 1.88988,-2.04292 z"
       id="path4573"
       inkscape:connector-curvature="0"
       sodipodi:nodetypes="ccccccccc" />
    <path
       sodipodi:nodetypes="ccccccccc"
       inkscape:connector-curvature="0"
       id="path4551"
       d="m -21.94861,267.54468 2.345324,-0.28348 1.589371,0.85045 0.519718,1.62515 -0.992188,2.99532 -1.116901,0.14174 -2.203583,-0.14174 -0.803199,-2.66459 z"
       style="opacity:1;fill:#999999;stroke:#000000;stroke-width:0.35277778;stroke-miterlimit:4;stroke-dasharray:none;stroke-dashoffset:0;stroke-opacity:1" />
    <path
       sodipodi:nodetypes="ccccccc"
       inkscape:connector-curvature="0"
       id="path4553"
       d="m -9.4766039,279.59507 1.449856,-1.00866 1.351323,0.80977 0.07038,1.05128 -1.435781,0.85239 -1.43578,-0.85239 z"
       style="opacity:1;fill:#999999;stroke:#000000;stroke-width:0.35277778;stroke-miterlimit:4;stroke-dasharray:none;stroke-dashoffset:0;stroke-opacity:1" />
    <path
       sodipodi:nodetypes="ccccccc"
       inkscape:connector-curvature="0"
       id="path4555"
       d="m -22.127484,265.01257 1.449856,-1.00866 1.351323,0.80977 0.07038,1.05128 -1.435781,0.85239 -1.43578,-0.85239 z"
       style="opacity:1;fill:#e6e6e6;stroke:#000000;stroke-width:0.35277778;stroke-miterlimit:4;stroke-dasharray:none;stroke-dashoffset:0;stroke-opacity:1" />
    <path
       style="opacity:1;fill:#ffffff;stroke:#000000;stroke-width:0.35277778;stroke-miterlimit:4;stroke-dasharray:none;stroke-dashoffset:0;stroke-opacity:1"
       d="m -21.117338,265.55211 0.756592,1.59595 -1.0209,1.19982 -1.048547,-0.1034 -0.604762,-1.55637 1.076824,-1.27612 z"
       id="path4557"
       inkscape:connector-curvature="0"
       sodipodi:nodetypes="ccccccc" />
    <path
       sodipodi:nodetypes="ccccccc"
       inkscape:connector-curvature="0"
       id="path4559"
       d="m -17.749607,266.37422 0.756592,1.59595 -1.0209,1.19982 -1.048547,-0.1034 -0.604762,-1.55637 1.076824,-1.27612 z"
       style="opacity:1;fill:#ffffff;stroke:#000000;stroke-width:0.35277778;stroke-miterlimit:4;stroke-dasharray:none;stroke-dashoffset:0;stroke-opacity:1" />
    <path
       sodipodi:nodetypes="ccccccccc"
       inkscape:connector-curvature="0"
       id="path4597"
       d="m -24.235497,281.44792 1.436574,-0.3675 1.186009,0.20045 1.353052,1.87088 -0.968852,3.12372 -1.570209,0.15034 -1.937705,-0.35079 -0.785104,-2.00453 z"
       style="opacity:1;fill:#333333;stroke:#000000;stroke-width:0.35277778;stroke-miterlimit:4;stroke-dasharray:none;stroke-dashoffset:0;stroke-opacity:1" />
    <path
       style="opacity:1;fill:#ffffff;stroke:#000000;stroke-width:0.35277778;stroke-miterlimit:4;stroke-dasharray:none;stroke-dashoffset:0;stroke-opacity:1"
       d="m -24.235497,281.44792 1.436574,-0.3675 1.186009,0.20045 1.353052,1.87088 -0.968852,3.12372 -1.041042,-1.43716 -1.937705,0.17838 0.671037,-1.37418 z"
       id="path4563"
       inkscape:connector-curvature="0"
       sodipodi:nodetypes="ccccccccc" />
    <path
       style="opacity:1;fill:#ffffff;stroke:#000000;stroke-width:0.35277778;stroke-miterlimit:4;stroke-dasharray:none;stroke-dashoffset:0;stroke-opacity:1"
       d="m -24.234701,279.37564 1.449856,-1.00866 1.351323,0.80977 0.07038,1.05128 -1.435781,0.85239 -1.43578,-0.85239 z"
       id="path4537"
       inkscape:connector-curvature="0"
       sodipodi:nodetypes="ccccccc" />
    <path
       sodipodi:nodetypes="ccccccccc"
       inkscape:connector-curvature="0"
       id="path4565"
       d="m -13.392169,276.76313 1.717904,-0.28614 1.6785431,0.91172 0.285186,1.57563 -1.1063501,0.88415 -2.328751,-0.044 -1.067682,-0.58161 0.65512,-1.01748 z"
       style="opacity:1;fill:#333333;stroke:#000000;stroke-width:0.35277778;stroke-miterlimit:4;stroke-dasharray:none;stroke-dashoffset:0;stroke-opacity:1" />
    <path
       style="opacity:1;fill:#ffffff;stroke:#000000;stroke-width:0.35277778;stroke-miterlimit:4;stroke-dasharray:none;stroke-dashoffset:0;stroke-opacity:1"
       d="m -13.392169,276.76313 1.717904,-0.28614 1.6785431,0.91172 0.285186,1.57563 -1.1063501,-0.17418 -1.270418,0.48516 c -1.837775,-0.79557 -1.662611,-0.32762 -0.412562,-1.06992 z"
       id="path4595"
       inkscape:connector-curvature="0"
       sodipodi:nodetypes="cccccccc" />
    <path
       style="opacity:1;fill:#e6e6e6;stroke:#000000;stroke-width:0.35277778;stroke-miterlimit:4;stroke-dasharray:none;stroke-dashoffset:0;stroke-opacity:1"
       d="m -10.085589,277.65912 1.4498561,-1.00866 1.351323,0.80977 0.07038,1.05128 -1.435781,0.85239 -1.4357801,-0.85239 z"
       id="path4567"
       inkscape:connector-curvature="0"
       sodipodi:nodetypes="ccccccc" />
    <path
       style="opacity:1;fill:#e6e6e6;stroke:#000000;stroke-width:0.35277778;stroke-miterlimit:4;stroke-dasharray:none;stroke-dashoffset:0;stroke-opacity:1"
       d="m -22.021817,272.50375 2.477614,-0.31738 3.157122,0.61806 0.651469,3.22394 -0.150339,1.32501 -3.129085,0.92949 -2.418486,-0.16445 -0.762607,-1.51449 z"
       id="path4585"
       inkscape:connector-curvature="0"
       sodipodi:nodetypes="ccccccccc" />
    <path
       style="opacity:1;fill:#333333;stroke:#000000;stroke-width:0.35277778;stroke-miterlimit:4;stroke-dasharray:none;stroke-dashoffset:0;stroke-opacity:1"
       d="m -17.684576,269.2075 3.006781,-0.31738 3.157122,0.61806 0.651469,3.22394 -0.150339,1.85418 -3.658252,1.98782 -3.240642,-1.50339 -0.567948,-2.33861 z"
       id="path4569"
       inkscape:connector-curvature="0"
       sodipodi:nodetypes="ccccccccc" />
    <path
       style="opacity:1;fill:#ffffff;stroke:#000000;stroke-width:0.35277778;stroke-miterlimit:4;stroke-dasharray:none;stroke-dashoffset:0;stroke-opacity:1"
       d="m -21.676497,264.82705 -1.413927,1.05845 -1.378652,-0.76232 -0.106876,-1.0482 1.405285,-0.90177 1.464538,0.80197 z"
       id="path4575"
       inkscape:connector-curvature="0"
       sodipodi:nodetypes="ccccccc" />
    <path
       sodipodi:nodetypes="cccccccccc"
       inkscape:connector-curvature="0"
       id="path4583"
       d="m -17.494197,270.79513 -0.190379,-1.58763 3.006781,-0.31738 3.157122,0.61806 0.651469,3.22394 -0.150339,1.85418 -2.555772,0.32662 -2.755622,-0.37136 -1.626281,-1.28027 z"
       style="opacity:1;fill:#ffffff;stroke:#000000;stroke-width:0.35277778;stroke-miterlimit:4;stroke-dasharray:none;stroke-dashoffset:0;stroke-opacity:1" />
    <path
       sodipodi:nodetypes="ccccccc"
       inkscape:connector-curvature="0"
       id="path4591"
       d="m -26.220137,276.58681 1.734486,-1.67602 1.616609,1.34555 0.08419,1.74684 -1.717648,1.41637 -1.717647,-1.41637 z"
       style="opacity:1;fill:#ffffff;stroke:#000000;stroke-width:0.35277778;stroke-miterlimit:4;stroke-dasharray:none;stroke-dashoffset:0;stroke-opacity:1" />
    <ellipse
       style="opacity:1;fill:#ffdd55;stroke:#000000;stroke-width:0.35277781;stroke-miterlimit:4;stroke-dasharray:none;stroke-dashoffset:0;stroke-opacity:1"
       id="path4601"
       cx="-27.061041"
       cy="255.37279"
       rx="1.6704345"
       ry="1.9377041" />
    <ellipse
       style="opacity:1;fill:#ffdd55;stroke:#000000;stroke-width:0.35277781;stroke-miterlimit:4;stroke-dasharray:none;stroke-dashoffset:0;stroke-opacity:1"
       id="path4603"
       cx="-29.6001"
       cy="258.51321"
       rx="1.1358956"
       ry="1.8708867" />
    <ellipse
       ry="1.8708867"
       rx="1.1358956"
       cy="254.10323"
       cx="-24.388344"
       id="ellipse4607"
       style="opacity:1;fill:#ffdd55;stroke:#000000;stroke-width:0.35277781;stroke-miterlimit:4;stroke-dasharray:none;stroke-dashoffset:0;stroke-opacity:1" />
    <ellipse
       style="opacity:1;fill:#ffdd55;stroke:#000000;stroke-width:0.35277781;stroke-miterlimit:4;stroke-dasharray:none;stroke-dashoffset:0;stroke-opacity:1"
       id="ellipse4609"
       cx="-27.461945"
       cy="251.96507"
       rx="1.1358956"
       ry="1.8708867" />
    <path
       style="opacity:1;fill:#c87137;stroke:#000000;stroke-width:0.35277781;stroke-miterlimit:4;stroke-dasharray:none;stroke-dashoffset:0;stroke-opacity:1"
       d="m 27.796031,244.21428 16.303442,-9.2208 2.271791,4.14268 -15.768903,10.15624 z"
       id="rect4611"
       inkscape:connector-curvature="0"
       sodipodi:nodetypes="ccccc" />
    <path
       sodipodi:nodetypes="ccccc"
       inkscape:connector-curvature="0"
       id="path4614"
       d="m 13.363476,240.60615 16.303442,-9.2208 2.271791,4.14268 -15.768903,10.15624 z"
       style="opacity:1;fill:#c87137;stroke:#000000;stroke-width:0.35277781;stroke-miterlimit:4;stroke-dasharray:none;stroke-dashoffset:0;stroke-opacity:1" />
    <path
       style="opacity:1;fill:#c87137;stroke:#000000;stroke-width:0.35277781;stroke-miterlimit:4;stroke-dasharray:none;stroke-dashoffset:0;stroke-opacity:1"
       d="m 0.13363426,244.61518 16.30344174,-9.2208 2.271791,4.14268 -15.7689028,10.15624 z"
       id="path4616"
       inkscape:connector-curvature="0"
       sodipodi:nodetypes="ccccc" />
    <path
       sodipodi:nodetypes="csccscc"
       inkscape:connector-curvature="0"
       id="path4632"
       d="m -39.387781,316.07745 c -0.302474,-0.52654 7.006285,-1.3011 13.921081,-5.99238 3.619033,-2.4553 11.387393,-6.51615 11.387393,-6.51615 1.404901,0.57901 2.31656,0.004 2.681611,3.35584 0,0 -7.746982,4.13528 -11.009654,7.01453 -3.604409,3.18083 -13.41508,8.91797 -13.41508,7.94998 z"
       style="opacity:1;fill:#c87137;stroke:#000000;stroke-width:0.43291855;stroke-miterlimit:4;stroke-dasharray:none;stroke-dashoffset:0;stroke-opacity:1" />
    <path
       style="opacity:1;fill:#280b0b;stroke:#000000;stroke-width:0.48015913;stroke-miterlimit:4;stroke-dasharray:none;stroke-dashoffset:0;stroke-opacity:1"
       d="m -45.389546,311.11592 c -0.328524,-0.59636 7.609705,-1.47363 15.120041,-6.787 3.930724,-2.78088 12.368138,-7.38021 12.368138,-7.38021 1.525899,0.65579 2.516075,0.005 2.912566,3.80084 0,0 -8.414194,4.68363 -11.957866,7.94468 -3.91484,3.60262 -14.57046,10.10053 -14.57046,9.00418 z"
       id="path4638"
       inkscape:connector-curvature="0"
       sodipodi:nodetypes="csccscc" />
    <ellipse
       ry="3.910429"
       rx="2.4758296"
       cy="229.25436"
       cx="-206.23332"
       id="ellipse4640"
       style="opacity:1;fill:#806600;stroke:#000000;stroke-width:0.61012012;stroke-miterlimit:4;stroke-dasharray:none;stroke-dashoffset:0;stroke-opacity:1"
       transform="matrix(0.80867454,-0.58825631,0.53811629,0.8428706,0,0)" />
    <path
       style="opacity:1;fill:#552200;stroke:#000000;stroke-width:0.43291855;stroke-miterlimit:4;stroke-dasharray:none;stroke-dashoffset:0;stroke-opacity:1"
       d="m -39.387781,312.06841 c -0.302474,-0.52654 7.006285,-1.3011 13.921081,-5.99238 3.619033,-2.4553 11.387393,-6.51615 11.387393,-6.51615 1.404901,0.57901 2.31656,0.004 2.681611,3.35584 0,0 -7.746982,4.13528 -11.009654,7.01453 -3.604409,3.18083 -13.41508,8.91797 -13.41508,7.94998 z"
       id="path4620"
       inkscape:connector-curvature="0"
       sodipodi:nodetypes="csccscc" />
    <path
       sodipodi:nodetypes="csccscc"
       inkscape:connector-curvature="0"
       id="path4644"
       d="m -45.069799,305.72742 c -0.302473,-0.52654 7.006285,-1.3011 13.921081,-5.99238 3.619033,-2.4553 11.387393,-6.51615 11.387393,-6.51615 1.404901,0.57901 2.31656,0.004 2.681611,3.35584 0,0 -7.746982,4.13528 -11.009654,7.01453 -3.604409,3.18083 -13.41508,8.91797 -13.41508,7.94998 z"
       style="opacity:1;fill:#c87137;stroke:#000000;stroke-width:0.43291855;stroke-miterlimit:4;stroke-dasharray:none;stroke-dashoffset:0;stroke-opacity:1" />
    <path
       style="opacity:1;fill:#784421;stroke:#000000;stroke-width:0.49199179;stroke-miterlimit:4;stroke-dasharray:none;stroke-dashoffset:0;stroke-opacity:1"
       d="m -41.213524,307.6176 c 2.491514,-1.387 8.150234,-5.02358 12.846655,-6.55615 9.754842,-3.18325 9.348058,-3.78481 12.034006,-6.07422 1.565121,0.0119 2.343053,0.72594 1.676868,2.729 v 0 c 0.161027,-0.14371 -3.73393,4.21621 -10.941041,7.14476 -6.63084,2.69439 -8.188652,4.44474 -10.767556,7.7256 l -1.964856,-2.10569 z"
       id="path4622"
       inkscape:connector-curvature="0"
       sodipodi:nodetypes="cscccsccc" />
    <path
       style="opacity:1;fill:#552200;stroke:#000000;stroke-width:0.43291855;stroke-miterlimit:4;stroke-dasharray:none;stroke-dashoffset:0;stroke-opacity:1"
       d="m -35.683614,318.72328 c 0.660378,0.11536 5.442046,0.97165 11.275247,-4.40488 3.272802,-3.01657 9.365065,-6.74581 9.126347,-6.74581 1.23414,-0.43129 2.468279,-0.86259 3.702418,-1.29389 0.07092,0.32604 0.131603,0.18419 0.181906,0.64606 0,0 -7.746982,4.13528 -11.009654,7.01453 -3.604409,3.18083 -13.41508,8.91797 -13.41508,7.94998 z"
       id="path4660"
       inkscape:connector-curvature="0"
       sodipodi:nodetypes="cscccscc" />
    <ellipse
       transform="matrix(0.8201628,-0.57213021,0.55417366,0.83240108,0,0)"
       style="opacity:1;fill:#554400;stroke:#000000;stroke-width:0.54965138;stroke-miterlimit:4;stroke-dasharray:none;stroke-dashoffset:0;stroke-opacity:1"
       id="ellipse4634"
       cx="-208.16054"
       cy="240.28607"
       rx="2.2475762"
       ry="3.496026" />
    <path
       sodipodi:nodetypes="csccscc"
       inkscape:connector-curvature="0"
       id="path4662"
       d="m -36.893759,314.17409 c -0.768175,-0.71282 4.332241,-2.84379 12.485392,-7.03973 3.888577,-2.00122 11.151158,-6.99806 11.151158,-6.99806 1.066388,-0.0196 1.423286,1.02514 1.670525,2.25026 0,0 -8.087161,4.13527 -11.349833,7.01452 -3.604409,3.18083 -13.41508,8.38881 -13.41508,7.42082 z"
       style="opacity:1;fill:#d38d5f;stroke:#000000;stroke-width:0;stroke-miterlimit:4;stroke-dasharray:none;stroke-dashoffset:0;stroke-opacity:1" />
    <ellipse
       ry="3.496026"
       rx="2.2475762"
       cy="236.99722"
       cx="-205.93831"
       id="ellipse4605"
       style="opacity:1;fill:#ffdd55;stroke:#000000;stroke-width:0.54965138;stroke-miterlimit:4;stroke-dasharray:none;stroke-dashoffset:0;stroke-opacity:1"
       transform="matrix(0.8201628,-0.57213021,0.55417366,0.83240108,0,0)" />
    <path
       style="opacity:1;fill:#2b1100;stroke:#000000;stroke-width:0;stroke-miterlimit:4;stroke-dasharray:none;stroke-dashoffset:0;stroke-opacity:1"
       d="m -38.862363,315.61844 c 0.765825,1.00635 2.649584,3.10484 3.28535,-0.53703 0.519554,0.11546 1.0709,2.71005 -0.05091,2.92896 -0.509034,0.3551 -1.186729,0.35084 -1.870918,0.0569 -0.684182,-0.29392 -1.374864,-0.87751 -1.909863,-1.68111 -0.535,-0.8036 -0.813025,-1.67506 -0.830038,-2.43438 -0.01702,-0.75933 0.226969,-1.40653 0.736003,-1.76162 0.509034,-0.3551 1.186732,-0.35086 1.87092,-0.0569 0.46115,0.19811 2.001952,2.11921 1.720605,1.58196 -2.034918,1.09314 -4.492841,-1.16448 -2.951154,1.90323 z"
       id="ellipse4664"
       inkscape:connector-curvature="0"
       sodipodi:nodetypes="cccccccccc" />
    <path
       sodipodi:nodetypes="cscccccc"
       inkscape:connector-curvature="0"
       id="path4667"
       d="m -40.684357,308.14677 c 2.491514,-1.387 7.857302,-4.82515 12.553723,-6.35772 9.754842,-3.18325 9.64099,-3.98324 12.326938,-6.27265 1.565121,0.0119 0.96344,0.13062 1.147701,1.1415 -1.327463,1.43701 -9.100201,6.36691 -10.941041,7.14476 -6.63084,2.69439 -9.246985,4.44474 -11.825889,7.7256 l -0.906523,-1.04736 z"
       style="opacity:1;fill:#d38d5f;stroke:#000000;stroke-width:0;stroke-miterlimit:4;stroke-dasharray:none;stroke-dashoffset:0;stroke-opacity:1" />
    <path
       style="opacity:1;fill:#deaa87;stroke:#000000;stroke-width:0;stroke-miterlimit:4;stroke-dasharray:none;stroke-dashoffset:0;stroke-opacity:1"
       d="m -45.069799,305.72742 c -0.302473,-0.52654 7.006285,-1.3011 13.921081,-5.99238 3.619033,-2.4553 11.387393,-6.51615 11.387393,-6.51615 0,0 -0.09449,-0.18899 1.736671,0.56827 -2.987736,0.40088 -5.400137,2.03061 -12.332571,5.8806 -2.291353,1.85793 -9.046505,4.97157 -13.462327,6.62706 z"
       id="path4669"
       inkscape:connector-curvature="0"
       sodipodi:nodetypes="csccccc" />
    <ellipse
       transform="matrix(0.8201628,-0.57213021,0.55417366,0.83240108,0,0)"
       style="opacity:1;fill:#ffdd55;stroke:#000000;stroke-width:0.54965138;stroke-miterlimit:4;stroke-dasharray:none;stroke-dashoffset:0;stroke-opacity:1"
       id="ellipse4646"
       cx="-207.15431"
       cy="228.54373"
       rx="2.2475762"
       ry="3.496026" />
    <ellipse
       style="opacity:1;fill:#ffdd55;stroke:#000000;stroke-width:0.60771316;stroke-miterlimit:4;stroke-dasharray:none;stroke-dashoffset:0;stroke-opacity:1"
       id="path4599"
       cx="-224.1701"
       cy="231.78604"
       rx="1.8909402"
       ry="3.4541631"
       transform="matrix(0.8178239,-0.57546857,0.62303309,0.78219548,0,0)" />
    <path
       sodipodi:nodetypes="cccccc"
       inkscape:connector-curvature="0"
       id="path4671"
       d="m -42.169654,310.23227 c -0.006,-1.51842 -0.42221,-1.56679 0.95613,-2.61467 -0.88686,0.0887 -0.502812,3.20405 0.577421,3.40021 -0.142121,0.30588 -0.82253,0.86839 -2.579623,0.71836 -0.684182,-0.29392 -1.28037,-1.01926 -1.815369,-1.82286 2.495408,2.23754 2.925041,1.59837 2.861441,0.31896 z"
       style="opacity:1;fill:#2b1100;stroke:#000000;stroke-width:0;stroke-miterlimit:4;stroke-dasharray:none;stroke-dashoffset:0;stroke-opacity:1" />
    <path
       style="opacity:1;vector-effect:none;fill:none;fill-opacity:1;stroke:#5b2400;stroke-width:2.82222223;stroke-linecap:butt;stroke-linejoin:miter;stroke-miterlimit:4;stroke-dasharray:none;stroke-dashoffset:0;stroke-opacity:1"
       d="m 28.877379,261.05447 c -2.875119,2.37268 -22.3833954,3.19839 -19.0122017,9.94078 1.6290017,3.258 5.0382607,3.40605 3.4017857,8.31547 -1.990319,5.97096 -2.903361,6.61859 -8.3910702,11.52828"
       id="path4673"
       inkscape:connector-curvature="0"
       sodipodi:nodetypes="cssc" />
    <path
       inkscape:connector-curvature="0"
       id="path4675"
       d="m 35.189582,268.16042 c -5.142976,7.28637 -8.284886,-2.96262 -13.796131,3.77977 -2.305286,2.82026 4.32559,4.96931 -1.322916,10.39434 -8.135685,7.81381 -7.068156,12.47322 -1.322917,10.39435"
       style="opacity:1;vector-effect:none;fill:none;fill-opacity:1;stroke:#ff6600;stroke-width:2.82222223;stroke-linecap:butt;stroke-linejoin:miter;stroke-miterlimit:4;stroke-dasharray:none;stroke-dashoffset:0;stroke-opacity:1"
       sodipodi:nodetypes="cssc" />
    <path
       style="opacity:1;vector-effect:none;fill:none;fill-opacity:1;stroke:#af4700;stroke-width:2.82222223;stroke-linecap:butt;stroke-linejoin:miter;stroke-miterlimit:4;stroke-dasharray:none;stroke-dashoffset:0;stroke-opacity:0.98947371"
       d="m 26.24164,257.95204 c -2.37268,2.87511 -1.384107,6.58398 -7.370545,13.41815 -2.400124,2.74 -5.673907,1.00936 -8.693446,4.34672 -4.2227048,4.66717 -0.4850647,3.87952 -6.0476231,7.9375"
       id="path4677"
       inkscape:connector-curvature="0"
       sodipodi:nodetypes="cssc" />
    <path
       inkscape:connector-curvature="0"
       id="path4679"
       d="m 9.9856263,291.59895 c 2.8751187,-2.37268 10.5527437,-2.70702 16.2529767,-9.07143 2.4302,-2.71337 0.06442,-7.3748 1.700891,-12.28422 1.990319,-5.97096 0.937885,-9.18883 4.346728,-10.01638"
       style="opacity:1;vector-effect:none;fill:none;fill-opacity:1;stroke:#ad4600;stroke-width:2.82222223;stroke-linecap:butt;stroke-linejoin:miter;stroke-miterlimit:4;stroke-dasharray:none;stroke-dashoffset:0;stroke-opacity:1"
       sodipodi:nodetypes="cssc" />
    <path
       sodipodi:nodetypes="cssc"
       inkscape:connector-curvature="0"
       id="path4681"
       d="m 11.795073,288.1296 c 2.372682,-2.87511 1.384108,-6.58398 7.370547,-13.41815 2.400124,-2.74 5.673907,-1.00936 8.693446,-4.34672 4.222707,-4.66717 0.485065,-3.87952 6.047625,-7.9375"
       style="opacity:1;vector-effect:none;fill:none;fill-opacity:1;stroke:#ff3100;stroke-width:2.82222223;stroke-linecap:butt;stroke-linejoin:miter;stroke-miterlimit:4;stroke-dasharray:none;stroke-dashoffset:0;stroke-opacity:0.98947371" />
  </g>
</svg>
