<?xml version="1.0" encoding="UTF-8" standalone="no"?>
<!-- Created with Inkscape (http://www.inkscape.org/) -->

<svg
   xmlns:dc="http://purl.org/dc/elements/1.1/"
   xmlns:cc="http://creativecommons.org/ns#"
   xmlns:rdf="http://www.w3.org/1999/02/22-rdf-syntax-ns#"
   xmlns:svg="http://www.w3.org/2000/svg"
   xmlns="http://www.w3.org/2000/svg"
   xmlns:sodipodi="http://sodipodi.sourceforge.net/DTD/sodipodi-0.dtd"
   xmlns:inkscape="http://www.inkscape.org/namespaces/inkscape"
   width="120pt"
   height="120pt"
   viewBox="0 0 42.333335 42.333333"
   version="1.1"
   id="svg7469"
   inkscape:version="0.92.1 r15371"
   sodipodi:docname="ToxinLiquidIcon.svg">
  <defs
     id="defs7463" />
  <sodipodi:namedview
     id="base"
     pagecolor="#ffffff"
     bordercolor="#666666"
     borderopacity="1.0"
     inkscape:pageopacity="0.0"
     inkscape:pageshadow="2"
     inkscape:zoom="3.6329327"
     inkscape:cx="84.350954"
     inkscape:cy="80"
     inkscape:document-units="pt"
     inkscape:current-layer="layer1"
     showgrid="false"
     units="pt"
     inkscape:window-width="1366"
     inkscape:window-height="745"
     inkscape:window-x="-8"
     inkscape:window-y="-8"
     inkscape:window-maximized="1" />
  <metadata
     id="metadata7466">
    <rdf:RDF>
      <cc:Work
         rdf:about="">
        <dc:format>image/svg+xml</dc:format>
        <dc:type
           rdf:resource="http://purl.org/dc/dcmitype/StillImage" />
        <dc:title></dc:title>
      </cc:Work>
    </rdf:RDF>
  </metadata>
  <g
     inkscape:label="Layer 1"
     inkscape:groupmode="layer"
     id="layer1"
     transform="translate(0,-254.66668)">
    <path
       style="opacity:1;fill:#803300;stroke:#000000;stroke-width:0.17638889;stroke-miterlimit:4;stroke-dasharray:none;stroke-opacity:1"
       d="m 2.7115733,282.37651 c 0.3338184,-0.82088 3.6896408,-2.78688 6.842285,-3.27355 2.8125097,-0.43416 5.1548697,0.48388 9.9475097,1.70542 3.41038,0.86922 5.732083,0.76816 7.116704,0.18334 2.26005,-0.95458 2.854345,-2.83282 6.756739,-4.24946 2.56342,-0.93056 5.452594,1.28205 6.422059,3.91061 0.207442,0.56245 0.228939,1.13462 0.317535,1.66044 0.559167,3.31865 1.2558,8.70493 -9.002553,6.89305 0,0 -2.50783,0.16155 -5.390487,0.94071 -3.92987,1.06222 -4.599535,1.63677 -7.69062,1.35661 -1.545291,-0.14006 -3.121036,-1.22288 -9.2000734,0.69342 -4.569677,1.4405 -7.8242069,-5.62762 -6.1190983,-9.82059 z"
       id="rect8150"
       inkscape:connector-curvature="0"
       sodipodi:nodetypes="ssssssssssss" />
    <path
       style="opacity:1;fill:#ff6600;stroke:#000000;stroke-width:0.17638889;stroke-miterlimit:4;stroke-dasharray:none;stroke-opacity:1"
       d="m 29.557739,280.04777 c 3.440944,-3.52021 5.54173,-3.62419 8.315476,-0.85045 1.737253,1.73725 2.312635,4.36783 0,5.19718 -14.585502,5.23059 -41.4074632,-0.3871 -29.6711306,-4.15774 8.3640146,-2.68718 15.3397146,5.96553 21.3556546,-0.18899 z"
       id="rect8152"
       inkscape:connector-curvature="0"
       sodipodi:nodetypes="sssss" />
    <path
       style="opacity:1;fill:#000000;stroke:#000000;stroke-width:0;stroke-miterlimit:4;stroke-dasharray:none;stroke-opacity:1"
       d="m 19.410646,282.49286 c -1.340327,-0.32914 -3.409632,-1.49608 -9.4972107,-0.30296 9.4972107,0.30296 3.0154477,1.11337 3.0154477,1.11337 -0.455936,1.84341 2.421288,1.55128 3.871836,1.56993 1.931457,0.0248 3.176339,-0.23703 3.874787,-0.58737 0.571256,-0.28655 1.198977,-0.003 1.700579,-0.003 2.746153,-0.002 0.335429,0.84106 2.953489,2.2696 0.893024,1.86196 0.63292,2.35321 0.685603,4.96564 -7.255551,1.27852 1.571166,1.50179 4.627622,1.42961 2.660435,-0.0628 4.020389,-0.22421 1.976006,-1.18609 0,0 -4.925098,0.007 -4.925004,-0.67655 1.4e-4,-1.02903 -0.11337,-4.07291 -0.530034,-4.41984 l -1.943967,-1.50065 -0.770419,-0.37764 c 0.898963,-0.26207 8.504741,1.0016 11.477255,-2.77333 -4.195536,-0.39687 -9.442714,2.2166 -16.51599,0.47962 z"
       id="rect8154"
       inkscape:connector-curvature="0"
       sodipodi:nodetypes="cccsssccsccccccsc" />
    <path
       style="opacity:1;vector-effect:none;fill:none;fill-opacity:1;stroke:#800000;stroke-width:1.35331845;stroke-linecap:butt;stroke-linejoin:miter;stroke-miterlimit:4;stroke-dasharray:none;stroke-dashoffset:0;stroke-opacity:1"
       d="M 35.057401,279.58671 C 28.00324,266.91164 34.468133,263.35181 34.232422,258.77274"
       id="path8159"
       inkscape:connector-curvature="0"
       sodipodi:nodetypes="cc" />
    <path
       style="opacity:1;vector-effect:none;fill:none;fill-opacity:1;stroke:#800000;stroke-width:1.35331845;stroke-linecap:butt;stroke-linejoin:miter;stroke-miterlimit:4;stroke-dasharray:none;stroke-dashoffset:0;stroke-opacity:1"
       d="m 33.344399,279.78097 c -1.174072,-5.14052 -2.649416,-8.27656 -1.777745,-10.36593 0.807048,-1.93446 0.471418,-2.77519 3.726459,-2.59423"
       id="path8161"
       inkscape:connector-curvature="0"
       sodipodi:nodetypes="csc" />
    <path
       style="opacity:1;vector-effect:none;fill:none;fill-opacity:1;stroke:#800000;stroke-width:1.35331845;stroke-linecap:butt;stroke-linejoin:miter;stroke-miterlimit:4;stroke-dasharray:none;stroke-dashoffset:0;stroke-opacity:1"
       d="m 32.464608,280.55803 c 0.148732,-3.06244 -3.182061,-9.43566 -0.589269,-17.62249"
       id="path8163"
       inkscape:connector-curvature="0"
       sodipodi:nodetypes="cc" />
    <path
       style="opacity:1;vector-effect:none;fill:none;fill-opacity:1;stroke:#800000;stroke-width:1.35331845;stroke-linecap:butt;stroke-linejoin:miter;stroke-miterlimit:4;stroke-dasharray:none;stroke-dashoffset:0;stroke-opacity:1"
       d="m 31.35678,273.86981 c -0.871132,-0.5719 -1.990966,-1.07169 -2.592792,-1.24884"
       id="path8165"
       inkscape:connector-curvature="0"
       sodipodi:nodetypes="cc" />
    <path
       style="opacity:1;fill:#000000;stroke:#000000;stroke-width:0;stroke-miterlimit:4;stroke-dasharray:none;stroke-opacity:1"
       d="m 23.419881,276.43081 c 0.484614,0.26509 1.468495,0.0762 0.813357,-0.70257 -0.449705,-0.53454 -2.662422,0.48329 -3.496364,0.31837 -0.417206,-0.0825 -0.722569,-0.37007 0.272426,-0.58368 0.700283,-0.15033 2.042012,0.76626 2.410581,0.96788 z"
       id="path8167"
       inkscape:connector-curvature="0"
       sodipodi:nodetypes="sssss" />
    <path
       sodipodi:nodetypes="sssss"
       inkscape:connector-curvature="0"
       id="path8170"
       d="m 13.53812,277.16944 c -0.551343,-0.0338 -1.361477,0.55557 -0.437336,0.98178 0.634344,0.29253 2.204102,-1.56971 3.029005,-1.77512 0.412681,-0.10277 0.811353,0.0276 0.0017,0.64412 -0.569861,0.43389 -2.17402,0.17495 -2.593343,0.14922 z"
       style="opacity:1;fill:#000000;stroke:#000000;stroke-width:0;stroke-miterlimit:4;stroke-dasharray:none;stroke-opacity:1" />
    <path
       style="opacity:1;fill:#000000;stroke:#000000;stroke-width:0;stroke-miterlimit:4;stroke-dasharray:none;stroke-opacity:1"
       d="m 19.207234,271.29182 c -0.550685,-0.0432 -1.370774,0.53222 -0.454052,0.97416 0.629252,0.30333 2.230607,-1.53181 3.058901,-1.72309 0.414377,-0.0957 0.810762,0.0415 -0.0093,0.64406 -0.577193,0.42408 -2.176692,0.13776 -2.595514,0.10487 z"
       id="path8172"
       inkscape:connector-curvature="0"
       sodipodi:nodetypes="sssss" />
    <path
       style="opacity:1;vector-effect:none;fill:none;fill-opacity:1;stroke:#000000;stroke-width:1;stroke-linecap:butt;stroke-linejoin:miter;stroke-miterlimit:4;stroke-dasharray:none;stroke-dashoffset:0;stroke-opacity:1"
       d="m 12.926785,280.91711 c 0,0 -1.62207,-1.84889 -1.511904,-3.49627 0.158102,-2.36419 2.184473,-2.90104 2.267857,-3.96876 0.311231,-3.98524 -2.731437,-3.3325 -4.1577377,-5.95312 -1.1619639,-2.13494 1.3283317,-2.6809 -0.8504466,-5.38616"
       id="path8174"
       inkscape:connector-curvature="0"
       sodipodi:nodetypes="csssc" />
    <path
       style="opacity:1;vector-effect:none;fill:none;fill-opacity:1;stroke:#000000;stroke-width:1;stroke-linecap:butt;stroke-linejoin:miter;stroke-miterlimit:4;stroke-dasharray:none;stroke-dashoffset:0;stroke-opacity:1"
       d="m 25.777976,282.31563 c -0.774595,-0.679 -1.521507,-1.66248 -1.228422,-2.83482 0.488491,-1.95397 3.502603,-2.8977 3.023808,-5.29167 -0.864925,-4.32463 -6.113288,-5.59661 -2.551338,-10.58334"
       id="path8176"
       inkscape:connector-curvature="0"
       sodipodi:nodetypes="cssc" />
    <path
       style="opacity:1;vector-effect:none;fill:none;fill-opacity:1;stroke:#000000;stroke-width:1;stroke-linecap:butt;stroke-linejoin:miter;stroke-miterlimit:4;stroke-dasharray:none;stroke-dashoffset:0;stroke-opacity:1"
       d="m 18.596428,258.9756 c 0.482974,2.49754 2.105077,3.21897 1.6064,5.48066 -0.810844,3.67748 -3.664277,3.17581 -3.779762,6.70907 -0.123078,3.76557 4.634464,2.80863 2.83482,9.16592"
       id="path8178"
       inkscape:connector-curvature="0"
       sodipodi:nodetypes="cssc" />
    <path
       sodipodi:nodetypes="ssssssss"
       inkscape:connector-curvature="0"
       id="path8180"
       d="m 21.939074,288.51173 c 1.212787,-0.32115 0.478636,-0.2001 1.308275,-0.93159 0.749924,-0.66121 -0.01809,-1.47282 1.276476,-1.43384 1.099993,0.0331 1.475685,0.97803 1.479201,2.40205 0.0045,1.79258 0.09201,1.34226 -0.39563,1.39238 -0.75622,0.0778 -1.402793,0.34496 -1.859379,0.34736 -0.728511,0.004 -0.776642,-0.33099 -1.918106,-0.45584 -0.681182,-0.0745 -1.230092,-0.96588 0.109163,-1.32052 z"
       style="opacity:1;fill:#ffffff;stroke:#000000;stroke-width:0;stroke-miterlimit:4;stroke-dasharray:none;stroke-opacity:1" />
    <path
       style="opacity:1;fill:#ffffff;stroke:#000000;stroke-width:0;stroke-miterlimit:4;stroke-dasharray:none;stroke-opacity:1"
       d="m 18.254822,285.10435 c 0.598807,-0.12901 0.189075,-0.71201 0.912163,-0.89074 1.230678,-0.30419 1.187324,-0.0457 2.235993,-0.0534 1.799026,-0.0133 2.376869,0.25162 2.444944,0.5018 0.09497,0.34901 0.369345,0.67077 -0.428177,0.6939 -1.236779,0.0359 -1.100003,0.16554 -1.846737,0.16664 -1.191457,0.002 -1.925616,0.0349 -2.280556,-0.067 -0.398845,-0.11454 -2.249563,-0.0902 -1.397351,-0.2737 z"
       id="path8182"
       inkscape:connector-curvature="0"
       sodipodi:nodetypes="sssssssss" />
    <path
       sodipodi:nodetypes="sssssssscssss"
       inkscape:connector-curvature="0"
       id="path8184"
       d="m 9.9467069,282.16494 c 0.2788301,-0.16467 0.7479331,-0.21415 1.2430641,-0.15214 0.39402,0.0493 0.387874,0.21844 0.8411,0.25206 0.554969,0.0412 1.196773,0.0369 1.263757,-0.0364 0.278247,-0.30416 0.534343,-0.30381 1.013007,-0.28583 0.406716,0.0153 0.352177,0.69374 0.563562,0.65146 0.139768,-0.0279 0.39369,0.18269 0.0377,0.30539 -0.278132,0.0958 -0.644334,0.19588 -0.879696,0.23872 -0.144333,0.0263 -0.547297,0.13944 -1.10032,0.16504 -0.136005,0.58357 0.0656,0.73898 0.0066,0.73684 -0.488307,-0.0177 -1.461089,-1.04333 -1.777419,-1.04354 -1.1630577,-8e-4 -1.5380541,-0.791 -1.2113331,-0.8316 0.3649221,-0.0454 0,-3e-5 0,-3e-5 z"
       style="opacity:1;fill:#ffffff;stroke:#000000;stroke-width:0;stroke-miterlimit:4;stroke-dasharray:none;stroke-opacity:1" />
    <ellipse
       style="opacity:1;fill:#ffffff;stroke:#000000;stroke-width:0;stroke-miterlimit:4;stroke-dasharray:none;stroke-opacity:1"
       id="path8186"
       cx="8.2548389"
       cy="281.93948"
       rx="0.97886193"
       ry="0.40059316" />
    <ellipse
       style="opacity:1;fill:#ffffff;stroke:#000000;stroke-width:0;stroke-miterlimit:4;stroke-dasharray:none;stroke-opacity:1"
       id="path8188"
       cx="10.381084"
       cy="283.55505"
       rx="0.99681306"
       ry="0.30674839" />
    <path
       sodipodi:nodetypes="ssssccssss"
       inkscape:connector-curvature="0"
       id="path8190"
       d="m 31.502608,284.7458 c -0.941134,0.0183 -0.47551,-0.15556 -0.770783,-0.34548 -0.432617,-0.27827 -1.533948,0.31429 -2.434585,0.32778 -1.319014,0.0197 -2.604428,-0.37575 -3.020909,-0.36849 -0.620886,0.0108 -0.823661,0.21158 -0.82695,0.4273 1.542493,0.84514 2.024694,1.46821 2.714386,1.87829 0.457617,-0.27042 -0.354839,-0.84795 1.01757,-0.84998 1.876956,-0.003 0.540716,-0.24316 2.248283,-0.30429 0.63883,-0.0229 1.217044,-0.0387 1.71772,-0.56278 0.232504,-0.24335 -0.2808,-0.20941 -0.644732,-0.20235 z"
       style="opacity:1;fill:#ffffff;stroke:#000000;stroke-width:0;stroke-miterlimit:4;stroke-dasharray:none;stroke-opacity:1" />
    <ellipse
       ry="0.30674839"
       rx="0.99681306"
       cy="281.82642"
       cx="37.503014"
       id="ellipse8192"
       style="opacity:1;fill:#ffffff;stroke:#000000;stroke-width:0;stroke-miterlimit:4;stroke-dasharray:none;stroke-opacity:1" />
    <ellipse
       style="opacity:1;fill:#ffffff;stroke:#000000;stroke-width:0;stroke-miterlimit:4;stroke-dasharray:none;stroke-opacity:1"
       id="ellipse8194"
       cx="-61.071648"
       cy="278.68884"
       rx="0.99681306"
       ry="0.30674839"
       transform="rotate(-19.708528)" />
    <ellipse
       ry="0.31358552"
       rx="0.65146965"
       cy="283.34445"
       cx="-11.28604"
       id="ellipse8196"
       style="opacity:1;fill:#ffffff;stroke:#000000;stroke-width:0;stroke-miterlimit:4;stroke-dasharray:none;stroke-opacity:1"
       transform="matrix(0.91352684,-0.40677846,0.15370374,0.98811698,0,0)" />
    <ellipse
       style="opacity:1;fill:#ffffff;stroke:#000000;stroke-width:0;stroke-miterlimit:4;stroke-dasharray:none;stroke-opacity:1"
       id="ellipse8198"
       cx="123.89642"
       cy="240.89166"
       rx="0.76679021"
       ry="0.26615781"
       transform="matrix(0.90341643,0.42876421,-0.32152415,0.94690138,0,0)" />
    <ellipse
       style="opacity:1;fill:#ffffff;stroke:#000000;stroke-width:0;stroke-miterlimit:4;stroke-dasharray:none;stroke-opacity:1"
       id="ellipse8200"
       cx="36.498882"
       cy="280.76807"
       rx="0.5218479"
       ry="0.30674854" />
  </g>
</svg>
