<?xml version="1.0" encoding="UTF-8" standalone="no"?>
<!-- Created with Inkscape (http://www.inkscape.org/) -->

<svg
   xmlns:dc="http://purl.org/dc/elements/1.1/"
   xmlns:cc="http://creativecommons.org/ns#"
   xmlns:rdf="http://www.w3.org/1999/02/22-rdf-syntax-ns#"
   xmlns:svg="http://www.w3.org/2000/svg"
   xmlns="http://www.w3.org/2000/svg"
   xmlns:sodipodi="http://sodipodi.sourceforge.net/DTD/sodipodi-0.dtd"
   xmlns:inkscape="http://www.inkscape.org/namespaces/inkscape"
   width="120pt"
   height="120pt"
   viewBox="0 0 42.333335 42.333333"
   version="1.1"
   id="svg7469"
   inkscape:version="0.92.1 r15371"
   sodipodi:docname="ToxinGasIcon.svg"
   inkscape:export-filename="C:\Users\Scott\Documents\ToxinGasIcon.png"
   inkscape:export-xdpi="76.800003"
   inkscape:export-ydpi="76.800003">
  <defs
     id="defs7463" />
  <sodipodi:namedview
     id="base"
     pagecolor="#ffffff"
     bordercolor="#666666"
     borderopacity="1.0"
     inkscape:pageopacity="0.0"
     inkscape:pageshadow="2"
     inkscape:zoom="1.2844357"
     inkscape:cx="84.350954"
     inkscape:cy="80"
     inkscape:document-units="pt"
     inkscape:current-layer="layer1"
     showgrid="false"
     units="pt"
     inkscape:window-width="1366"
     inkscape:window-height="745"
     inkscape:window-x="-8"
     inkscape:window-y="-8"
     inkscape:window-maximized="1" />
  <metadata
     id="metadata7466">
    <rdf:RDF>
      <cc:Work
         rdf:about="">
        <dc:format>image/svg+xml</dc:format>
        <dc:type
           rdf:resource="http://purl.org/dc/dcmitype/StillImage" />
        <dc:title></dc:title>
      </cc:Work>
    </rdf:RDF>
  </metadata>
  <g
     inkscape:label="Layer 1"
     inkscape:groupmode="layer"
     id="layer1"
     transform="translate(0,-254.66668)">
    <path
       sodipodi:nodetypes="ssssssssss"
       inkscape:connector-curvature="0"
       id="path8230"
       d="m 4.6429021,285.75402 c 1.096185,-0.57277 7.5283729,-0.7086 9.7294519,-0.90865 1.963606,-0.17847 4.618577,1.29134 7.964648,1.79347 2.381022,0.35729 3.273672,-0.12122 4.240371,-0.36157 1.577896,-0.39239 1.886079,-0.40859 4.644516,-0.8 1.814034,-0.25741 3.840358,0.86884 5.506495,1.78022 1.583814,0.86635 0.876761,1.83034 -6.285302,1.08555 -1.25404,-0.1304 -11.339054,-0.0367 -13.376917,-0.0503 -2.385346,-0.0159 -3.78409,-2.08267 -7.3499783,-1.70634 -3.538912,0.37348 -6.7232356,0.0297 -5.0732846,-0.83238 z"
       style="opacity:1;fill:#71c837;stroke:#000000;stroke-width:0.17638889;stroke-miterlimit:4;stroke-dasharray:none;stroke-opacity:1" />
    <path
       style="opacity:1;fill:#71c837;stroke:#000000;stroke-width:0.17638889;stroke-miterlimit:4;stroke-dasharray:none;stroke-opacity:1"
       d="m 22.506381,278.34015 c -1.965959,0.15037 -2.72502,-0.27173 -5.998262,-0.19122 -2.406952,0.0592 -3.856305,0.48537 -4.823004,0.72576 -1.577896,0.39239 -5.2701251,-1.16609 -7.9946563,-0.58376 -1.7897,0.38251 -2.6994379,-1.57538 -1.4248579,-1.60749 3.6112925,-0.091 1.4270553,0.13266 4.3885378,0.4168 1.2550384,0.12042 0.7312821,0.44297 2.7438634,0.12311 2.743713,-0.43664 6.051589,-0.5271 8.209689,-0.412 1.078874,0.0576 4.800858,-0.29844 9.045053,-1.08644 3.190406,-0.59213 6.977934,1.11779 5.000456,1.77913 -3.805115,1.27257 -3.575097,0.21629 -7.180432,0.61736 z"
       id="path8228"
       inkscape:connector-curvature="0"
       sodipodi:nodetypes="cssssssssssc" />
    <path
       sodipodi:nodetypes="sssssssssss"
       inkscape:connector-curvature="0"
       id="path8224"
       d="m 18.166443,273.1927 c 1.965959,-0.15037 2.579362,-0.96637 5.925433,-0.46424 2.381022,0.35729 4.511767,0.17009 5.478466,-0.0703 1.577896,-0.39239 2.502618,0.14648 5.227149,-0.43585 1.7897,-0.38251 5.758262,1.57538 4.483682,1.60749 -3.611293,0.091 -1.281397,0.44998 -4.24288,0.16584 -1.255038,-0.12042 -1.75089,-0.006 -3.763471,0.31386 -2.743713,0.43664 -7.216855,0.0173 -9.374955,-0.0978 -1.078874,-0.0576 -2.834472,-0.794 -7.078667,-0.006 -3.190406,0.59213 -6.9779342,-1.11779 -5.0004556,-1.77913 3.8051146,-1.27257 4.7286876,1.04304 8.3456986,0.76639 z"
       style="opacity:1;fill:#d38d5f;stroke:#000000;stroke-width:0.17638889;stroke-miterlimit:4;stroke-dasharray:none;stroke-opacity:1" />
    <path
       style="opacity:1;fill:#abc837;stroke:#000000;stroke-width:0.17638889;stroke-miterlimit:4;stroke-dasharray:none;stroke-opacity:1"
       d="m 29.185976,268.71199 c -1.096185,-0.57277 -2.575992,-1.14557 -4.777071,-1.34562 -1.963606,-0.17847 -3.598969,0.1989 -6.94504,0.70103 -2.381022,0.35729 -4.001963,0.31575 -4.968662,0.0754 -1.577896,-0.39239 -0.827548,-0.94596 -3.552079,-1.52829 -1.831084,-0.0641 -5.4529165,0.21894 -5.8706415,2.07154 -0.390393,1.36415 -1.0224183,1.46619 6.1396445,0.7214 1.25404,-0.1304 2.333523,1.01317 4.346104,1.33346 2.743713,0.43664 2.774277,1.83808 4.932377,1.72292 1.078874,-0.0576 2.251839,-3.34302 6.496033,-2.55531 3.553018,0.19862 5.849286,-0.33442 4.199335,-1.19653 z"
       id="path8226"
       inkscape:connector-curvature="0"
       sodipodi:nodetypes="ssssccssscs" />
    <path
       style="opacity:1;fill:#c8ab37;stroke:#000000;stroke-width:0.17638889;stroke-miterlimit:4;stroke-dasharray:none;stroke-opacity:1"
       d="m 4.0124747,281.06482 c 2.004477,-0.8129 3.5472209,-0.63689 6.4537163,-0.9516 2.592916,-0.28075 4.75239,0.3129 9.170832,1.10282 3.144106,0.56208 5.284537,0.49673 6.56105,0.11856 2.08359,-0.61729 1.029243,-0.88508 4.626949,-1.80116 2.363274,-0.60175 6.217051,0.17389 7.522881,1.58204 1.799231,1.94022 0.20456,0.7546 -5.676381,0.069 -1.657376,-0.19323 -4.642558,2.07085 -7.300144,2.5747 -3.623035,0.68689 -7.226409,-0.68948 -10.07615,-0.87064 -1.424639,-0.0906 -2.804524,-2.02888 -8.4089257,-0.78969 -4.2128884,0.93151 -5.7701891,0.14058 -2.8738276,-1.03401 z"
       id="rect8150"
       inkscape:connector-curvature="0"
       sodipodi:nodetypes="sssssssssss" />
    <ellipse
       style="opacity:1;fill:#554400;stroke:#000000;stroke-width:0.17638889;stroke-miterlimit:4;stroke-dasharray:none;stroke-opacity:1"
       id="ellipse8210"
       cx="20.491724"
       cy="277.52994"
       rx="4.1370306"
       ry="4.391932" />
    <path
       style="opacity:1;fill:#d4aa00;stroke:#000000;stroke-width:0.17638889;stroke-miterlimit:4;stroke-dasharray:none;stroke-opacity:1"
       d="m 28.195746,266.55838 -3.572697,11.78177 c -1.775982,-2.95172 -6.09323,-3.22046 -8.297765,-0.76301 L 14.79994,264.41162 c 3.153938,-4.39146 11.78921,-3.34478 13.395806,2.14676 z"
       id="ellipse8212"
       inkscape:connector-curvature="0"
       sodipodi:nodetypes="ccccc" />
    <path
       style="opacity:1;fill:#000000;stroke:#000000;stroke-width:0;stroke-miterlimit:4;stroke-dasharray:none;stroke-opacity:1"
       d="m 18.051945,281.17144 c 1.893154,-1.58639 3.154228,-1.15012 4.078431,0.36414 -0.655462,5.19514 5.528453,1.89985 8.448179,7.5014 0.840808,1.6131 -2.236018,3.70852 -3.350139,1.52941 -2.04773,-4.00515 -10.341737,-0.99533 -9.176471,-9.39495 z"
       id="rect8215"
       inkscape:connector-curvature="0"
       sodipodi:nodetypes="ccssc" />
    <circle
       r="2.4632676"
       cy="266.60562"
       cx="18.488922"
       id="circle8206"
       style="opacity:1;fill:#000000;stroke:#806600;stroke-width:0.35277778;stroke-miterlimit:4;stroke-dasharray:none;stroke-opacity:1" />
    <circle
       style="opacity:1;fill:#000000;stroke:#806600;stroke-width:0.35277778;stroke-miterlimit:4;stroke-dasharray:none;stroke-opacity:1"
       id="path8204"
       cx="24.206009"
       cy="267.58878"
       r="2.4282889" />
    <ellipse
       style="opacity:1;fill:#ffffff;stroke:#000000;stroke-width:0;stroke-miterlimit:4;stroke-dasharray:none;stroke-opacity:1"
       id="path8186"
       cx="-139.75386"
       cy="226.43999"
       rx="0.97886193"
       ry="0.40059316"
       transform="rotate(-35.420202)"
       inkscape:transform-center-x="-0.36414567"
       inkscape:transform-center-y="0.72829135" />
    <ellipse
       inkscape:transform-center-y="0.72829135"
       inkscape:transform-center-x="-0.36414567"
       transform="rotate(-35.420202)"
       ry="0.40059316"
       rx="0.97886193"
       cy="230.68985"
       cx="-135.53743"
       id="ellipse8218"
       style="opacity:1;fill:#ffffff;stroke:#000000;stroke-width:0;stroke-miterlimit:4;stroke-dasharray:none;stroke-opacity:1" />
    <path
       style="opacity:1;fill:#c8c4b7;stroke:#000000;stroke-width:0;stroke-miterlimit:4;stroke-dasharray:none;stroke-opacity:1"
       d="m 19.89138,280.81066 c -0.514129,0.99255 0.02272,0.79235 0.519224,1.47187 0.348763,0.47733 0.493148,1.68387 1.035617,2.76881 0.04463,0.0893 0.30485,0.6097 6.542347,3.24208 2.33614,0.98591 0.803361,2.33891 1.911191,1.62127 0,0 1.279697,-2.18392 -6.566763,-4.63995 -2.582223,-1.03181 -1.20262,-3.73916 -3.441616,-4.46408 z"
       id="path8220"
       inkscape:connector-curvature="0"
       sodipodi:nodetypes="csssscc" />
  </g>
</svg>
